%TF.GenerationSoftware,KiCad,Pcbnew,(6.0.9)*%
%TF.CreationDate,2022-11-10T01:17:40-05:00*%
%TF.ProjectId,5GHzPhaseShifter,3547487a-5068-4617-9365-536869667465,rev?*%
%TF.SameCoordinates,Original*%
%TF.FileFunction,Legend,Bot*%
%TF.FilePolarity,Positive*%
%FSLAX46Y46*%
G04 Gerber Fmt 4.6, Leading zero omitted, Abs format (unit mm)*
G04 Created by KiCad (PCBNEW (6.0.9)) date 2022-11-10 01:17:40*
%MOMM*%
%LPD*%
G01*
G04 APERTURE LIST*
%ADD10C,0.150000*%
%ADD11C,0.120000*%
G04 APERTURE END LIST*
D10*
%TO.C,C34*%
X163468342Y-117416342D02*
X163515961Y-117368723D01*
X163563580Y-117225866D01*
X163563580Y-117130628D01*
X163515961Y-116987771D01*
X163420723Y-116892533D01*
X163325485Y-116844914D01*
X163135009Y-116797295D01*
X162992152Y-116797295D01*
X162801676Y-116844914D01*
X162706438Y-116892533D01*
X162611200Y-116987771D01*
X162563580Y-117130628D01*
X162563580Y-117225866D01*
X162611200Y-117368723D01*
X162658819Y-117416342D01*
X162563580Y-117749676D02*
X162563580Y-118368723D01*
X162944533Y-118035390D01*
X162944533Y-118178247D01*
X162992152Y-118273485D01*
X163039771Y-118321104D01*
X163135009Y-118368723D01*
X163373104Y-118368723D01*
X163468342Y-118321104D01*
X163515961Y-118273485D01*
X163563580Y-118178247D01*
X163563580Y-117892533D01*
X163515961Y-117797295D01*
X163468342Y-117749676D01*
X162896914Y-119225866D02*
X163563580Y-119225866D01*
X162515961Y-118987771D02*
X163230247Y-118749676D01*
X163230247Y-119368723D01*
%TO.C,C32*%
X163982342Y-104360742D02*
X164029961Y-104313123D01*
X164077580Y-104170266D01*
X164077580Y-104075028D01*
X164029961Y-103932171D01*
X163934723Y-103836933D01*
X163839485Y-103789314D01*
X163649009Y-103741695D01*
X163506152Y-103741695D01*
X163315676Y-103789314D01*
X163220438Y-103836933D01*
X163125200Y-103932171D01*
X163077580Y-104075028D01*
X163077580Y-104170266D01*
X163125200Y-104313123D01*
X163172819Y-104360742D01*
X163077580Y-104694076D02*
X163077580Y-105313123D01*
X163458533Y-104979790D01*
X163458533Y-105122647D01*
X163506152Y-105217885D01*
X163553771Y-105265504D01*
X163649009Y-105313123D01*
X163887104Y-105313123D01*
X163982342Y-105265504D01*
X164029961Y-105217885D01*
X164077580Y-105122647D01*
X164077580Y-104836933D01*
X164029961Y-104741695D01*
X163982342Y-104694076D01*
X163172819Y-105694076D02*
X163125200Y-105741695D01*
X163077580Y-105836933D01*
X163077580Y-106075028D01*
X163125200Y-106170266D01*
X163172819Y-106217885D01*
X163268057Y-106265504D01*
X163363295Y-106265504D01*
X163506152Y-106217885D01*
X164077580Y-105646457D01*
X164077580Y-106265504D01*
%TO.C,C30*%
X166322342Y-114977942D02*
X166369961Y-114930323D01*
X166417580Y-114787466D01*
X166417580Y-114692228D01*
X166369961Y-114549371D01*
X166274723Y-114454133D01*
X166179485Y-114406514D01*
X165989009Y-114358895D01*
X165846152Y-114358895D01*
X165655676Y-114406514D01*
X165560438Y-114454133D01*
X165465200Y-114549371D01*
X165417580Y-114692228D01*
X165417580Y-114787466D01*
X165465200Y-114930323D01*
X165512819Y-114977942D01*
X165417580Y-115311276D02*
X165417580Y-115930323D01*
X165798533Y-115596990D01*
X165798533Y-115739847D01*
X165846152Y-115835085D01*
X165893771Y-115882704D01*
X165989009Y-115930323D01*
X166227104Y-115930323D01*
X166322342Y-115882704D01*
X166369961Y-115835085D01*
X166417580Y-115739847D01*
X166417580Y-115454133D01*
X166369961Y-115358895D01*
X166322342Y-115311276D01*
X165417580Y-116549371D02*
X165417580Y-116644609D01*
X165465200Y-116739847D01*
X165512819Y-116787466D01*
X165608057Y-116835085D01*
X165798533Y-116882704D01*
X166036628Y-116882704D01*
X166227104Y-116835085D01*
X166322342Y-116787466D01*
X166369961Y-116739847D01*
X166417580Y-116644609D01*
X166417580Y-116549371D01*
X166369961Y-116454133D01*
X166322342Y-116406514D01*
X166227104Y-116358895D01*
X166036628Y-116311276D01*
X165798533Y-116311276D01*
X165608057Y-116358895D01*
X165512819Y-116406514D01*
X165465200Y-116454133D01*
X165417580Y-116549371D01*
%TO.C,C27*%
X166373142Y-109694742D02*
X166420761Y-109647123D01*
X166468380Y-109504266D01*
X166468380Y-109409028D01*
X166420761Y-109266171D01*
X166325523Y-109170933D01*
X166230285Y-109123314D01*
X166039809Y-109075695D01*
X165896952Y-109075695D01*
X165706476Y-109123314D01*
X165611238Y-109170933D01*
X165516000Y-109266171D01*
X165468380Y-109409028D01*
X165468380Y-109504266D01*
X165516000Y-109647123D01*
X165563619Y-109694742D01*
X165563619Y-110075695D02*
X165516000Y-110123314D01*
X165468380Y-110218552D01*
X165468380Y-110456647D01*
X165516000Y-110551885D01*
X165563619Y-110599504D01*
X165658857Y-110647123D01*
X165754095Y-110647123D01*
X165896952Y-110599504D01*
X166468380Y-110028076D01*
X166468380Y-110647123D01*
X165468380Y-110980457D02*
X165468380Y-111647123D01*
X166468380Y-111218552D01*
%TO.C,C29*%
X163468342Y-101515942D02*
X163515961Y-101468323D01*
X163563580Y-101325466D01*
X163563580Y-101230228D01*
X163515961Y-101087371D01*
X163420723Y-100992133D01*
X163325485Y-100944514D01*
X163135009Y-100896895D01*
X162992152Y-100896895D01*
X162801676Y-100944514D01*
X162706438Y-100992133D01*
X162611200Y-101087371D01*
X162563580Y-101230228D01*
X162563580Y-101325466D01*
X162611200Y-101468323D01*
X162658819Y-101515942D01*
X162658819Y-101896895D02*
X162611200Y-101944514D01*
X162563580Y-102039752D01*
X162563580Y-102277847D01*
X162611200Y-102373085D01*
X162658819Y-102420704D01*
X162754057Y-102468323D01*
X162849295Y-102468323D01*
X162992152Y-102420704D01*
X163563580Y-101849276D01*
X163563580Y-102468323D01*
X163563580Y-102944514D02*
X163563580Y-103134990D01*
X163515961Y-103230228D01*
X163468342Y-103277847D01*
X163325485Y-103373085D01*
X163135009Y-103420704D01*
X162754057Y-103420704D01*
X162658819Y-103373085D01*
X162611200Y-103325466D01*
X162563580Y-103230228D01*
X162563580Y-103039752D01*
X162611200Y-102944514D01*
X162658819Y-102896895D01*
X162754057Y-102849276D01*
X162992152Y-102849276D01*
X163087390Y-102896895D01*
X163135009Y-102944514D01*
X163182628Y-103039752D01*
X163182628Y-103230228D01*
X163135009Y-103325466D01*
X163087390Y-103373085D01*
X162992152Y-103420704D01*
%TO.C,C31*%
X163468342Y-112133142D02*
X163515961Y-112085523D01*
X163563580Y-111942666D01*
X163563580Y-111847428D01*
X163515961Y-111704571D01*
X163420723Y-111609333D01*
X163325485Y-111561714D01*
X163135009Y-111514095D01*
X162992152Y-111514095D01*
X162801676Y-111561714D01*
X162706438Y-111609333D01*
X162611200Y-111704571D01*
X162563580Y-111847428D01*
X162563580Y-111942666D01*
X162611200Y-112085523D01*
X162658819Y-112133142D01*
X162563580Y-112466476D02*
X162563580Y-113085523D01*
X162944533Y-112752190D01*
X162944533Y-112895047D01*
X162992152Y-112990285D01*
X163039771Y-113037904D01*
X163135009Y-113085523D01*
X163373104Y-113085523D01*
X163468342Y-113037904D01*
X163515961Y-112990285D01*
X163563580Y-112895047D01*
X163563580Y-112609333D01*
X163515961Y-112514095D01*
X163468342Y-112466476D01*
X163563580Y-114037904D02*
X163563580Y-113466476D01*
X163563580Y-113752190D02*
X162563580Y-113752190D01*
X162706438Y-113656952D01*
X162801676Y-113561714D01*
X162849295Y-113466476D01*
%TO.C,C33*%
X163982342Y-99077542D02*
X164029961Y-99029923D01*
X164077580Y-98887066D01*
X164077580Y-98791828D01*
X164029961Y-98648971D01*
X163934723Y-98553733D01*
X163839485Y-98506114D01*
X163649009Y-98458495D01*
X163506152Y-98458495D01*
X163315676Y-98506114D01*
X163220438Y-98553733D01*
X163125200Y-98648971D01*
X163077580Y-98791828D01*
X163077580Y-98887066D01*
X163125200Y-99029923D01*
X163172819Y-99077542D01*
X163077580Y-99410876D02*
X163077580Y-100029923D01*
X163458533Y-99696590D01*
X163458533Y-99839447D01*
X163506152Y-99934685D01*
X163553771Y-99982304D01*
X163649009Y-100029923D01*
X163887104Y-100029923D01*
X163982342Y-99982304D01*
X164029961Y-99934685D01*
X164077580Y-99839447D01*
X164077580Y-99553733D01*
X164029961Y-99458495D01*
X163982342Y-99410876D01*
X163077580Y-100363257D02*
X163077580Y-100982304D01*
X163458533Y-100648971D01*
X163458533Y-100791828D01*
X163506152Y-100887066D01*
X163553771Y-100934685D01*
X163649009Y-100982304D01*
X163887104Y-100982304D01*
X163982342Y-100934685D01*
X164029961Y-100887066D01*
X164077580Y-100791828D01*
X164077580Y-100506114D01*
X164029961Y-100410876D01*
X163982342Y-100363257D01*
%TO.C,C28*%
X163468342Y-106799142D02*
X163515961Y-106751523D01*
X163563580Y-106608666D01*
X163563580Y-106513428D01*
X163515961Y-106370571D01*
X163420723Y-106275333D01*
X163325485Y-106227714D01*
X163135009Y-106180095D01*
X162992152Y-106180095D01*
X162801676Y-106227714D01*
X162706438Y-106275333D01*
X162611200Y-106370571D01*
X162563580Y-106513428D01*
X162563580Y-106608666D01*
X162611200Y-106751523D01*
X162658819Y-106799142D01*
X162658819Y-107180095D02*
X162611200Y-107227714D01*
X162563580Y-107322952D01*
X162563580Y-107561047D01*
X162611200Y-107656285D01*
X162658819Y-107703904D01*
X162754057Y-107751523D01*
X162849295Y-107751523D01*
X162992152Y-107703904D01*
X163563580Y-107132476D01*
X163563580Y-107751523D01*
X162992152Y-108322952D02*
X162944533Y-108227714D01*
X162896914Y-108180095D01*
X162801676Y-108132476D01*
X162754057Y-108132476D01*
X162658819Y-108180095D01*
X162611200Y-108227714D01*
X162563580Y-108322952D01*
X162563580Y-108513428D01*
X162611200Y-108608666D01*
X162658819Y-108656285D01*
X162754057Y-108703904D01*
X162801676Y-108703904D01*
X162896914Y-108656285D01*
X162944533Y-108608666D01*
X162992152Y-108513428D01*
X162992152Y-108322952D01*
X163039771Y-108227714D01*
X163087390Y-108180095D01*
X163182628Y-108132476D01*
X163373104Y-108132476D01*
X163468342Y-108180095D01*
X163515961Y-108227714D01*
X163563580Y-108322952D01*
X163563580Y-108513428D01*
X163515961Y-108608666D01*
X163468342Y-108656285D01*
X163373104Y-108703904D01*
X163182628Y-108703904D01*
X163087390Y-108656285D01*
X163039771Y-108608666D01*
X162992152Y-108513428D01*
D11*
%TO.C,C34*%
X165063700Y-117821942D02*
X165063700Y-118296458D01*
X164018700Y-117821942D02*
X164018700Y-118296458D01*
%TO.C,C32*%
X164415200Y-104849959D02*
X164415200Y-105157241D01*
X165175200Y-104849959D02*
X165175200Y-105157241D01*
%TO.C,C30*%
X165175200Y-115774441D02*
X165175200Y-115467159D01*
X164415200Y-115774441D02*
X164415200Y-115467159D01*
%TO.C,C27*%
X164466000Y-110491241D02*
X164466000Y-110183959D01*
X165226000Y-110491241D02*
X165226000Y-110183959D01*
%TO.C,C29*%
X165063700Y-101921542D02*
X165063700Y-102396058D01*
X164018700Y-101921542D02*
X164018700Y-102396058D01*
%TO.C,C31*%
X164018700Y-112538742D02*
X164018700Y-113013258D01*
X165063700Y-112538742D02*
X165063700Y-113013258D01*
%TO.C,C33*%
X164415200Y-99566759D02*
X164415200Y-99874041D01*
X165175200Y-99566759D02*
X165175200Y-99874041D01*
%TO.C,C28*%
X165063700Y-107204742D02*
X165063700Y-107679258D01*
X164018700Y-107204742D02*
X164018700Y-107679258D01*
%TD*%
M02*
