M48
; DRILL file {KiCad (6.0.9)} date Thu Nov 10 01:17:42 2022
; FORMAT={-:-/ absolute / metric / decimal}
; #@! TF.CreationDate,2022-11-10T01:17:42-05:00
; #@! TF.GenerationSoftware,Kicad,Pcbnew,(6.0.9)
; #@! TF.FileFunction,Plated,1,4,PTH
FMAT,2
METRIC
; #@! TA.AperFunction,Plated,PTH,ViaDrill
T1C0.200
; #@! TA.AperFunction,Plated,PTH,ComponentDrill
T2C1.000
; #@! TA.AperFunction,Plated,PTH,ComponentDrill
T3C1.100
; #@! TA.AperFunction,Plated,PTH,ComponentDrill
T4C1.400
; #@! TA.AperFunction,Plated,PTH,ComponentDrill
T5C2.154
; #@! TA.AperFunction,Plated,PTH,ComponentDrill
T6C2.435
%
G90
G05
T1
X80.518Y-132.334
X80.534Y-133.334
X80.534Y-134.334
X80.534Y-135.334
X80.534Y-136.334
X81.534Y-132.334
X81.534Y-133.334
X81.534Y-134.334
X81.534Y-135.334
X81.534Y-136.334
X82.534Y-132.334
X82.534Y-133.334
X82.534Y-134.334
X82.534Y-135.334
X82.534Y-136.334
X83.534Y-132.334
X83.534Y-133.334
X83.534Y-134.334
X83.534Y-135.334
X83.534Y-136.334
X84.534Y-132.334
X84.534Y-133.334
X84.534Y-134.334
X84.534Y-135.334
X84.534Y-136.334
X89.662Y-119.38
X90.424Y-119.38
X91.186Y-119.38
X91.948Y-119.38
X92.456Y-106.68
X92.71Y-119.38
X93.218Y-106.68
X93.98Y-106.68
X94.456Y-141.205
X94.462Y-137.135
X94.742Y-106.68
X95.098Y-141.58
X95.25Y-136.906
X95.504Y-106.68
X95.91Y-141.581
X96.012Y-138.938
X96.774Y-138.303
X100.521Y-134.811
X100.521Y-135.811
X100.521Y-136.811
X100.521Y-137.811
X100.521Y-138.811
X101.521Y-134.811
X101.521Y-135.811
X101.521Y-136.811
X101.521Y-137.811
X101.521Y-138.811
X101.6Y-119.888
X101.6Y-120.888
X101.6Y-121.888
X101.6Y-122.888
X101.6Y-123.888
X102.156Y-105.934
X102.156Y-106.934
X102.156Y-107.934
X102.156Y-108.934
X102.362Y-105.156
X102.521Y-134.811
X102.521Y-135.811
X102.521Y-136.811
X102.521Y-137.811
X102.521Y-138.811
X102.6Y-119.888
X102.6Y-120.888
X102.6Y-121.888
X102.6Y-122.888
X102.6Y-123.888
X103.156Y-104.934
X103.156Y-105.934
X103.156Y-106.934
X103.156Y-107.934
X103.156Y-108.934
X103.521Y-134.811
X103.521Y-135.811
X103.521Y-136.811
X103.521Y-137.811
X103.521Y-138.811
X103.6Y-119.888
X103.6Y-120.888
X103.6Y-121.888
X103.6Y-122.888
X103.6Y-123.888
X104.156Y-104.934
X104.156Y-105.934
X104.156Y-106.934
X104.156Y-107.934
X104.156Y-108.934
X104.521Y-134.811
X104.521Y-135.811
X104.521Y-136.811
X104.521Y-137.811
X104.521Y-138.811
X104.6Y-119.888
X104.6Y-120.888
X104.6Y-121.888
X104.6Y-122.888
X104.6Y-123.888
X105.156Y-104.934
X105.156Y-105.934
X105.156Y-106.934
X105.156Y-107.934
X105.156Y-108.934
X105.6Y-119.888
X105.6Y-120.888
X105.6Y-121.888
X105.6Y-122.888
X105.6Y-123.888
X106.156Y-104.934
X106.156Y-105.934
X106.156Y-106.934
X106.156Y-107.934
X106.156Y-108.934
X110.388Y-121.92
X111.15Y-121.92
X111.963Y-121.92
X112.014Y-127.508
X113.132Y-107.95
X113.843Y-107.95
X114.554Y-107.95
X114.656Y-143.307
X115.265Y-107.95
X115.367Y-103.226
X116.434Y-109.525
X116.738Y-103.226
X117.551Y-110.998
X118.466Y-123.292
X118.516Y-103.937
X118.516Y-104.902
X118.516Y-107.34
X119.075Y-108.763
X119.195Y-112.776
X119.583Y-101.194
X119.736Y-126.543
X119.99Y-108.458
X120.091Y-129.134
X120.193Y-106.68
X120.447Y-109.047
X120.447Y-112.573
X120.802Y-101.549
X120.802Y-110.947
X120.98Y-123.261
X121.578Y-131.214
X121.578Y-132.214
X121.578Y-133.214
X121.578Y-134.214
X121.832Y-130.42
X122.022Y-100.584
X122.022Y-102.265
X122.063Y-103.946
X122.578Y-130.214
X122.578Y-131.214
X122.578Y-132.214
X122.578Y-133.214
X122.578Y-134.214
X122.784Y-122.174
X122.936Y-107.47
X122.936Y-108.17
X122.936Y-108.87
X123.578Y-130.214
X123.578Y-131.214
X123.578Y-132.214
X123.578Y-133.214
X123.578Y-134.214
X123.636Y-106.77
X123.636Y-107.47
X123.636Y-108.17
X123.636Y-108.87
X124.257Y-121.717
X124.275Y-120.955
X124.336Y-106.07
X124.336Y-106.77
X124.336Y-107.47
X124.336Y-108.17
X124.336Y-108.87
X124.511Y-100.533
X124.511Y-102.26
X124.578Y-130.214
X124.578Y-131.214
X124.578Y-132.214
X124.578Y-133.214
X124.578Y-134.214
X124.75Y-112.902
X124.816Y-140.208
X124.866Y-126.492
X125.036Y-106.07
X125.036Y-106.77
X125.036Y-107.47
X125.036Y-108.17
X125.036Y-108.87
X125.046Y-112.09
X125.07Y-127.762
X125.374Y-111.271
X125.578Y-114.706
X125.578Y-130.214
X125.578Y-131.214
X125.578Y-132.214
X125.578Y-133.214
X125.578Y-134.214
X125.679Y-116.942
X125.679Y-119.075
X125.736Y-106.07
X125.736Y-106.77
X125.736Y-107.47
X125.736Y-108.17
X125.736Y-108.87
X125.781Y-101.651
X126.035Y-123.139
X126.289Y-114.148
X126.492Y-117.028
X126.492Y-119.024
X126.543Y-115.011
X126.594Y-121.768
X127.0Y-104.418
X127.305Y-126.492
X127.356Y-110.49
X127.356Y-123.139
X127.508Y-113.284
X127.813Y-104.8
X127.965Y-121.158
X128.422Y-106.07
X128.727Y-114.148
X129.438Y-106.07
X130.302Y-116.23
X130.505Y-136.652
X131.115Y-110.338
X131.115Y-123.19
X131.115Y-143.51
X131.166Y-105.156
X132.131Y-109.118
X133.756Y-131.42
X134.366Y-130.658
X134.487Y-108.743
X134.499Y-107.391
X135.077Y-115.727
X135.077Y-131.978
X136.042Y-130.912
X136.347Y-108.102
X138.227Y-108.255
X138.227Y-109.576
X140.056Y-108.915
X145.644Y-121.056
X146.71Y-119.024
X147.32Y-108.306
X147.32Y-119.939
X147.371Y-106.274
X147.371Y-109.576
X147.371Y-111.608
X148.285Y-107.29
X148.285Y-110.541
X158.191Y-107.391
X158.191Y-110.49
X159.156Y-106.731
X159.156Y-108.052
X159.156Y-109.83
X159.156Y-111.15
X159.918Y-106.528
X160.071Y-119.583
X160.122Y-111.506
X160.274Y-109.474
X160.376Y-108.356
X160.731Y-118.11
X161.341Y-110.593
X161.392Y-107.288
X163.373Y-117.246
X163.424Y-101.346
X163.474Y-102.616
X163.474Y-112.471
X163.474Y-113.589
X163.474Y-118.872
X163.525Y-106.629
X163.576Y-108.61
X163.881Y-105.512
X163.982Y-99.212
X163.982Y-100.228
X164.033Y-104.496
X164.084Y-109.83
X164.084Y-110.846
X164.262Y-115.748
X166.37Y-124.257
X166.98Y-120.904
X167.205Y-100.33
X167.205Y-101.03
X167.205Y-101.73
X167.205Y-116.18
X167.205Y-116.88
X167.205Y-117.58
X167.256Y-105.562
X167.256Y-106.262
X167.256Y-106.962
X167.256Y-110.947
X167.256Y-111.647
X167.256Y-112.347
X167.905Y-100.33
X167.905Y-101.03
X167.905Y-101.73
X167.905Y-116.18
X167.905Y-116.88
X167.905Y-117.58
X167.956Y-105.562
X167.956Y-106.262
X167.956Y-106.962
X167.956Y-110.947
X167.956Y-111.647
X167.956Y-112.347
X168.605Y-100.33
X168.605Y-101.03
X168.605Y-101.73
X168.605Y-116.18
X168.605Y-116.88
X168.605Y-117.58
X168.656Y-105.562
X168.656Y-106.262
X168.656Y-106.962
X168.656Y-110.947
X168.656Y-111.647
X168.656Y-112.347
X169.723Y-123.546
X169.926Y-104.546
X169.926Y-109.779
X169.926Y-115.062
X170.429Y-114.452
X170.439Y-103.816
X170.485Y-120.701
X170.586Y-121.514
X170.773Y-110.544
X170.79Y-105.867
X170.84Y-116.484
X170.942Y-111.404
X170.993Y-99.67
X170.993Y-101.295
X171.653Y-100.279
X171.704Y-109.068
X172.364Y-103.632
X172.364Y-114.249
X172.618Y-99.009
X172.618Y-100.279
X173.634Y-110.947
X174.193Y-102.972
X174.193Y-104.292
X174.193Y-113.589
X174.193Y-114.91
X176.53Y-113.843
X176.987Y-108.966
X178.918Y-108.306
X178.918Y-109.576
X179.883Y-108.001
X180.594Y-105.308
X183.156Y-107.544
X183.156Y-108.244
X183.156Y-108.944
X183.856Y-107.544
X183.856Y-108.244
X183.856Y-108.944
X184.556Y-107.544
X184.556Y-108.244
X184.556Y-108.944
X185.826Y-112.674
X186.893Y-107.899
X187.706Y-113.386
X189.23Y-113.335
X189.636Y-109.83
X191.618Y-105.918
X191.922Y-108.204
X191.922Y-108.904
X191.922Y-109.604
X192.278Y-113.335
X192.622Y-108.204
X192.622Y-108.904
X192.622Y-109.604
X193.322Y-108.204
X193.322Y-108.904
X193.322Y-109.604
T2
X125.456Y-144.907
X127.996Y-144.907
T3
X207.696Y-94.615
X207.708Y-108.915
T4
X202.646Y-89.565
X202.646Y-99.665
X202.658Y-103.865
X202.658Y-113.965
X212.746Y-89.565
X212.746Y-99.665
X212.758Y-103.865
X212.758Y-113.965
T5
X78.01Y-131.1
X78.01Y-136.3
X78.01Y-139.7
T6
X70.71Y-130.2
X70.71Y-140.1
T0
M30
