%TF.GenerationSoftware,KiCad,Pcbnew,(6.0.9)*%
%TF.CreationDate,2022-11-10T01:17:40-05:00*%
%TF.ProjectId,5GHzPhaseShifter,3547487a-5068-4617-9365-536869667465,rev?*%
%TF.SameCoordinates,Original*%
%TF.FileFunction,Legend,Top*%
%TF.FilePolarity,Positive*%
%FSLAX46Y46*%
G04 Gerber Fmt 4.6, Leading zero omitted, Abs format (unit mm)*
G04 Created by KiCad (PCBNEW (6.0.9)) date 2022-11-10 01:17:40*
%MOMM*%
%LPD*%
G01*
G04 APERTURE LIST*
%ADD10C,0.250000*%
%ADD11C,0.150000*%
%ADD12C,0.254000*%
%ADD13C,0.120000*%
%ADD14C,0.200000*%
%ADD15C,0.100000*%
%ADD16C,0.125000*%
G04 APERTURE END LIST*
D10*
X151809580Y-103677980D02*
X151238152Y-103677980D01*
X151523866Y-103677980D02*
X151523866Y-102677980D01*
X151428628Y-102820838D01*
X151333390Y-102916076D01*
X151238152Y-102963695D01*
X152381009Y-103106552D02*
X152285771Y-103058933D01*
X152238152Y-103011314D01*
X152190533Y-102916076D01*
X152190533Y-102868457D01*
X152238152Y-102773219D01*
X152285771Y-102725600D01*
X152381009Y-102677980D01*
X152571485Y-102677980D01*
X152666723Y-102725600D01*
X152714342Y-102773219D01*
X152761961Y-102868457D01*
X152761961Y-102916076D01*
X152714342Y-103011314D01*
X152666723Y-103058933D01*
X152571485Y-103106552D01*
X152381009Y-103106552D01*
X152285771Y-103154171D01*
X152238152Y-103201790D01*
X152190533Y-103297028D01*
X152190533Y-103487504D01*
X152238152Y-103582742D01*
X152285771Y-103630361D01*
X152381009Y-103677980D01*
X152571485Y-103677980D01*
X152666723Y-103630361D01*
X152714342Y-103582742D01*
X152761961Y-103487504D01*
X152761961Y-103297028D01*
X152714342Y-103201790D01*
X152666723Y-103154171D01*
X152571485Y-103106552D01*
X153381009Y-102677980D02*
X153476247Y-102677980D01*
X153571485Y-102725600D01*
X153619104Y-102773219D01*
X153666723Y-102868457D01*
X153714342Y-103058933D01*
X153714342Y-103297028D01*
X153666723Y-103487504D01*
X153619104Y-103582742D01*
X153571485Y-103630361D01*
X153476247Y-103677980D01*
X153381009Y-103677980D01*
X153285771Y-103630361D01*
X153238152Y-103582742D01*
X153190533Y-103487504D01*
X153142914Y-103297028D01*
X153142914Y-103058933D01*
X153190533Y-102868457D01*
X153238152Y-102773219D01*
X153285771Y-102725600D01*
X153381009Y-102677980D01*
X154285771Y-102677980D02*
X154190533Y-102725600D01*
X154142914Y-102820838D01*
X154190533Y-102916076D01*
X154285771Y-102963695D01*
X154381009Y-102916076D01*
X154428628Y-102820838D01*
X154381009Y-102725600D01*
X154285771Y-102677980D01*
X151657180Y-115463580D02*
X151085752Y-115463580D01*
X151371466Y-115463580D02*
X151371466Y-114463580D01*
X151276228Y-114606438D01*
X151180990Y-114701676D01*
X151085752Y-114749295D01*
X152228609Y-114892152D02*
X152133371Y-114844533D01*
X152085752Y-114796914D01*
X152038133Y-114701676D01*
X152038133Y-114654057D01*
X152085752Y-114558819D01*
X152133371Y-114511200D01*
X152228609Y-114463580D01*
X152419085Y-114463580D01*
X152514323Y-114511200D01*
X152561942Y-114558819D01*
X152609561Y-114654057D01*
X152609561Y-114701676D01*
X152561942Y-114796914D01*
X152514323Y-114844533D01*
X152419085Y-114892152D01*
X152228609Y-114892152D01*
X152133371Y-114939771D01*
X152085752Y-114987390D01*
X152038133Y-115082628D01*
X152038133Y-115273104D01*
X152085752Y-115368342D01*
X152133371Y-115415961D01*
X152228609Y-115463580D01*
X152419085Y-115463580D01*
X152514323Y-115415961D01*
X152561942Y-115368342D01*
X152609561Y-115273104D01*
X152609561Y-115082628D01*
X152561942Y-114987390D01*
X152514323Y-114939771D01*
X152419085Y-114892152D01*
X153228609Y-114463580D02*
X153323847Y-114463580D01*
X153419085Y-114511200D01*
X153466704Y-114558819D01*
X153514323Y-114654057D01*
X153561942Y-114844533D01*
X153561942Y-115082628D01*
X153514323Y-115273104D01*
X153466704Y-115368342D01*
X153419085Y-115415961D01*
X153323847Y-115463580D01*
X153228609Y-115463580D01*
X153133371Y-115415961D01*
X153085752Y-115368342D01*
X153038133Y-115273104D01*
X152990514Y-115082628D01*
X152990514Y-114844533D01*
X153038133Y-114654057D01*
X153085752Y-114558819D01*
X153133371Y-114511200D01*
X153228609Y-114463580D01*
X154133371Y-114463580D02*
X154038133Y-114511200D01*
X153990514Y-114606438D01*
X154038133Y-114701676D01*
X154133371Y-114749295D01*
X154228609Y-114701676D01*
X154276228Y-114606438D01*
X154228609Y-114511200D01*
X154133371Y-114463580D01*
X142970380Y-107081580D02*
X143160857Y-107081580D01*
X143256095Y-107033961D01*
X143303714Y-106986342D01*
X143398952Y-106843485D01*
X143446571Y-106653009D01*
X143446571Y-106272057D01*
X143398952Y-106176819D01*
X143351333Y-106129200D01*
X143256095Y-106081580D01*
X143065619Y-106081580D01*
X142970380Y-106129200D01*
X142922761Y-106176819D01*
X142875142Y-106272057D01*
X142875142Y-106510152D01*
X142922761Y-106605390D01*
X142970380Y-106653009D01*
X143065619Y-106700628D01*
X143256095Y-106700628D01*
X143351333Y-106653009D01*
X143398952Y-106605390D01*
X143446571Y-106510152D01*
X144065619Y-106081580D02*
X144160857Y-106081580D01*
X144256095Y-106129200D01*
X144303714Y-106176819D01*
X144351333Y-106272057D01*
X144398952Y-106462533D01*
X144398952Y-106700628D01*
X144351333Y-106891104D01*
X144303714Y-106986342D01*
X144256095Y-107033961D01*
X144160857Y-107081580D01*
X144065619Y-107081580D01*
X143970380Y-107033961D01*
X143922761Y-106986342D01*
X143875142Y-106891104D01*
X143827523Y-106700628D01*
X143827523Y-106462533D01*
X143875142Y-106272057D01*
X143922761Y-106176819D01*
X143970380Y-106129200D01*
X144065619Y-106081580D01*
X144970380Y-106081580D02*
X144875142Y-106129200D01*
X144827523Y-106224438D01*
X144875142Y-106319676D01*
X144970380Y-106367295D01*
X145065619Y-106319676D01*
X145113238Y-106224438D01*
X145065619Y-106129200D01*
X144970380Y-106081580D01*
X151088933Y-108367580D02*
X151707980Y-108367580D01*
X151374647Y-108748533D01*
X151517504Y-108748533D01*
X151612742Y-108796152D01*
X151660361Y-108843771D01*
X151707980Y-108939009D01*
X151707980Y-109177104D01*
X151660361Y-109272342D01*
X151612742Y-109319961D01*
X151517504Y-109367580D01*
X151231790Y-109367580D01*
X151136552Y-109319961D01*
X151088933Y-109272342D01*
X152565123Y-108367580D02*
X152374647Y-108367580D01*
X152279409Y-108415200D01*
X152231790Y-108462819D01*
X152136552Y-108605676D01*
X152088933Y-108796152D01*
X152088933Y-109177104D01*
X152136552Y-109272342D01*
X152184171Y-109319961D01*
X152279409Y-109367580D01*
X152469885Y-109367580D01*
X152565123Y-109319961D01*
X152612742Y-109272342D01*
X152660361Y-109177104D01*
X152660361Y-108939009D01*
X152612742Y-108843771D01*
X152565123Y-108796152D01*
X152469885Y-108748533D01*
X152279409Y-108748533D01*
X152184171Y-108796152D01*
X152136552Y-108843771D01*
X152088933Y-108939009D01*
X153279409Y-108367580D02*
X153374647Y-108367580D01*
X153469885Y-108415200D01*
X153517504Y-108462819D01*
X153565123Y-108558057D01*
X153612742Y-108748533D01*
X153612742Y-108986628D01*
X153565123Y-109177104D01*
X153517504Y-109272342D01*
X153469885Y-109319961D01*
X153374647Y-109367580D01*
X153279409Y-109367580D01*
X153184171Y-109319961D01*
X153136552Y-109272342D01*
X153088933Y-109177104D01*
X153041314Y-108986628D01*
X153041314Y-108748533D01*
X153088933Y-108558057D01*
X153136552Y-108462819D01*
X153184171Y-108415200D01*
X153279409Y-108367580D01*
X154184171Y-108367580D02*
X154088933Y-108415200D01*
X154041314Y-108510438D01*
X154088933Y-108605676D01*
X154184171Y-108653295D01*
X154279409Y-108605676D01*
X154327028Y-108510438D01*
X154279409Y-108415200D01*
X154184171Y-108367580D01*
X142529133Y-109891580D02*
X143148180Y-109891580D01*
X142814847Y-110272533D01*
X142957704Y-110272533D01*
X143052942Y-110320152D01*
X143100561Y-110367771D01*
X143148180Y-110463009D01*
X143148180Y-110701104D01*
X143100561Y-110796342D01*
X143052942Y-110843961D01*
X142957704Y-110891580D01*
X142671990Y-110891580D01*
X142576752Y-110843961D01*
X142529133Y-110796342D01*
X144005323Y-109891580D02*
X143814847Y-109891580D01*
X143719609Y-109939200D01*
X143671990Y-109986819D01*
X143576752Y-110129676D01*
X143529133Y-110320152D01*
X143529133Y-110701104D01*
X143576752Y-110796342D01*
X143624371Y-110843961D01*
X143719609Y-110891580D01*
X143910085Y-110891580D01*
X144005323Y-110843961D01*
X144052942Y-110796342D01*
X144100561Y-110701104D01*
X144100561Y-110463009D01*
X144052942Y-110367771D01*
X144005323Y-110320152D01*
X143910085Y-110272533D01*
X143719609Y-110272533D01*
X143624371Y-110320152D01*
X143576752Y-110367771D01*
X143529133Y-110463009D01*
X144719609Y-109891580D02*
X144814847Y-109891580D01*
X144910085Y-109939200D01*
X144957704Y-109986819D01*
X145005323Y-110082057D01*
X145052942Y-110272533D01*
X145052942Y-110510628D01*
X145005323Y-110701104D01*
X144957704Y-110796342D01*
X144910085Y-110843961D01*
X144814847Y-110891580D01*
X144719609Y-110891580D01*
X144624371Y-110843961D01*
X144576752Y-110796342D01*
X144529133Y-110701104D01*
X144481514Y-110510628D01*
X144481514Y-110272533D01*
X144529133Y-110082057D01*
X144576752Y-109986819D01*
X144624371Y-109939200D01*
X144719609Y-109891580D01*
X145624371Y-109891580D02*
X145529133Y-109939200D01*
X145481514Y-110034438D01*
X145529133Y-110129676D01*
X145624371Y-110177295D01*
X145719609Y-110129676D01*
X145767228Y-110034438D01*
X145719609Y-109939200D01*
X145624371Y-109891580D01*
D11*
%TO.C,R6*%
X139890780Y-109081866D02*
X139414590Y-109415200D01*
X139890780Y-109653295D02*
X138890780Y-109653295D01*
X138890780Y-109272342D01*
X138938400Y-109177104D01*
X138986019Y-109129485D01*
X139081257Y-109081866D01*
X139224114Y-109081866D01*
X139319352Y-109129485D01*
X139366971Y-109177104D01*
X139414590Y-109272342D01*
X139414590Y-109653295D01*
X138890780Y-108224723D02*
X138890780Y-108415200D01*
X138938400Y-108510438D01*
X138986019Y-108558057D01*
X139128876Y-108653295D01*
X139319352Y-108700914D01*
X139700304Y-108700914D01*
X139795542Y-108653295D01*
X139843161Y-108605676D01*
X139890780Y-108510438D01*
X139890780Y-108319961D01*
X139843161Y-108224723D01*
X139795542Y-108177104D01*
X139700304Y-108129485D01*
X139462209Y-108129485D01*
X139366971Y-108177104D01*
X139319352Y-108224723D01*
X139271733Y-108319961D01*
X139271733Y-108510438D01*
X139319352Y-108605676D01*
X139366971Y-108653295D01*
X139462209Y-108700914D01*
%TO.C,C22*%
X121557142Y-112910857D02*
X121604761Y-112958476D01*
X121652380Y-113101333D01*
X121652380Y-113196571D01*
X121604761Y-113339428D01*
X121509523Y-113434666D01*
X121414285Y-113482285D01*
X121223809Y-113529904D01*
X121080952Y-113529904D01*
X120890476Y-113482285D01*
X120795238Y-113434666D01*
X120700000Y-113339428D01*
X120652380Y-113196571D01*
X120652380Y-113101333D01*
X120700000Y-112958476D01*
X120747619Y-112910857D01*
X120747619Y-112529904D02*
X120700000Y-112482285D01*
X120652380Y-112387047D01*
X120652380Y-112148952D01*
X120700000Y-112053714D01*
X120747619Y-112006095D01*
X120842857Y-111958476D01*
X120938095Y-111958476D01*
X121080952Y-112006095D01*
X121652380Y-112577523D01*
X121652380Y-111958476D01*
X120747619Y-111577523D02*
X120700000Y-111529904D01*
X120652380Y-111434666D01*
X120652380Y-111196571D01*
X120700000Y-111101333D01*
X120747619Y-111053714D01*
X120842857Y-111006095D01*
X120938095Y-111006095D01*
X121080952Y-111053714D01*
X121652380Y-111625142D01*
X121652380Y-111006095D01*
%TO.C,C42*%
X195953142Y-110442342D02*
X195905523Y-110489961D01*
X195762666Y-110537580D01*
X195667428Y-110537580D01*
X195524571Y-110489961D01*
X195429333Y-110394723D01*
X195381714Y-110299485D01*
X195334095Y-110109009D01*
X195334095Y-109966152D01*
X195381714Y-109775676D01*
X195429333Y-109680438D01*
X195524571Y-109585200D01*
X195667428Y-109537580D01*
X195762666Y-109537580D01*
X195905523Y-109585200D01*
X195953142Y-109632819D01*
X196810285Y-109870914D02*
X196810285Y-110537580D01*
X196572190Y-109489961D02*
X196334095Y-110204247D01*
X196953142Y-110204247D01*
X197286476Y-109632819D02*
X197334095Y-109585200D01*
X197429333Y-109537580D01*
X197667428Y-109537580D01*
X197762666Y-109585200D01*
X197810285Y-109632819D01*
X197857904Y-109728057D01*
X197857904Y-109823295D01*
X197810285Y-109966152D01*
X197238857Y-110537580D01*
X197857904Y-110537580D01*
%TO.C,C41*%
X186633142Y-112352057D02*
X186680761Y-112399676D01*
X186728380Y-112542533D01*
X186728380Y-112637771D01*
X186680761Y-112780628D01*
X186585523Y-112875866D01*
X186490285Y-112923485D01*
X186299809Y-112971104D01*
X186156952Y-112971104D01*
X185966476Y-112923485D01*
X185871238Y-112875866D01*
X185776000Y-112780628D01*
X185728380Y-112637771D01*
X185728380Y-112542533D01*
X185776000Y-112399676D01*
X185823619Y-112352057D01*
X186061714Y-111494914D02*
X186728380Y-111494914D01*
X185680761Y-111733009D02*
X186395047Y-111971104D01*
X186395047Y-111352057D01*
X186728380Y-110447295D02*
X186728380Y-111018723D01*
X186728380Y-110733009D02*
X185728380Y-110733009D01*
X185871238Y-110828247D01*
X185966476Y-110923485D01*
X186014095Y-111018723D01*
D12*
%TO.C,IC7*%
X100953238Y-122661523D02*
X100953238Y-121391523D01*
X102283714Y-122540571D02*
X102223238Y-122601047D01*
X102041809Y-122661523D01*
X101920857Y-122661523D01*
X101739428Y-122601047D01*
X101618476Y-122480095D01*
X101558000Y-122359142D01*
X101497523Y-122117238D01*
X101497523Y-121935809D01*
X101558000Y-121693904D01*
X101618476Y-121572952D01*
X101739428Y-121452000D01*
X101920857Y-121391523D01*
X102041809Y-121391523D01*
X102223238Y-121452000D01*
X102283714Y-121512476D01*
X102707047Y-121391523D02*
X103553714Y-121391523D01*
X103009428Y-122661523D01*
D11*
%TO.C,R12*%
X198543942Y-108197580D02*
X198210609Y-107721390D01*
X197972514Y-108197580D02*
X197972514Y-107197580D01*
X198353466Y-107197580D01*
X198448704Y-107245200D01*
X198496323Y-107292819D01*
X198543942Y-107388057D01*
X198543942Y-107530914D01*
X198496323Y-107626152D01*
X198448704Y-107673771D01*
X198353466Y-107721390D01*
X197972514Y-107721390D01*
X199496323Y-108197580D02*
X198924895Y-108197580D01*
X199210609Y-108197580D02*
X199210609Y-107197580D01*
X199115371Y-107340438D01*
X199020133Y-107435676D01*
X198924895Y-107483295D01*
X199877276Y-107292819D02*
X199924895Y-107245200D01*
X200020133Y-107197580D01*
X200258228Y-107197580D01*
X200353466Y-107245200D01*
X200401085Y-107292819D01*
X200448704Y-107388057D01*
X200448704Y-107483295D01*
X200401085Y-107626152D01*
X199829657Y-108197580D01*
X200448704Y-108197580D01*
%TO.C,U4*%
X153219904Y-117080819D02*
X153219904Y-116271295D01*
X153172285Y-116176057D01*
X153124666Y-116128438D01*
X153029428Y-116080819D01*
X152838952Y-116080819D01*
X152743714Y-116128438D01*
X152696095Y-116176057D01*
X152648476Y-116271295D01*
X152648476Y-117080819D01*
X151743714Y-116747485D02*
X151743714Y-116080819D01*
X151981809Y-117128438D02*
X152219904Y-116414152D01*
X151600857Y-116414152D01*
%TO.C,C12*%
X116941542Y-105087657D02*
X116989161Y-105135276D01*
X117036780Y-105278133D01*
X117036780Y-105373371D01*
X116989161Y-105516228D01*
X116893923Y-105611466D01*
X116798685Y-105659085D01*
X116608209Y-105706704D01*
X116465352Y-105706704D01*
X116274876Y-105659085D01*
X116179638Y-105611466D01*
X116084400Y-105516228D01*
X116036780Y-105373371D01*
X116036780Y-105278133D01*
X116084400Y-105135276D01*
X116132019Y-105087657D01*
X117036780Y-104135276D02*
X117036780Y-104706704D01*
X117036780Y-104420990D02*
X116036780Y-104420990D01*
X116179638Y-104516228D01*
X116274876Y-104611466D01*
X116322495Y-104706704D01*
X116132019Y-103754323D02*
X116084400Y-103706704D01*
X116036780Y-103611466D01*
X116036780Y-103373371D01*
X116084400Y-103278133D01*
X116132019Y-103230514D01*
X116227257Y-103182895D01*
X116322495Y-103182895D01*
X116465352Y-103230514D01*
X117036780Y-103801942D01*
X117036780Y-103182895D01*
D12*
%TO.C,AT3*%
X166553847Y-106485266D02*
X167158609Y-106485266D01*
X166432895Y-106848123D02*
X166856228Y-105578123D01*
X167279561Y-106848123D01*
X167521466Y-105578123D02*
X168247180Y-105578123D01*
X167884323Y-106848123D02*
X167884323Y-105578123D01*
X168549561Y-105578123D02*
X169335752Y-105578123D01*
X168912419Y-106061933D01*
X169093847Y-106061933D01*
X169214800Y-106122409D01*
X169275276Y-106182885D01*
X169335752Y-106303838D01*
X169335752Y-106606219D01*
X169275276Y-106727171D01*
X169214800Y-106787647D01*
X169093847Y-106848123D01*
X168730990Y-106848123D01*
X168610038Y-106787647D01*
X168549561Y-106727171D01*
D11*
%TO.C,U7*%
X157480095Y-108793580D02*
X157480095Y-109603104D01*
X157527714Y-109698342D01*
X157575333Y-109745961D01*
X157670571Y-109793580D01*
X157861047Y-109793580D01*
X157956285Y-109745961D01*
X158003904Y-109698342D01*
X158051523Y-109603104D01*
X158051523Y-108793580D01*
X158432476Y-108793580D02*
X159099142Y-108793580D01*
X158670571Y-109793580D01*
%TO.C,C1*%
X120948742Y-102427066D02*
X120996361Y-102474685D01*
X121043980Y-102617542D01*
X121043980Y-102712780D01*
X120996361Y-102855638D01*
X120901123Y-102950876D01*
X120805885Y-102998495D01*
X120615409Y-103046114D01*
X120472552Y-103046114D01*
X120282076Y-102998495D01*
X120186838Y-102950876D01*
X120091600Y-102855638D01*
X120043980Y-102712780D01*
X120043980Y-102617542D01*
X120091600Y-102474685D01*
X120139219Y-102427066D01*
X121043980Y-101474685D02*
X121043980Y-102046114D01*
X121043980Y-101760400D02*
X120043980Y-101760400D01*
X120186838Y-101855638D01*
X120282076Y-101950876D01*
X120329695Y-102046114D01*
D12*
%TO.C,Y1*%
X120680238Y-117952761D02*
X120680238Y-118557523D01*
X120256904Y-117287523D02*
X120680238Y-117952761D01*
X121103571Y-117287523D01*
X122192142Y-118557523D02*
X121466428Y-118557523D01*
X121829285Y-118557523D02*
X121829285Y-117287523D01*
X121708333Y-117468952D01*
X121587380Y-117589904D01*
X121466428Y-117650380D01*
%TO.C,J2*%
X212500323Y-95038333D02*
X213407466Y-95038333D01*
X213588895Y-95098809D01*
X213709847Y-95219761D01*
X213770323Y-95401190D01*
X213770323Y-95522142D01*
X212621276Y-94494047D02*
X212560800Y-94433571D01*
X212500323Y-94312619D01*
X212500323Y-94010238D01*
X212560800Y-93889285D01*
X212621276Y-93828809D01*
X212742228Y-93768333D01*
X212863180Y-93768333D01*
X213044609Y-93828809D01*
X213770323Y-94554523D01*
X213770323Y-93768333D01*
D11*
%TO.C,R9*%
X170624780Y-103798666D02*
X170148590Y-104132000D01*
X170624780Y-104370095D02*
X169624780Y-104370095D01*
X169624780Y-103989142D01*
X169672400Y-103893904D01*
X169720019Y-103846285D01*
X169815257Y-103798666D01*
X169958114Y-103798666D01*
X170053352Y-103846285D01*
X170100971Y-103893904D01*
X170148590Y-103989142D01*
X170148590Y-104370095D01*
X170624780Y-103322476D02*
X170624780Y-103132000D01*
X170577161Y-103036761D01*
X170529542Y-102989142D01*
X170386685Y-102893904D01*
X170196209Y-102846285D01*
X169815257Y-102846285D01*
X169720019Y-102893904D01*
X169672400Y-102941523D01*
X169624780Y-103036761D01*
X169624780Y-103227238D01*
X169672400Y-103322476D01*
X169720019Y-103370095D01*
X169815257Y-103417714D01*
X170053352Y-103417714D01*
X170148590Y-103370095D01*
X170196209Y-103322476D01*
X170243828Y-103227238D01*
X170243828Y-103036761D01*
X170196209Y-102941523D01*
X170148590Y-102893904D01*
X170053352Y-102846285D01*
D12*
%TO.C,AT1*%
X166553847Y-111819266D02*
X167158609Y-111819266D01*
X166432895Y-112182123D02*
X166856228Y-110912123D01*
X167279561Y-112182123D01*
X167521466Y-110912123D02*
X168247180Y-110912123D01*
X167884323Y-112182123D02*
X167884323Y-110912123D01*
X169335752Y-112182123D02*
X168610038Y-112182123D01*
X168972895Y-112182123D02*
X168972895Y-110912123D01*
X168851942Y-111093552D01*
X168730990Y-111214504D01*
X168610038Y-111274980D01*
D11*
%TO.C,C2*%
X124967942Y-102935066D02*
X125015561Y-102982685D01*
X125063180Y-103125542D01*
X125063180Y-103220780D01*
X125015561Y-103363638D01*
X124920323Y-103458876D01*
X124825085Y-103506495D01*
X124634609Y-103554114D01*
X124491752Y-103554114D01*
X124301276Y-103506495D01*
X124206038Y-103458876D01*
X124110800Y-103363638D01*
X124063180Y-103220780D01*
X124063180Y-103125542D01*
X124110800Y-102982685D01*
X124158419Y-102935066D01*
X124158419Y-102554114D02*
X124110800Y-102506495D01*
X124063180Y-102411257D01*
X124063180Y-102173161D01*
X124110800Y-102077923D01*
X124158419Y-102030304D01*
X124253657Y-101982685D01*
X124348895Y-101982685D01*
X124491752Y-102030304D01*
X125063180Y-102601733D01*
X125063180Y-101982685D01*
%TO.C,R3*%
X114649180Y-104611466D02*
X114172990Y-104944800D01*
X114649180Y-105182895D02*
X113649180Y-105182895D01*
X113649180Y-104801942D01*
X113696800Y-104706704D01*
X113744419Y-104659085D01*
X113839657Y-104611466D01*
X113982514Y-104611466D01*
X114077752Y-104659085D01*
X114125371Y-104706704D01*
X114172990Y-104801942D01*
X114172990Y-105182895D01*
X113649180Y-104278133D02*
X113649180Y-103659085D01*
X114030133Y-103992419D01*
X114030133Y-103849561D01*
X114077752Y-103754323D01*
X114125371Y-103706704D01*
X114220609Y-103659085D01*
X114458704Y-103659085D01*
X114553942Y-103706704D01*
X114601561Y-103754323D01*
X114649180Y-103849561D01*
X114649180Y-104135276D01*
X114601561Y-104230514D01*
X114553942Y-104278133D01*
%TO.C,C37*%
X179392342Y-110442342D02*
X179344723Y-110489961D01*
X179201866Y-110537580D01*
X179106628Y-110537580D01*
X178963771Y-110489961D01*
X178868533Y-110394723D01*
X178820914Y-110299485D01*
X178773295Y-110109009D01*
X178773295Y-109966152D01*
X178820914Y-109775676D01*
X178868533Y-109680438D01*
X178963771Y-109585200D01*
X179106628Y-109537580D01*
X179201866Y-109537580D01*
X179344723Y-109585200D01*
X179392342Y-109632819D01*
X179725676Y-109537580D02*
X180344723Y-109537580D01*
X180011390Y-109918533D01*
X180154247Y-109918533D01*
X180249485Y-109966152D01*
X180297104Y-110013771D01*
X180344723Y-110109009D01*
X180344723Y-110347104D01*
X180297104Y-110442342D01*
X180249485Y-110489961D01*
X180154247Y-110537580D01*
X179868533Y-110537580D01*
X179773295Y-110489961D01*
X179725676Y-110442342D01*
X180678057Y-109537580D02*
X181344723Y-109537580D01*
X180916152Y-110537580D01*
%TO.C,C43*%
X108284542Y-120847142D02*
X108236923Y-120894761D01*
X108094066Y-120942380D01*
X107998828Y-120942380D01*
X107855971Y-120894761D01*
X107760733Y-120799523D01*
X107713114Y-120704285D01*
X107665495Y-120513809D01*
X107665495Y-120370952D01*
X107713114Y-120180476D01*
X107760733Y-120085238D01*
X107855971Y-119990000D01*
X107998828Y-119942380D01*
X108094066Y-119942380D01*
X108236923Y-119990000D01*
X108284542Y-120037619D01*
X109141685Y-120275714D02*
X109141685Y-120942380D01*
X108903590Y-119894761D02*
X108665495Y-120609047D01*
X109284542Y-120609047D01*
X109570257Y-119942380D02*
X110189304Y-119942380D01*
X109855971Y-120323333D01*
X109998828Y-120323333D01*
X110094066Y-120370952D01*
X110141685Y-120418571D01*
X110189304Y-120513809D01*
X110189304Y-120751904D01*
X110141685Y-120847142D01*
X110094066Y-120894761D01*
X109998828Y-120942380D01*
X109713114Y-120942380D01*
X109617876Y-120894761D01*
X109570257Y-120847142D01*
%TO.C,R10*%
X170624780Y-114892057D02*
X170148590Y-115225390D01*
X170624780Y-115463485D02*
X169624780Y-115463485D01*
X169624780Y-115082533D01*
X169672400Y-114987295D01*
X169720019Y-114939676D01*
X169815257Y-114892057D01*
X169958114Y-114892057D01*
X170053352Y-114939676D01*
X170100971Y-114987295D01*
X170148590Y-115082533D01*
X170148590Y-115463485D01*
X170624780Y-113939676D02*
X170624780Y-114511104D01*
X170624780Y-114225390D02*
X169624780Y-114225390D01*
X169767638Y-114320628D01*
X169862876Y-114415866D01*
X169910495Y-114511104D01*
X169624780Y-113320628D02*
X169624780Y-113225390D01*
X169672400Y-113130152D01*
X169720019Y-113082533D01*
X169815257Y-113034914D01*
X170005733Y-112987295D01*
X170243828Y-112987295D01*
X170434304Y-113034914D01*
X170529542Y-113082533D01*
X170577161Y-113130152D01*
X170624780Y-113225390D01*
X170624780Y-113320628D01*
X170577161Y-113415866D01*
X170529542Y-113463485D01*
X170434304Y-113511104D01*
X170243828Y-113558723D01*
X170005733Y-113558723D01*
X169815257Y-113511104D01*
X169720019Y-113463485D01*
X169672400Y-113415866D01*
X169624780Y-113320628D01*
%TO.C,C44*%
X95665542Y-140444457D02*
X95713161Y-140492076D01*
X95760780Y-140634933D01*
X95760780Y-140730171D01*
X95713161Y-140873028D01*
X95617923Y-140968266D01*
X95522685Y-141015885D01*
X95332209Y-141063504D01*
X95189352Y-141063504D01*
X94998876Y-141015885D01*
X94903638Y-140968266D01*
X94808400Y-140873028D01*
X94760780Y-140730171D01*
X94760780Y-140634933D01*
X94808400Y-140492076D01*
X94856019Y-140444457D01*
X95094114Y-139587314D02*
X95760780Y-139587314D01*
X94713161Y-139825409D02*
X95427447Y-140063504D01*
X95427447Y-139444457D01*
X95094114Y-138634933D02*
X95760780Y-138634933D01*
X94713161Y-138873028D02*
X95427447Y-139111123D01*
X95427447Y-138492076D01*
%TO.C,C10*%
X115231942Y-105105142D02*
X115184323Y-105152761D01*
X115041466Y-105200380D01*
X114946228Y-105200380D01*
X114803371Y-105152761D01*
X114708133Y-105057523D01*
X114660514Y-104962285D01*
X114612895Y-104771809D01*
X114612895Y-104628952D01*
X114660514Y-104438476D01*
X114708133Y-104343238D01*
X114803371Y-104248000D01*
X114946228Y-104200380D01*
X115041466Y-104200380D01*
X115184323Y-104248000D01*
X115231942Y-104295619D01*
X116184323Y-105200380D02*
X115612895Y-105200380D01*
X115898609Y-105200380D02*
X115898609Y-104200380D01*
X115803371Y-104343238D01*
X115708133Y-104438476D01*
X115612895Y-104486095D01*
X116803371Y-104200380D02*
X116898609Y-104200380D01*
X116993847Y-104248000D01*
X117041466Y-104295619D01*
X117089085Y-104390857D01*
X117136704Y-104581333D01*
X117136704Y-104819428D01*
X117089085Y-105009904D01*
X117041466Y-105105142D01*
X116993847Y-105152761D01*
X116898609Y-105200380D01*
X116803371Y-105200380D01*
X116708133Y-105152761D01*
X116660514Y-105105142D01*
X116612895Y-105009904D01*
X116565276Y-104819428D01*
X116565276Y-104581333D01*
X116612895Y-104390857D01*
X116660514Y-104295619D01*
X116708133Y-104248000D01*
X116803371Y-104200380D01*
%TO.C,U2*%
X138379295Y-106417580D02*
X138379295Y-107227104D01*
X138426914Y-107322342D01*
X138474533Y-107369961D01*
X138569771Y-107417580D01*
X138760247Y-107417580D01*
X138855485Y-107369961D01*
X138903104Y-107322342D01*
X138950723Y-107227104D01*
X138950723Y-106417580D01*
X139379295Y-106512819D02*
X139426914Y-106465200D01*
X139522152Y-106417580D01*
X139760247Y-106417580D01*
X139855485Y-106465200D01*
X139903104Y-106512819D01*
X139950723Y-106608057D01*
X139950723Y-106703295D01*
X139903104Y-106846152D01*
X139331676Y-107417580D01*
X139950723Y-107417580D01*
%TO.C,R11*%
X175349180Y-109583457D02*
X174872990Y-109916790D01*
X175349180Y-110154885D02*
X174349180Y-110154885D01*
X174349180Y-109773933D01*
X174396800Y-109678695D01*
X174444419Y-109631076D01*
X174539657Y-109583457D01*
X174682514Y-109583457D01*
X174777752Y-109631076D01*
X174825371Y-109678695D01*
X174872990Y-109773933D01*
X174872990Y-110154885D01*
X175349180Y-108631076D02*
X175349180Y-109202504D01*
X175349180Y-108916790D02*
X174349180Y-108916790D01*
X174492038Y-109012028D01*
X174587276Y-109107266D01*
X174634895Y-109202504D01*
X175349180Y-107678695D02*
X175349180Y-108250123D01*
X175349180Y-107964409D02*
X174349180Y-107964409D01*
X174492038Y-108059647D01*
X174587276Y-108154885D01*
X174634895Y-108250123D01*
%TO.C,C38*%
X188231542Y-110442342D02*
X188183923Y-110489961D01*
X188041066Y-110537580D01*
X187945828Y-110537580D01*
X187802971Y-110489961D01*
X187707733Y-110394723D01*
X187660114Y-110299485D01*
X187612495Y-110109009D01*
X187612495Y-109966152D01*
X187660114Y-109775676D01*
X187707733Y-109680438D01*
X187802971Y-109585200D01*
X187945828Y-109537580D01*
X188041066Y-109537580D01*
X188183923Y-109585200D01*
X188231542Y-109632819D01*
X188564876Y-109537580D02*
X189183923Y-109537580D01*
X188850590Y-109918533D01*
X188993447Y-109918533D01*
X189088685Y-109966152D01*
X189136304Y-110013771D01*
X189183923Y-110109009D01*
X189183923Y-110347104D01*
X189136304Y-110442342D01*
X189088685Y-110489961D01*
X188993447Y-110537580D01*
X188707733Y-110537580D01*
X188612495Y-110489961D01*
X188564876Y-110442342D01*
X189755352Y-109966152D02*
X189660114Y-109918533D01*
X189612495Y-109870914D01*
X189564876Y-109775676D01*
X189564876Y-109728057D01*
X189612495Y-109632819D01*
X189660114Y-109585200D01*
X189755352Y-109537580D01*
X189945828Y-109537580D01*
X190041066Y-109585200D01*
X190088685Y-109632819D01*
X190136304Y-109728057D01*
X190136304Y-109775676D01*
X190088685Y-109870914D01*
X190041066Y-109918533D01*
X189945828Y-109966152D01*
X189755352Y-109966152D01*
X189660114Y-110013771D01*
X189612495Y-110061390D01*
X189564876Y-110156628D01*
X189564876Y-110347104D01*
X189612495Y-110442342D01*
X189660114Y-110489961D01*
X189755352Y-110537580D01*
X189945828Y-110537580D01*
X190041066Y-110489961D01*
X190088685Y-110442342D01*
X190136304Y-110347104D01*
X190136304Y-110156628D01*
X190088685Y-110061390D01*
X190041066Y-110013771D01*
X189945828Y-109966152D01*
D12*
%TO.C,IC1*%
X124907523Y-108681761D02*
X123637523Y-108681761D01*
X124786571Y-107351285D02*
X124847047Y-107411761D01*
X124907523Y-107593190D01*
X124907523Y-107714142D01*
X124847047Y-107895571D01*
X124726095Y-108016523D01*
X124605142Y-108077000D01*
X124363238Y-108137476D01*
X124181809Y-108137476D01*
X123939904Y-108077000D01*
X123818952Y-108016523D01*
X123698000Y-107895571D01*
X123637523Y-107714142D01*
X123637523Y-107593190D01*
X123698000Y-107411761D01*
X123758476Y-107351285D01*
X124907523Y-106141761D02*
X124907523Y-106867476D01*
X124907523Y-106504619D02*
X123637523Y-106504619D01*
X123818952Y-106625571D01*
X123939904Y-106746523D01*
X124000380Y-106867476D01*
D11*
%TO.C,R1*%
X119518133Y-107540380D02*
X119184800Y-107064190D01*
X118946704Y-107540380D02*
X118946704Y-106540380D01*
X119327657Y-106540380D01*
X119422895Y-106588000D01*
X119470514Y-106635619D01*
X119518133Y-106730857D01*
X119518133Y-106873714D01*
X119470514Y-106968952D01*
X119422895Y-107016571D01*
X119327657Y-107064190D01*
X118946704Y-107064190D01*
X120470514Y-107540380D02*
X119899085Y-107540380D01*
X120184800Y-107540380D02*
X120184800Y-106540380D01*
X120089561Y-106683238D01*
X119994323Y-106778476D01*
X119899085Y-106826095D01*
%TO.C,R5*%
X136182380Y-108269066D02*
X135706190Y-108602400D01*
X136182380Y-108840495D02*
X135182380Y-108840495D01*
X135182380Y-108459542D01*
X135230000Y-108364304D01*
X135277619Y-108316685D01*
X135372857Y-108269066D01*
X135515714Y-108269066D01*
X135610952Y-108316685D01*
X135658571Y-108364304D01*
X135706190Y-108459542D01*
X135706190Y-108840495D01*
X135182380Y-107364304D02*
X135182380Y-107840495D01*
X135658571Y-107888114D01*
X135610952Y-107840495D01*
X135563333Y-107745257D01*
X135563333Y-107507161D01*
X135610952Y-107411923D01*
X135658571Y-107364304D01*
X135753809Y-107316685D01*
X135991904Y-107316685D01*
X136087142Y-107364304D01*
X136134761Y-107411923D01*
X136182380Y-107507161D01*
X136182380Y-107745257D01*
X136134761Y-107840495D01*
X136087142Y-107888114D01*
%TO.C,C16*%
X128846342Y-109264742D02*
X128798723Y-109312361D01*
X128655866Y-109359980D01*
X128560628Y-109359980D01*
X128417771Y-109312361D01*
X128322533Y-109217123D01*
X128274914Y-109121885D01*
X128227295Y-108931409D01*
X128227295Y-108788552D01*
X128274914Y-108598076D01*
X128322533Y-108502838D01*
X128417771Y-108407600D01*
X128560628Y-108359980D01*
X128655866Y-108359980D01*
X128798723Y-108407600D01*
X128846342Y-108455219D01*
X129798723Y-109359980D02*
X129227295Y-109359980D01*
X129513009Y-109359980D02*
X129513009Y-108359980D01*
X129417771Y-108502838D01*
X129322533Y-108598076D01*
X129227295Y-108645695D01*
X130655866Y-108359980D02*
X130465390Y-108359980D01*
X130370152Y-108407600D01*
X130322533Y-108455219D01*
X130227295Y-108598076D01*
X130179676Y-108788552D01*
X130179676Y-109169504D01*
X130227295Y-109264742D01*
X130274914Y-109312361D01*
X130370152Y-109359980D01*
X130560628Y-109359980D01*
X130655866Y-109312361D01*
X130703485Y-109264742D01*
X130751104Y-109169504D01*
X130751104Y-108931409D01*
X130703485Y-108836171D01*
X130655866Y-108788552D01*
X130560628Y-108740933D01*
X130370152Y-108740933D01*
X130274914Y-108788552D01*
X130227295Y-108836171D01*
X130179676Y-108931409D01*
%TO.C,C26*%
X132903142Y-109604142D02*
X132855523Y-109651761D01*
X132712666Y-109699380D01*
X132617428Y-109699380D01*
X132474571Y-109651761D01*
X132379333Y-109556523D01*
X132331714Y-109461285D01*
X132284095Y-109270809D01*
X132284095Y-109127952D01*
X132331714Y-108937476D01*
X132379333Y-108842238D01*
X132474571Y-108747000D01*
X132617428Y-108699380D01*
X132712666Y-108699380D01*
X132855523Y-108747000D01*
X132903142Y-108794619D01*
X133284095Y-108794619D02*
X133331714Y-108747000D01*
X133426952Y-108699380D01*
X133665047Y-108699380D01*
X133760285Y-108747000D01*
X133807904Y-108794619D01*
X133855523Y-108889857D01*
X133855523Y-108985095D01*
X133807904Y-109127952D01*
X133236476Y-109699380D01*
X133855523Y-109699380D01*
X134712666Y-108699380D02*
X134522190Y-108699380D01*
X134426952Y-108747000D01*
X134379333Y-108794619D01*
X134284095Y-108937476D01*
X134236476Y-109127952D01*
X134236476Y-109508904D01*
X134284095Y-109604142D01*
X134331714Y-109651761D01*
X134426952Y-109699380D01*
X134617428Y-109699380D01*
X134712666Y-109651761D01*
X134760285Y-109604142D01*
X134807904Y-109508904D01*
X134807904Y-109270809D01*
X134760285Y-109175571D01*
X134712666Y-109127952D01*
X134617428Y-109080333D01*
X134426952Y-109080333D01*
X134331714Y-109127952D01*
X134284095Y-109175571D01*
X134236476Y-109270809D01*
%TO.C,C18*%
X129035142Y-112656857D02*
X129082761Y-112704476D01*
X129130380Y-112847333D01*
X129130380Y-112942571D01*
X129082761Y-113085428D01*
X128987523Y-113180666D01*
X128892285Y-113228285D01*
X128701809Y-113275904D01*
X128558952Y-113275904D01*
X128368476Y-113228285D01*
X128273238Y-113180666D01*
X128178000Y-113085428D01*
X128130380Y-112942571D01*
X128130380Y-112847333D01*
X128178000Y-112704476D01*
X128225619Y-112656857D01*
X129130380Y-111704476D02*
X129130380Y-112275904D01*
X129130380Y-111990190D02*
X128130380Y-111990190D01*
X128273238Y-112085428D01*
X128368476Y-112180666D01*
X128416095Y-112275904D01*
X128558952Y-111133047D02*
X128511333Y-111228285D01*
X128463714Y-111275904D01*
X128368476Y-111323523D01*
X128320857Y-111323523D01*
X128225619Y-111275904D01*
X128178000Y-111228285D01*
X128130380Y-111133047D01*
X128130380Y-110942571D01*
X128178000Y-110847333D01*
X128225619Y-110799714D01*
X128320857Y-110752095D01*
X128368476Y-110752095D01*
X128463714Y-110799714D01*
X128511333Y-110847333D01*
X128558952Y-110942571D01*
X128558952Y-111133047D01*
X128606571Y-111228285D01*
X128654190Y-111275904D01*
X128749428Y-111323523D01*
X128939904Y-111323523D01*
X129035142Y-111275904D01*
X129082761Y-111228285D01*
X129130380Y-111133047D01*
X129130380Y-110942571D01*
X129082761Y-110847333D01*
X129035142Y-110799714D01*
X128939904Y-110752095D01*
X128749428Y-110752095D01*
X128654190Y-110799714D01*
X128606571Y-110847333D01*
X128558952Y-110942571D01*
%TO.C,C23*%
X128075942Y-113215657D02*
X128123561Y-113263276D01*
X128171180Y-113406133D01*
X128171180Y-113501371D01*
X128123561Y-113644228D01*
X128028323Y-113739466D01*
X127933085Y-113787085D01*
X127742609Y-113834704D01*
X127599752Y-113834704D01*
X127409276Y-113787085D01*
X127314038Y-113739466D01*
X127218800Y-113644228D01*
X127171180Y-113501371D01*
X127171180Y-113406133D01*
X127218800Y-113263276D01*
X127266419Y-113215657D01*
X127266419Y-112834704D02*
X127218800Y-112787085D01*
X127171180Y-112691847D01*
X127171180Y-112453752D01*
X127218800Y-112358514D01*
X127266419Y-112310895D01*
X127361657Y-112263276D01*
X127456895Y-112263276D01*
X127599752Y-112310895D01*
X128171180Y-112882323D01*
X128171180Y-112263276D01*
X127171180Y-111929942D02*
X127171180Y-111310895D01*
X127552133Y-111644228D01*
X127552133Y-111501371D01*
X127599752Y-111406133D01*
X127647371Y-111358514D01*
X127742609Y-111310895D01*
X127980704Y-111310895D01*
X128075942Y-111358514D01*
X128123561Y-111406133D01*
X128171180Y-111501371D01*
X128171180Y-111787085D01*
X128123561Y-111882323D01*
X128075942Y-111929942D01*
%TO.C,C46*%
X95665542Y-137447257D02*
X95713161Y-137494876D01*
X95760780Y-137637733D01*
X95760780Y-137732971D01*
X95713161Y-137875828D01*
X95617923Y-137971066D01*
X95522685Y-138018685D01*
X95332209Y-138066304D01*
X95189352Y-138066304D01*
X94998876Y-138018685D01*
X94903638Y-137971066D01*
X94808400Y-137875828D01*
X94760780Y-137732971D01*
X94760780Y-137637733D01*
X94808400Y-137494876D01*
X94856019Y-137447257D01*
X95094114Y-136590114D02*
X95760780Y-136590114D01*
X94713161Y-136828209D02*
X95427447Y-137066304D01*
X95427447Y-136447257D01*
X94760780Y-135637733D02*
X94760780Y-135828209D01*
X94808400Y-135923447D01*
X94856019Y-135971066D01*
X94998876Y-136066304D01*
X95189352Y-136113923D01*
X95570304Y-136113923D01*
X95665542Y-136066304D01*
X95713161Y-136018685D01*
X95760780Y-135923447D01*
X95760780Y-135732971D01*
X95713161Y-135637733D01*
X95665542Y-135590114D01*
X95570304Y-135542495D01*
X95332209Y-135542495D01*
X95236971Y-135590114D01*
X95189352Y-135637733D01*
X95141733Y-135732971D01*
X95141733Y-135923447D01*
X95189352Y-136018685D01*
X95236971Y-136066304D01*
X95332209Y-136113923D01*
%TO.C,R4*%
X122838333Y-115414380D02*
X122505000Y-114938190D01*
X122266904Y-115414380D02*
X122266904Y-114414380D01*
X122647857Y-114414380D01*
X122743095Y-114462000D01*
X122790714Y-114509619D01*
X122838333Y-114604857D01*
X122838333Y-114747714D01*
X122790714Y-114842952D01*
X122743095Y-114890571D01*
X122647857Y-114938190D01*
X122266904Y-114938190D01*
X123695476Y-114747714D02*
X123695476Y-115414380D01*
X123457380Y-114366761D02*
X123219285Y-115081047D01*
X123838333Y-115081047D01*
%TO.C,C9*%
X128763733Y-105968742D02*
X128716114Y-106016361D01*
X128573257Y-106063980D01*
X128478019Y-106063980D01*
X128335161Y-106016361D01*
X128239923Y-105921123D01*
X128192304Y-105825885D01*
X128144685Y-105635409D01*
X128144685Y-105492552D01*
X128192304Y-105302076D01*
X128239923Y-105206838D01*
X128335161Y-105111600D01*
X128478019Y-105063980D01*
X128573257Y-105063980D01*
X128716114Y-105111600D01*
X128763733Y-105159219D01*
X129239923Y-106063980D02*
X129430400Y-106063980D01*
X129525638Y-106016361D01*
X129573257Y-105968742D01*
X129668495Y-105825885D01*
X129716114Y-105635409D01*
X129716114Y-105254457D01*
X129668495Y-105159219D01*
X129620876Y-105111600D01*
X129525638Y-105063980D01*
X129335161Y-105063980D01*
X129239923Y-105111600D01*
X129192304Y-105159219D01*
X129144685Y-105254457D01*
X129144685Y-105492552D01*
X129192304Y-105587790D01*
X129239923Y-105635409D01*
X129335161Y-105683028D01*
X129525638Y-105683028D01*
X129620876Y-105635409D01*
X129668495Y-105587790D01*
X129716114Y-105492552D01*
%TO.C,C7*%
X119989542Y-102985866D02*
X120037161Y-103033485D01*
X120084780Y-103176342D01*
X120084780Y-103271580D01*
X120037161Y-103414438D01*
X119941923Y-103509676D01*
X119846685Y-103557295D01*
X119656209Y-103604914D01*
X119513352Y-103604914D01*
X119322876Y-103557295D01*
X119227638Y-103509676D01*
X119132400Y-103414438D01*
X119084780Y-103271580D01*
X119084780Y-103176342D01*
X119132400Y-103033485D01*
X119180019Y-102985866D01*
X119084780Y-102652533D02*
X119084780Y-101985866D01*
X120084780Y-102414438D01*
D12*
%TO.C,AT4*%
X166553847Y-101202066D02*
X167158609Y-101202066D01*
X166432895Y-101564923D02*
X166856228Y-100294923D01*
X167279561Y-101564923D01*
X167521466Y-100294923D02*
X168247180Y-100294923D01*
X167884323Y-101564923D02*
X167884323Y-100294923D01*
X169214800Y-100718257D02*
X169214800Y-101564923D01*
X168912419Y-100234447D02*
X168610038Y-101141590D01*
X169396228Y-101141590D01*
D11*
%TO.C,C15*%
X128795542Y-107949942D02*
X128747923Y-107997561D01*
X128605066Y-108045180D01*
X128509828Y-108045180D01*
X128366971Y-107997561D01*
X128271733Y-107902323D01*
X128224114Y-107807085D01*
X128176495Y-107616609D01*
X128176495Y-107473752D01*
X128224114Y-107283276D01*
X128271733Y-107188038D01*
X128366971Y-107092800D01*
X128509828Y-107045180D01*
X128605066Y-107045180D01*
X128747923Y-107092800D01*
X128795542Y-107140419D01*
X129747923Y-108045180D02*
X129176495Y-108045180D01*
X129462209Y-108045180D02*
X129462209Y-107045180D01*
X129366971Y-107188038D01*
X129271733Y-107283276D01*
X129176495Y-107330895D01*
X130652685Y-107045180D02*
X130176495Y-107045180D01*
X130128876Y-107521371D01*
X130176495Y-107473752D01*
X130271733Y-107426133D01*
X130509828Y-107426133D01*
X130605066Y-107473752D01*
X130652685Y-107521371D01*
X130700304Y-107616609D01*
X130700304Y-107854704D01*
X130652685Y-107949942D01*
X130605066Y-107997561D01*
X130509828Y-108045180D01*
X130271733Y-108045180D01*
X130176495Y-107997561D01*
X130128876Y-107949942D01*
%TO.C,C35*%
X179933542Y-107780057D02*
X179981161Y-107827676D01*
X180028780Y-107970533D01*
X180028780Y-108065771D01*
X179981161Y-108208628D01*
X179885923Y-108303866D01*
X179790685Y-108351485D01*
X179600209Y-108399104D01*
X179457352Y-108399104D01*
X179266876Y-108351485D01*
X179171638Y-108303866D01*
X179076400Y-108208628D01*
X179028780Y-108065771D01*
X179028780Y-107970533D01*
X179076400Y-107827676D01*
X179124019Y-107780057D01*
X179028780Y-107446723D02*
X179028780Y-106827676D01*
X179409733Y-107161009D01*
X179409733Y-107018152D01*
X179457352Y-106922914D01*
X179504971Y-106875295D01*
X179600209Y-106827676D01*
X179838304Y-106827676D01*
X179933542Y-106875295D01*
X179981161Y-106922914D01*
X180028780Y-107018152D01*
X180028780Y-107303866D01*
X179981161Y-107399104D01*
X179933542Y-107446723D01*
X179028780Y-105922914D02*
X179028780Y-106399104D01*
X179504971Y-106446723D01*
X179457352Y-106399104D01*
X179409733Y-106303866D01*
X179409733Y-106065771D01*
X179457352Y-105970533D01*
X179504971Y-105922914D01*
X179600209Y-105875295D01*
X179838304Y-105875295D01*
X179933542Y-105922914D01*
X179981161Y-105970533D01*
X180028780Y-106065771D01*
X180028780Y-106303866D01*
X179981161Y-106399104D01*
X179933542Y-106446723D01*
%TO.C,C14*%
X128795542Y-106984742D02*
X128747923Y-107032361D01*
X128605066Y-107079980D01*
X128509828Y-107079980D01*
X128366971Y-107032361D01*
X128271733Y-106937123D01*
X128224114Y-106841885D01*
X128176495Y-106651409D01*
X128176495Y-106508552D01*
X128224114Y-106318076D01*
X128271733Y-106222838D01*
X128366971Y-106127600D01*
X128509828Y-106079980D01*
X128605066Y-106079980D01*
X128747923Y-106127600D01*
X128795542Y-106175219D01*
X129747923Y-107079980D02*
X129176495Y-107079980D01*
X129462209Y-107079980D02*
X129462209Y-106079980D01*
X129366971Y-106222838D01*
X129271733Y-106318076D01*
X129176495Y-106365695D01*
X130605066Y-106413314D02*
X130605066Y-107079980D01*
X130366971Y-106032361D02*
X130128876Y-106746647D01*
X130747923Y-106746647D01*
D12*
%TO.C,J1*%
X212512123Y-109338533D02*
X213419266Y-109338533D01*
X213600695Y-109399009D01*
X213721647Y-109519961D01*
X213782123Y-109701390D01*
X213782123Y-109822342D01*
X213782123Y-108068533D02*
X213782123Y-108794247D01*
X213782123Y-108431390D02*
X212512123Y-108431390D01*
X212693552Y-108552342D01*
X212814504Y-108673295D01*
X212874980Y-108794247D01*
D11*
%TO.C,C39*%
X190822342Y-111296742D02*
X190774723Y-111344361D01*
X190631866Y-111391980D01*
X190536628Y-111391980D01*
X190393771Y-111344361D01*
X190298533Y-111249123D01*
X190250914Y-111153885D01*
X190203295Y-110963409D01*
X190203295Y-110820552D01*
X190250914Y-110630076D01*
X190298533Y-110534838D01*
X190393771Y-110439600D01*
X190536628Y-110391980D01*
X190631866Y-110391980D01*
X190774723Y-110439600D01*
X190822342Y-110487219D01*
X191155676Y-110391980D02*
X191774723Y-110391980D01*
X191441390Y-110772933D01*
X191584247Y-110772933D01*
X191679485Y-110820552D01*
X191727104Y-110868171D01*
X191774723Y-110963409D01*
X191774723Y-111201504D01*
X191727104Y-111296742D01*
X191679485Y-111344361D01*
X191584247Y-111391980D01*
X191298533Y-111391980D01*
X191203295Y-111344361D01*
X191155676Y-111296742D01*
X192250914Y-111391980D02*
X192441390Y-111391980D01*
X192536628Y-111344361D01*
X192584247Y-111296742D01*
X192679485Y-111153885D01*
X192727104Y-110963409D01*
X192727104Y-110582457D01*
X192679485Y-110487219D01*
X192631866Y-110439600D01*
X192536628Y-110391980D01*
X192346152Y-110391980D01*
X192250914Y-110439600D01*
X192203295Y-110487219D01*
X192155676Y-110582457D01*
X192155676Y-110820552D01*
X192203295Y-110915790D01*
X192250914Y-110963409D01*
X192346152Y-111011028D01*
X192536628Y-111011028D01*
X192631866Y-110963409D01*
X192679485Y-110915790D01*
X192727104Y-110820552D01*
%TO.C,C20*%
X122685142Y-112707657D02*
X122732761Y-112755276D01*
X122780380Y-112898133D01*
X122780380Y-112993371D01*
X122732761Y-113136228D01*
X122637523Y-113231466D01*
X122542285Y-113279085D01*
X122351809Y-113326704D01*
X122208952Y-113326704D01*
X122018476Y-113279085D01*
X121923238Y-113231466D01*
X121828000Y-113136228D01*
X121780380Y-112993371D01*
X121780380Y-112898133D01*
X121828000Y-112755276D01*
X121875619Y-112707657D01*
X121875619Y-112326704D02*
X121828000Y-112279085D01*
X121780380Y-112183847D01*
X121780380Y-111945752D01*
X121828000Y-111850514D01*
X121875619Y-111802895D01*
X121970857Y-111755276D01*
X122066095Y-111755276D01*
X122208952Y-111802895D01*
X122780380Y-112374323D01*
X122780380Y-111755276D01*
X121780380Y-111136228D02*
X121780380Y-111040990D01*
X121828000Y-110945752D01*
X121875619Y-110898133D01*
X121970857Y-110850514D01*
X122161333Y-110802895D01*
X122399428Y-110802895D01*
X122589904Y-110850514D01*
X122685142Y-110898133D01*
X122732761Y-110945752D01*
X122780380Y-111040990D01*
X122780380Y-111136228D01*
X122732761Y-111231466D01*
X122685142Y-111279085D01*
X122589904Y-111326704D01*
X122399428Y-111374323D01*
X122161333Y-111374323D01*
X121970857Y-111326704D01*
X121875619Y-111279085D01*
X121828000Y-111231466D01*
X121780380Y-111136228D01*
D12*
%TO.C,IC2*%
X146559238Y-111115323D02*
X146559238Y-109845323D01*
X147889714Y-110994371D02*
X147829238Y-111054847D01*
X147647809Y-111115323D01*
X147526857Y-111115323D01*
X147345428Y-111054847D01*
X147224476Y-110933895D01*
X147164000Y-110812942D01*
X147103523Y-110571038D01*
X147103523Y-110389609D01*
X147164000Y-110147704D01*
X147224476Y-110026752D01*
X147345428Y-109905800D01*
X147526857Y-109845323D01*
X147647809Y-109845323D01*
X147829238Y-109905800D01*
X147889714Y-109966276D01*
X148373523Y-109966276D02*
X148434000Y-109905800D01*
X148554952Y-109845323D01*
X148857333Y-109845323D01*
X148978285Y-109905800D01*
X149038761Y-109966276D01*
X149099238Y-110087228D01*
X149099238Y-110208180D01*
X149038761Y-110389609D01*
X148313047Y-111115323D01*
X149099238Y-111115323D01*
D11*
%TO.C,C36*%
X178454342Y-106764057D02*
X178501961Y-106811676D01*
X178549580Y-106954533D01*
X178549580Y-107049771D01*
X178501961Y-107192628D01*
X178406723Y-107287866D01*
X178311485Y-107335485D01*
X178121009Y-107383104D01*
X177978152Y-107383104D01*
X177787676Y-107335485D01*
X177692438Y-107287866D01*
X177597200Y-107192628D01*
X177549580Y-107049771D01*
X177549580Y-106954533D01*
X177597200Y-106811676D01*
X177644819Y-106764057D01*
X177549580Y-106430723D02*
X177549580Y-105811676D01*
X177930533Y-106145009D01*
X177930533Y-106002152D01*
X177978152Y-105906914D01*
X178025771Y-105859295D01*
X178121009Y-105811676D01*
X178359104Y-105811676D01*
X178454342Y-105859295D01*
X178501961Y-105906914D01*
X178549580Y-106002152D01*
X178549580Y-106287866D01*
X178501961Y-106383104D01*
X178454342Y-106430723D01*
X177549580Y-104954533D02*
X177549580Y-105145009D01*
X177597200Y-105240247D01*
X177644819Y-105287866D01*
X177787676Y-105383104D01*
X177978152Y-105430723D01*
X178359104Y-105430723D01*
X178454342Y-105383104D01*
X178501961Y-105335485D01*
X178549580Y-105240247D01*
X178549580Y-105049771D01*
X178501961Y-104954533D01*
X178454342Y-104906914D01*
X178359104Y-104859295D01*
X178121009Y-104859295D01*
X178025771Y-104906914D01*
X177978152Y-104954533D01*
X177930533Y-105049771D01*
X177930533Y-105240247D01*
X177978152Y-105335485D01*
X178025771Y-105383104D01*
X178121009Y-105430723D01*
D12*
%TO.C,AT5*%
X182505047Y-108364866D02*
X183109809Y-108364866D01*
X182384095Y-108727723D02*
X182807428Y-107457723D01*
X183230761Y-108727723D01*
X183472666Y-107457723D02*
X184198380Y-107457723D01*
X183835523Y-108727723D02*
X183835523Y-107457723D01*
X185226476Y-107457723D02*
X184621714Y-107457723D01*
X184561238Y-108062485D01*
X184621714Y-108002009D01*
X184742666Y-107941533D01*
X185045047Y-107941533D01*
X185166000Y-108002009D01*
X185226476Y-108062485D01*
X185286952Y-108183438D01*
X185286952Y-108485819D01*
X185226476Y-108606771D01*
X185166000Y-108667247D01*
X185045047Y-108727723D01*
X184742666Y-108727723D01*
X184621714Y-108667247D01*
X184561238Y-108606771D01*
D11*
%TO.C,U8*%
X172516895Y-105034380D02*
X172516895Y-105843904D01*
X172564514Y-105939142D01*
X172612133Y-105986761D01*
X172707371Y-106034380D01*
X172897847Y-106034380D01*
X172993085Y-105986761D01*
X173040704Y-105939142D01*
X173088323Y-105843904D01*
X173088323Y-105034380D01*
X173707371Y-105462952D02*
X173612133Y-105415333D01*
X173564514Y-105367714D01*
X173516895Y-105272476D01*
X173516895Y-105224857D01*
X173564514Y-105129619D01*
X173612133Y-105082000D01*
X173707371Y-105034380D01*
X173897847Y-105034380D01*
X173993085Y-105082000D01*
X174040704Y-105129619D01*
X174088323Y-105224857D01*
X174088323Y-105272476D01*
X174040704Y-105367714D01*
X173993085Y-105415333D01*
X173897847Y-105462952D01*
X173707371Y-105462952D01*
X173612133Y-105510571D01*
X173564514Y-105558190D01*
X173516895Y-105653428D01*
X173516895Y-105843904D01*
X173564514Y-105939142D01*
X173612133Y-105986761D01*
X173707371Y-106034380D01*
X173897847Y-106034380D01*
X173993085Y-105986761D01*
X174040704Y-105939142D01*
X174088323Y-105843904D01*
X174088323Y-105653428D01*
X174040704Y-105558190D01*
X173993085Y-105510571D01*
X173897847Y-105462952D01*
D12*
%TO.C,IC5*%
X159542238Y-111064523D02*
X159542238Y-109794523D01*
X160872714Y-110943571D02*
X160812238Y-111004047D01*
X160630809Y-111064523D01*
X160509857Y-111064523D01*
X160328428Y-111004047D01*
X160207476Y-110883095D01*
X160147000Y-110762142D01*
X160086523Y-110520238D01*
X160086523Y-110338809D01*
X160147000Y-110096904D01*
X160207476Y-109975952D01*
X160328428Y-109855000D01*
X160509857Y-109794523D01*
X160630809Y-109794523D01*
X160812238Y-109855000D01*
X160872714Y-109915476D01*
X162021761Y-109794523D02*
X161417000Y-109794523D01*
X161356523Y-110399285D01*
X161417000Y-110338809D01*
X161537952Y-110278333D01*
X161840333Y-110278333D01*
X161961285Y-110338809D01*
X162021761Y-110399285D01*
X162082238Y-110520238D01*
X162082238Y-110822619D01*
X162021761Y-110943571D01*
X161961285Y-111004047D01*
X161840333Y-111064523D01*
X161537952Y-111064523D01*
X161417000Y-111004047D01*
X161356523Y-110943571D01*
D11*
%TO.C,C13*%
X115925542Y-105087657D02*
X115973161Y-105135276D01*
X116020780Y-105278133D01*
X116020780Y-105373371D01*
X115973161Y-105516228D01*
X115877923Y-105611466D01*
X115782685Y-105659085D01*
X115592209Y-105706704D01*
X115449352Y-105706704D01*
X115258876Y-105659085D01*
X115163638Y-105611466D01*
X115068400Y-105516228D01*
X115020780Y-105373371D01*
X115020780Y-105278133D01*
X115068400Y-105135276D01*
X115116019Y-105087657D01*
X116020780Y-104135276D02*
X116020780Y-104706704D01*
X116020780Y-104420990D02*
X115020780Y-104420990D01*
X115163638Y-104516228D01*
X115258876Y-104611466D01*
X115306495Y-104706704D01*
X115020780Y-103801942D02*
X115020780Y-103182895D01*
X115401733Y-103516228D01*
X115401733Y-103373371D01*
X115449352Y-103278133D01*
X115496971Y-103230514D01*
X115592209Y-103182895D01*
X115830304Y-103182895D01*
X115925542Y-103230514D01*
X115973161Y-103278133D01*
X116020780Y-103373371D01*
X116020780Y-103659085D01*
X115973161Y-103754323D01*
X115925542Y-103801942D01*
%TO.C,C3*%
X123437942Y-102376266D02*
X123485561Y-102423885D01*
X123533180Y-102566742D01*
X123533180Y-102661980D01*
X123485561Y-102804838D01*
X123390323Y-102900076D01*
X123295085Y-102947695D01*
X123104609Y-102995314D01*
X122961752Y-102995314D01*
X122771276Y-102947695D01*
X122676038Y-102900076D01*
X122580800Y-102804838D01*
X122533180Y-102661980D01*
X122533180Y-102566742D01*
X122580800Y-102423885D01*
X122628419Y-102376266D01*
X122533180Y-102042933D02*
X122533180Y-101423885D01*
X122914133Y-101757219D01*
X122914133Y-101614361D01*
X122961752Y-101519123D01*
X123009371Y-101471504D01*
X123104609Y-101423885D01*
X123342704Y-101423885D01*
X123437942Y-101471504D01*
X123485561Y-101519123D01*
X123533180Y-101614361D01*
X123533180Y-101900076D01*
X123485561Y-101995314D01*
X123437942Y-102042933D01*
D12*
%TO.C,IC6*%
X191393838Y-109489723D02*
X191393838Y-108219723D01*
X192724314Y-109368771D02*
X192663838Y-109429247D01*
X192482409Y-109489723D01*
X192361457Y-109489723D01*
X192180028Y-109429247D01*
X192059076Y-109308295D01*
X191998600Y-109187342D01*
X191938123Y-108945438D01*
X191938123Y-108764009D01*
X191998600Y-108522104D01*
X192059076Y-108401152D01*
X192180028Y-108280200D01*
X192361457Y-108219723D01*
X192482409Y-108219723D01*
X192663838Y-108280200D01*
X192724314Y-108340676D01*
X193812885Y-108219723D02*
X193570980Y-108219723D01*
X193450028Y-108280200D01*
X193389552Y-108340676D01*
X193268600Y-108522104D01*
X193208123Y-108764009D01*
X193208123Y-109247819D01*
X193268600Y-109368771D01*
X193329076Y-109429247D01*
X193450028Y-109489723D01*
X193691933Y-109489723D01*
X193812885Y-109429247D01*
X193873361Y-109368771D01*
X193933838Y-109247819D01*
X193933838Y-108945438D01*
X193873361Y-108824485D01*
X193812885Y-108764009D01*
X193691933Y-108703533D01*
X193450028Y-108703533D01*
X193329076Y-108764009D01*
X193268600Y-108824485D01*
X193208123Y-108945438D01*
D11*
%TO.C,C19*%
X130514342Y-113215657D02*
X130561961Y-113263276D01*
X130609580Y-113406133D01*
X130609580Y-113501371D01*
X130561961Y-113644228D01*
X130466723Y-113739466D01*
X130371485Y-113787085D01*
X130181009Y-113834704D01*
X130038152Y-113834704D01*
X129847676Y-113787085D01*
X129752438Y-113739466D01*
X129657200Y-113644228D01*
X129609580Y-113501371D01*
X129609580Y-113406133D01*
X129657200Y-113263276D01*
X129704819Y-113215657D01*
X130609580Y-112263276D02*
X130609580Y-112834704D01*
X130609580Y-112548990D02*
X129609580Y-112548990D01*
X129752438Y-112644228D01*
X129847676Y-112739466D01*
X129895295Y-112834704D01*
X130609580Y-111787085D02*
X130609580Y-111596609D01*
X130561961Y-111501371D01*
X130514342Y-111453752D01*
X130371485Y-111358514D01*
X130181009Y-111310895D01*
X129800057Y-111310895D01*
X129704819Y-111358514D01*
X129657200Y-111406133D01*
X129609580Y-111501371D01*
X129609580Y-111691847D01*
X129657200Y-111787085D01*
X129704819Y-111834704D01*
X129800057Y-111882323D01*
X130038152Y-111882323D01*
X130133390Y-111834704D01*
X130181009Y-111787085D01*
X130228628Y-111691847D01*
X130228628Y-111501371D01*
X130181009Y-111406133D01*
X130133390Y-111358514D01*
X130038152Y-111310895D01*
%TO.C,C25*%
X117619542Y-111311942D02*
X117571923Y-111359561D01*
X117429066Y-111407180D01*
X117333828Y-111407180D01*
X117190971Y-111359561D01*
X117095733Y-111264323D01*
X117048114Y-111169085D01*
X117000495Y-110978609D01*
X117000495Y-110835752D01*
X117048114Y-110645276D01*
X117095733Y-110550038D01*
X117190971Y-110454800D01*
X117333828Y-110407180D01*
X117429066Y-110407180D01*
X117571923Y-110454800D01*
X117619542Y-110502419D01*
X118000495Y-110502419D02*
X118048114Y-110454800D01*
X118143352Y-110407180D01*
X118381447Y-110407180D01*
X118476685Y-110454800D01*
X118524304Y-110502419D01*
X118571923Y-110597657D01*
X118571923Y-110692895D01*
X118524304Y-110835752D01*
X117952876Y-111407180D01*
X118571923Y-111407180D01*
X119476685Y-110407180D02*
X119000495Y-110407180D01*
X118952876Y-110883371D01*
X119000495Y-110835752D01*
X119095733Y-110788133D01*
X119333828Y-110788133D01*
X119429066Y-110835752D01*
X119476685Y-110883371D01*
X119524304Y-110978609D01*
X119524304Y-111216704D01*
X119476685Y-111311942D01*
X119429066Y-111359561D01*
X119333828Y-111407180D01*
X119095733Y-111407180D01*
X119000495Y-111359561D01*
X118952876Y-111311942D01*
%TO.C,U6*%
X157480095Y-111892380D02*
X157480095Y-112701904D01*
X157527714Y-112797142D01*
X157575333Y-112844761D01*
X157670571Y-112892380D01*
X157861047Y-112892380D01*
X157956285Y-112844761D01*
X158003904Y-112797142D01*
X158051523Y-112701904D01*
X158051523Y-111892380D01*
X158956285Y-111892380D02*
X158765809Y-111892380D01*
X158670571Y-111940000D01*
X158622952Y-111987619D01*
X158527714Y-112130476D01*
X158480095Y-112320952D01*
X158480095Y-112701904D01*
X158527714Y-112797142D01*
X158575333Y-112844761D01*
X158670571Y-112892380D01*
X158861047Y-112892380D01*
X158956285Y-112844761D01*
X159003904Y-112797142D01*
X159051523Y-112701904D01*
X159051523Y-112463809D01*
X159003904Y-112368571D01*
X158956285Y-112320952D01*
X158861047Y-112273333D01*
X158670571Y-112273333D01*
X158575333Y-112320952D01*
X158527714Y-112368571D01*
X158480095Y-112463809D01*
%TO.C,C48*%
X111015542Y-106877142D02*
X110967923Y-106924761D01*
X110825066Y-106972380D01*
X110729828Y-106972380D01*
X110586971Y-106924761D01*
X110491733Y-106829523D01*
X110444114Y-106734285D01*
X110396495Y-106543809D01*
X110396495Y-106400952D01*
X110444114Y-106210476D01*
X110491733Y-106115238D01*
X110586971Y-106020000D01*
X110729828Y-105972380D01*
X110825066Y-105972380D01*
X110967923Y-106020000D01*
X111015542Y-106067619D01*
X111872685Y-106305714D02*
X111872685Y-106972380D01*
X111634590Y-105924761D02*
X111396495Y-106639047D01*
X112015542Y-106639047D01*
X112539352Y-106400952D02*
X112444114Y-106353333D01*
X112396495Y-106305714D01*
X112348876Y-106210476D01*
X112348876Y-106162857D01*
X112396495Y-106067619D01*
X112444114Y-106020000D01*
X112539352Y-105972380D01*
X112729828Y-105972380D01*
X112825066Y-106020000D01*
X112872685Y-106067619D01*
X112920304Y-106162857D01*
X112920304Y-106210476D01*
X112872685Y-106305714D01*
X112825066Y-106353333D01*
X112729828Y-106400952D01*
X112539352Y-106400952D01*
X112444114Y-106448571D01*
X112396495Y-106496190D01*
X112348876Y-106591428D01*
X112348876Y-106781904D01*
X112396495Y-106877142D01*
X112444114Y-106924761D01*
X112539352Y-106972380D01*
X112729828Y-106972380D01*
X112825066Y-106924761D01*
X112872685Y-106877142D01*
X112920304Y-106781904D01*
X112920304Y-106591428D01*
X112872685Y-106496190D01*
X112825066Y-106448571D01*
X112729828Y-106400952D01*
%TO.C,C6*%
X118510342Y-103036666D02*
X118557961Y-103084285D01*
X118605580Y-103227142D01*
X118605580Y-103322380D01*
X118557961Y-103465238D01*
X118462723Y-103560476D01*
X118367485Y-103608095D01*
X118177009Y-103655714D01*
X118034152Y-103655714D01*
X117843676Y-103608095D01*
X117748438Y-103560476D01*
X117653200Y-103465238D01*
X117605580Y-103322380D01*
X117605580Y-103227142D01*
X117653200Y-103084285D01*
X117700819Y-103036666D01*
X117605580Y-102179523D02*
X117605580Y-102370000D01*
X117653200Y-102465238D01*
X117700819Y-102512857D01*
X117843676Y-102608095D01*
X118034152Y-102655714D01*
X118415104Y-102655714D01*
X118510342Y-102608095D01*
X118557961Y-102560476D01*
X118605580Y-102465238D01*
X118605580Y-102274761D01*
X118557961Y-102179523D01*
X118510342Y-102131904D01*
X118415104Y-102084285D01*
X118177009Y-102084285D01*
X118081771Y-102131904D01*
X118034152Y-102179523D01*
X117986533Y-102274761D01*
X117986533Y-102465238D01*
X118034152Y-102560476D01*
X118081771Y-102608095D01*
X118177009Y-102655714D01*
D12*
%TO.C,IC9*%
X101920523Y-138145761D02*
X100650523Y-138145761D01*
X101799571Y-136815285D02*
X101860047Y-136875761D01*
X101920523Y-137057190D01*
X101920523Y-137178142D01*
X101860047Y-137359571D01*
X101739095Y-137480523D01*
X101618142Y-137541000D01*
X101376238Y-137601476D01*
X101194809Y-137601476D01*
X100952904Y-137541000D01*
X100831952Y-137480523D01*
X100711000Y-137359571D01*
X100650523Y-137178142D01*
X100650523Y-137057190D01*
X100711000Y-136875761D01*
X100771476Y-136815285D01*
X101920523Y-136210523D02*
X101920523Y-135968619D01*
X101860047Y-135847666D01*
X101799571Y-135787190D01*
X101618142Y-135666238D01*
X101376238Y-135605761D01*
X100892428Y-135605761D01*
X100771476Y-135666238D01*
X100711000Y-135726714D01*
X100650523Y-135847666D01*
X100650523Y-136089571D01*
X100711000Y-136210523D01*
X100771476Y-136271000D01*
X100892428Y-136331476D01*
X101194809Y-136331476D01*
X101315761Y-136271000D01*
X101376238Y-136210523D01*
X101436714Y-136089571D01*
X101436714Y-135847666D01*
X101376238Y-135726714D01*
X101315761Y-135666238D01*
X101194809Y-135605761D01*
%TO.C,IC4*%
X159542238Y-107965723D02*
X159542238Y-106695723D01*
X160872714Y-107844771D02*
X160812238Y-107905247D01*
X160630809Y-107965723D01*
X160509857Y-107965723D01*
X160328428Y-107905247D01*
X160207476Y-107784295D01*
X160147000Y-107663342D01*
X160086523Y-107421438D01*
X160086523Y-107240009D01*
X160147000Y-106998104D01*
X160207476Y-106877152D01*
X160328428Y-106756200D01*
X160509857Y-106695723D01*
X160630809Y-106695723D01*
X160812238Y-106756200D01*
X160872714Y-106816676D01*
X161961285Y-107119057D02*
X161961285Y-107965723D01*
X161658904Y-106635247D02*
X161356523Y-107542390D01*
X162142714Y-107542390D01*
D11*
%TO.C,U5*%
X151732495Y-100793180D02*
X151732495Y-101602704D01*
X151780114Y-101697942D01*
X151827733Y-101745561D01*
X151922971Y-101793180D01*
X152113447Y-101793180D01*
X152208685Y-101745561D01*
X152256304Y-101697942D01*
X152303923Y-101602704D01*
X152303923Y-100793180D01*
X153256304Y-100793180D02*
X152780114Y-100793180D01*
X152732495Y-101269371D01*
X152780114Y-101221752D01*
X152875352Y-101174133D01*
X153113447Y-101174133D01*
X153208685Y-101221752D01*
X153256304Y-101269371D01*
X153303923Y-101364609D01*
X153303923Y-101602704D01*
X153256304Y-101697942D01*
X153208685Y-101745561D01*
X153113447Y-101793180D01*
X152875352Y-101793180D01*
X152780114Y-101745561D01*
X152732495Y-101697942D01*
%TO.C,C11*%
X119041942Y-106429142D02*
X118994323Y-106476761D01*
X118851466Y-106524380D01*
X118756228Y-106524380D01*
X118613371Y-106476761D01*
X118518133Y-106381523D01*
X118470514Y-106286285D01*
X118422895Y-106095809D01*
X118422895Y-105952952D01*
X118470514Y-105762476D01*
X118518133Y-105667238D01*
X118613371Y-105572000D01*
X118756228Y-105524380D01*
X118851466Y-105524380D01*
X118994323Y-105572000D01*
X119041942Y-105619619D01*
X119994323Y-106524380D02*
X119422895Y-106524380D01*
X119708609Y-106524380D02*
X119708609Y-105524380D01*
X119613371Y-105667238D01*
X119518133Y-105762476D01*
X119422895Y-105810095D01*
X120946704Y-106524380D02*
X120375276Y-106524380D01*
X120660990Y-106524380D02*
X120660990Y-105524380D01*
X120565752Y-105667238D01*
X120470514Y-105762476D01*
X120375276Y-105810095D01*
%TO.C,C8*%
X119518133Y-108867542D02*
X119470514Y-108915161D01*
X119327657Y-108962780D01*
X119232419Y-108962780D01*
X119089561Y-108915161D01*
X118994323Y-108819923D01*
X118946704Y-108724685D01*
X118899085Y-108534209D01*
X118899085Y-108391352D01*
X118946704Y-108200876D01*
X118994323Y-108105638D01*
X119089561Y-108010400D01*
X119232419Y-107962780D01*
X119327657Y-107962780D01*
X119470514Y-108010400D01*
X119518133Y-108058019D01*
X120089561Y-108391352D02*
X119994323Y-108343733D01*
X119946704Y-108296114D01*
X119899085Y-108200876D01*
X119899085Y-108153257D01*
X119946704Y-108058019D01*
X119994323Y-108010400D01*
X120089561Y-107962780D01*
X120280038Y-107962780D01*
X120375276Y-108010400D01*
X120422895Y-108058019D01*
X120470514Y-108153257D01*
X120470514Y-108200876D01*
X120422895Y-108296114D01*
X120375276Y-108343733D01*
X120280038Y-108391352D01*
X120089561Y-108391352D01*
X119994323Y-108438971D01*
X119946704Y-108486590D01*
X119899085Y-108581828D01*
X119899085Y-108772304D01*
X119946704Y-108867542D01*
X119994323Y-108915161D01*
X120089561Y-108962780D01*
X120280038Y-108962780D01*
X120375276Y-108915161D01*
X120422895Y-108867542D01*
X120470514Y-108772304D01*
X120470514Y-108581828D01*
X120422895Y-108486590D01*
X120375276Y-108438971D01*
X120280038Y-108391352D01*
%TO.C,R2*%
X117638533Y-107540380D02*
X117305200Y-107064190D01*
X117067104Y-107540380D02*
X117067104Y-106540380D01*
X117448057Y-106540380D01*
X117543295Y-106588000D01*
X117590914Y-106635619D01*
X117638533Y-106730857D01*
X117638533Y-106873714D01*
X117590914Y-106968952D01*
X117543295Y-107016571D01*
X117448057Y-107064190D01*
X117067104Y-107064190D01*
X118019485Y-106635619D02*
X118067104Y-106588000D01*
X118162342Y-106540380D01*
X118400438Y-106540380D01*
X118495676Y-106588000D01*
X118543295Y-106635619D01*
X118590914Y-106730857D01*
X118590914Y-106826095D01*
X118543295Y-106968952D01*
X117971866Y-107540380D01*
X118590914Y-107540380D01*
%TO.C,J4*%
X130218380Y-145239933D02*
X130932666Y-145239933D01*
X131075523Y-145287552D01*
X131170761Y-145382790D01*
X131218380Y-145525647D01*
X131218380Y-145620885D01*
X130551714Y-144335171D02*
X131218380Y-144335171D01*
X130170761Y-144573266D02*
X130885047Y-144811361D01*
X130885047Y-144192314D01*
D12*
%TO.C,IC3*%
X146559238Y-107864123D02*
X146559238Y-106594123D01*
X147889714Y-107743171D02*
X147829238Y-107803647D01*
X147647809Y-107864123D01*
X147526857Y-107864123D01*
X147345428Y-107803647D01*
X147224476Y-107682695D01*
X147164000Y-107561742D01*
X147103523Y-107319838D01*
X147103523Y-107138409D01*
X147164000Y-106896504D01*
X147224476Y-106775552D01*
X147345428Y-106654600D01*
X147526857Y-106594123D01*
X147647809Y-106594123D01*
X147829238Y-106654600D01*
X147889714Y-106715076D01*
X148313047Y-106594123D02*
X149099238Y-106594123D01*
X148675904Y-107077933D01*
X148857333Y-107077933D01*
X148978285Y-107138409D01*
X149038761Y-107198885D01*
X149099238Y-107319838D01*
X149099238Y-107622219D01*
X149038761Y-107743171D01*
X148978285Y-107803647D01*
X148857333Y-107864123D01*
X148494476Y-107864123D01*
X148373523Y-107803647D01*
X148313047Y-107743171D01*
D11*
%TO.C,U3*%
X143294295Y-105354780D02*
X143294295Y-106164304D01*
X143341914Y-106259542D01*
X143389533Y-106307161D01*
X143484771Y-106354780D01*
X143675247Y-106354780D01*
X143770485Y-106307161D01*
X143818104Y-106259542D01*
X143865723Y-106164304D01*
X143865723Y-105354780D01*
X144246676Y-105354780D02*
X144865723Y-105354780D01*
X144532390Y-105735733D01*
X144675247Y-105735733D01*
X144770485Y-105783352D01*
X144818104Y-105830971D01*
X144865723Y-105926209D01*
X144865723Y-106164304D01*
X144818104Y-106259542D01*
X144770485Y-106307161D01*
X144675247Y-106354780D01*
X144389533Y-106354780D01*
X144294295Y-106307161D01*
X144246676Y-106259542D01*
%TO.C,R7*%
X158447980Y-110605866D02*
X157971790Y-110939200D01*
X158447980Y-111177295D02*
X157447980Y-111177295D01*
X157447980Y-110796342D01*
X157495600Y-110701104D01*
X157543219Y-110653485D01*
X157638457Y-110605866D01*
X157781314Y-110605866D01*
X157876552Y-110653485D01*
X157924171Y-110701104D01*
X157971790Y-110796342D01*
X157971790Y-111177295D01*
X157447980Y-110272533D02*
X157447980Y-109605866D01*
X158447980Y-110034438D01*
%TO.C,C49*%
X118382142Y-114688857D02*
X118429761Y-114736476D01*
X118477380Y-114879333D01*
X118477380Y-114974571D01*
X118429761Y-115117428D01*
X118334523Y-115212666D01*
X118239285Y-115260285D01*
X118048809Y-115307904D01*
X117905952Y-115307904D01*
X117715476Y-115260285D01*
X117620238Y-115212666D01*
X117525000Y-115117428D01*
X117477380Y-114974571D01*
X117477380Y-114879333D01*
X117525000Y-114736476D01*
X117572619Y-114688857D01*
X117810714Y-113831714D02*
X118477380Y-113831714D01*
X117429761Y-114069809D02*
X118144047Y-114307904D01*
X118144047Y-113688857D01*
X118477380Y-113260285D02*
X118477380Y-113069809D01*
X118429761Y-112974571D01*
X118382142Y-112926952D01*
X118239285Y-112831714D01*
X118048809Y-112784095D01*
X117667857Y-112784095D01*
X117572619Y-112831714D01*
X117525000Y-112879333D01*
X117477380Y-112974571D01*
X117477380Y-113165047D01*
X117525000Y-113260285D01*
X117572619Y-113307904D01*
X117667857Y-113355523D01*
X117905952Y-113355523D01*
X118001190Y-113307904D01*
X118048809Y-113260285D01*
X118096428Y-113165047D01*
X118096428Y-112974571D01*
X118048809Y-112879333D01*
X118001190Y-112831714D01*
X117905952Y-112784095D01*
%TO.C,U11*%
X113217104Y-122090780D02*
X113217104Y-122900304D01*
X113264723Y-122995542D01*
X113312342Y-123043161D01*
X113407580Y-123090780D01*
X113598057Y-123090780D01*
X113693295Y-123043161D01*
X113740914Y-122995542D01*
X113788533Y-122900304D01*
X113788533Y-122090780D01*
X114788533Y-123090780D02*
X114217104Y-123090780D01*
X114502819Y-123090780D02*
X114502819Y-122090780D01*
X114407580Y-122233638D01*
X114312342Y-122328876D01*
X114217104Y-122376495D01*
X115740914Y-123090780D02*
X115169485Y-123090780D01*
X115455200Y-123090780D02*
X115455200Y-122090780D01*
X115359961Y-122233638D01*
X115264723Y-122328876D01*
X115169485Y-122376495D01*
%TO.C,C47*%
X89655942Y-122816857D02*
X89703561Y-122864476D01*
X89751180Y-123007333D01*
X89751180Y-123102571D01*
X89703561Y-123245428D01*
X89608323Y-123340666D01*
X89513085Y-123388285D01*
X89322609Y-123435904D01*
X89179752Y-123435904D01*
X88989276Y-123388285D01*
X88894038Y-123340666D01*
X88798800Y-123245428D01*
X88751180Y-123102571D01*
X88751180Y-123007333D01*
X88798800Y-122864476D01*
X88846419Y-122816857D01*
X89084514Y-121959714D02*
X89751180Y-121959714D01*
X88703561Y-122197809D02*
X89417847Y-122435904D01*
X89417847Y-121816857D01*
X88751180Y-121531142D02*
X88751180Y-120864476D01*
X89751180Y-121293047D01*
D12*
%TO.C,FL1*%
X130939419Y-108240285D02*
X130516085Y-108240285D01*
X130516085Y-108905523D02*
X130516085Y-107635523D01*
X131120847Y-107635523D01*
X132209419Y-108905523D02*
X131604657Y-108905523D01*
X131604657Y-107635523D01*
X133297990Y-108905523D02*
X132572276Y-108905523D01*
X132935133Y-108905523D02*
X132935133Y-107635523D01*
X132814180Y-107816952D01*
X132693228Y-107937904D01*
X132572276Y-107998380D01*
D11*
%TO.C,C5*%
X128323942Y-102935066D02*
X128371561Y-102982685D01*
X128419180Y-103125542D01*
X128419180Y-103220780D01*
X128371561Y-103363638D01*
X128276323Y-103458876D01*
X128181085Y-103506495D01*
X127990609Y-103554114D01*
X127847752Y-103554114D01*
X127657276Y-103506495D01*
X127562038Y-103458876D01*
X127466800Y-103363638D01*
X127419180Y-103220780D01*
X127419180Y-103125542D01*
X127466800Y-102982685D01*
X127514419Y-102935066D01*
X127419180Y-102030304D02*
X127419180Y-102506495D01*
X127895371Y-102554114D01*
X127847752Y-102506495D01*
X127800133Y-102411257D01*
X127800133Y-102173161D01*
X127847752Y-102077923D01*
X127895371Y-102030304D01*
X127990609Y-101982685D01*
X128228704Y-101982685D01*
X128323942Y-102030304D01*
X128371561Y-102077923D01*
X128419180Y-102173161D01*
X128419180Y-102411257D01*
X128371561Y-102506495D01*
X128323942Y-102554114D01*
%TO.C,C17*%
X118533942Y-112785142D02*
X118486323Y-112832761D01*
X118343466Y-112880380D01*
X118248228Y-112880380D01*
X118105371Y-112832761D01*
X118010133Y-112737523D01*
X117962514Y-112642285D01*
X117914895Y-112451809D01*
X117914895Y-112308952D01*
X117962514Y-112118476D01*
X118010133Y-112023238D01*
X118105371Y-111928000D01*
X118248228Y-111880380D01*
X118343466Y-111880380D01*
X118486323Y-111928000D01*
X118533942Y-111975619D01*
X119486323Y-112880380D02*
X118914895Y-112880380D01*
X119200609Y-112880380D02*
X119200609Y-111880380D01*
X119105371Y-112023238D01*
X119010133Y-112118476D01*
X118914895Y-112166095D01*
X119819657Y-111880380D02*
X120486323Y-111880380D01*
X120057752Y-112880380D01*
%TO.C,R8*%
X158447980Y-107608666D02*
X157971790Y-107942000D01*
X158447980Y-108180095D02*
X157447980Y-108180095D01*
X157447980Y-107799142D01*
X157495600Y-107703904D01*
X157543219Y-107656285D01*
X157638457Y-107608666D01*
X157781314Y-107608666D01*
X157876552Y-107656285D01*
X157924171Y-107703904D01*
X157971790Y-107799142D01*
X157971790Y-108180095D01*
X157876552Y-107037238D02*
X157828933Y-107132476D01*
X157781314Y-107180095D01*
X157686076Y-107227714D01*
X157638457Y-107227714D01*
X157543219Y-107180095D01*
X157495600Y-107132476D01*
X157447980Y-107037238D01*
X157447980Y-106846761D01*
X157495600Y-106751523D01*
X157543219Y-106703904D01*
X157638457Y-106656285D01*
X157686076Y-106656285D01*
X157781314Y-106703904D01*
X157828933Y-106751523D01*
X157876552Y-106846761D01*
X157876552Y-107037238D01*
X157924171Y-107132476D01*
X157971790Y-107180095D01*
X158067028Y-107227714D01*
X158257504Y-107227714D01*
X158352742Y-107180095D01*
X158400361Y-107132476D01*
X158447980Y-107037238D01*
X158447980Y-106846761D01*
X158400361Y-106751523D01*
X158352742Y-106703904D01*
X158257504Y-106656285D01*
X158067028Y-106656285D01*
X157971790Y-106703904D01*
X157924171Y-106751523D01*
X157876552Y-106846761D01*
%TO.C,C21*%
X125167142Y-112910857D02*
X125214761Y-112958476D01*
X125262380Y-113101333D01*
X125262380Y-113196571D01*
X125214761Y-113339428D01*
X125119523Y-113434666D01*
X125024285Y-113482285D01*
X124833809Y-113529904D01*
X124690952Y-113529904D01*
X124500476Y-113482285D01*
X124405238Y-113434666D01*
X124310000Y-113339428D01*
X124262380Y-113196571D01*
X124262380Y-113101333D01*
X124310000Y-112958476D01*
X124357619Y-112910857D01*
X124357619Y-112529904D02*
X124310000Y-112482285D01*
X124262380Y-112387047D01*
X124262380Y-112148952D01*
X124310000Y-112053714D01*
X124357619Y-112006095D01*
X124452857Y-111958476D01*
X124548095Y-111958476D01*
X124690952Y-112006095D01*
X125262380Y-112577523D01*
X125262380Y-111958476D01*
X125262380Y-111006095D02*
X125262380Y-111577523D01*
X125262380Y-111291809D02*
X124262380Y-111291809D01*
X124405238Y-111387047D01*
X124500476Y-111482285D01*
X124548095Y-111577523D01*
%TO.C,C4*%
X124818742Y-102985866D02*
X124866361Y-103033485D01*
X124913980Y-103176342D01*
X124913980Y-103271580D01*
X124866361Y-103414438D01*
X124771123Y-103509676D01*
X124675885Y-103557295D01*
X124485409Y-103604914D01*
X124342552Y-103604914D01*
X124152076Y-103557295D01*
X124056838Y-103509676D01*
X123961600Y-103414438D01*
X123913980Y-103271580D01*
X123913980Y-103176342D01*
X123961600Y-103033485D01*
X124009219Y-102985866D01*
X124247314Y-102128723D02*
X124913980Y-102128723D01*
X123866361Y-102366819D02*
X124580647Y-102604914D01*
X124580647Y-101985866D01*
%TO.C,C40*%
X188157142Y-112301257D02*
X188204761Y-112348876D01*
X188252380Y-112491733D01*
X188252380Y-112586971D01*
X188204761Y-112729828D01*
X188109523Y-112825066D01*
X188014285Y-112872685D01*
X187823809Y-112920304D01*
X187680952Y-112920304D01*
X187490476Y-112872685D01*
X187395238Y-112825066D01*
X187300000Y-112729828D01*
X187252380Y-112586971D01*
X187252380Y-112491733D01*
X187300000Y-112348876D01*
X187347619Y-112301257D01*
X187585714Y-111444114D02*
X188252380Y-111444114D01*
X187204761Y-111682209D02*
X187919047Y-111920304D01*
X187919047Y-111301257D01*
X187252380Y-110729828D02*
X187252380Y-110634590D01*
X187300000Y-110539352D01*
X187347619Y-110491733D01*
X187442857Y-110444114D01*
X187633333Y-110396495D01*
X187871428Y-110396495D01*
X188061904Y-110444114D01*
X188157142Y-110491733D01*
X188204761Y-110539352D01*
X188252380Y-110634590D01*
X188252380Y-110729828D01*
X188204761Y-110825066D01*
X188157142Y-110872685D01*
X188061904Y-110920304D01*
X187871428Y-110967923D01*
X187633333Y-110967923D01*
X187442857Y-110920304D01*
X187347619Y-110872685D01*
X187300000Y-110825066D01*
X187252380Y-110729828D01*
D12*
%TO.C,J3*%
X73236666Y-134454523D02*
X73236666Y-135361666D01*
X73176190Y-135543095D01*
X73055238Y-135664047D01*
X72873809Y-135724523D01*
X72752857Y-135724523D01*
X73720476Y-134454523D02*
X74506666Y-134454523D01*
X74083333Y-134938333D01*
X74264761Y-134938333D01*
X74385714Y-134998809D01*
X74446190Y-135059285D01*
X74506666Y-135180238D01*
X74506666Y-135482619D01*
X74446190Y-135603571D01*
X74385714Y-135664047D01*
X74264761Y-135724523D01*
X73901904Y-135724523D01*
X73780952Y-135664047D01*
X73720476Y-135603571D01*
D11*
%TO.C,C24*%
X128846342Y-104083142D02*
X128798723Y-104130761D01*
X128655866Y-104178380D01*
X128560628Y-104178380D01*
X128417771Y-104130761D01*
X128322533Y-104035523D01*
X128274914Y-103940285D01*
X128227295Y-103749809D01*
X128227295Y-103606952D01*
X128274914Y-103416476D01*
X128322533Y-103321238D01*
X128417771Y-103226000D01*
X128560628Y-103178380D01*
X128655866Y-103178380D01*
X128798723Y-103226000D01*
X128846342Y-103273619D01*
X129227295Y-103273619D02*
X129274914Y-103226000D01*
X129370152Y-103178380D01*
X129608247Y-103178380D01*
X129703485Y-103226000D01*
X129751104Y-103273619D01*
X129798723Y-103368857D01*
X129798723Y-103464095D01*
X129751104Y-103606952D01*
X129179676Y-104178380D01*
X129798723Y-104178380D01*
X130655866Y-103511714D02*
X130655866Y-104178380D01*
X130417771Y-103130761D02*
X130179676Y-103845047D01*
X130798723Y-103845047D01*
%TO.C,R13*%
X198620142Y-93897380D02*
X198286809Y-93421190D01*
X198048714Y-93897380D02*
X198048714Y-92897380D01*
X198429666Y-92897380D01*
X198524904Y-92945000D01*
X198572523Y-92992619D01*
X198620142Y-93087857D01*
X198620142Y-93230714D01*
X198572523Y-93325952D01*
X198524904Y-93373571D01*
X198429666Y-93421190D01*
X198048714Y-93421190D01*
X199572523Y-93897380D02*
X199001095Y-93897380D01*
X199286809Y-93897380D02*
X199286809Y-92897380D01*
X199191571Y-93040238D01*
X199096333Y-93135476D01*
X199001095Y-93183095D01*
X199905857Y-92897380D02*
X200524904Y-92897380D01*
X200191571Y-93278333D01*
X200334428Y-93278333D01*
X200429666Y-93325952D01*
X200477285Y-93373571D01*
X200524904Y-93468809D01*
X200524904Y-93706904D01*
X200477285Y-93802142D01*
X200429666Y-93849761D01*
X200334428Y-93897380D01*
X200048714Y-93897380D01*
X199953476Y-93849761D01*
X199905857Y-93802142D01*
%TO.C,C45*%
X89198742Y-109710457D02*
X89246361Y-109758076D01*
X89293980Y-109900933D01*
X89293980Y-109996171D01*
X89246361Y-110139028D01*
X89151123Y-110234266D01*
X89055885Y-110281885D01*
X88865409Y-110329504D01*
X88722552Y-110329504D01*
X88532076Y-110281885D01*
X88436838Y-110234266D01*
X88341600Y-110139028D01*
X88293980Y-109996171D01*
X88293980Y-109900933D01*
X88341600Y-109758076D01*
X88389219Y-109710457D01*
X88627314Y-108853314D02*
X89293980Y-108853314D01*
X88246361Y-109091409D02*
X88960647Y-109329504D01*
X88960647Y-108710457D01*
X88293980Y-107853314D02*
X88293980Y-108329504D01*
X88770171Y-108377123D01*
X88722552Y-108329504D01*
X88674933Y-108234266D01*
X88674933Y-107996171D01*
X88722552Y-107900933D01*
X88770171Y-107853314D01*
X88865409Y-107805695D01*
X89103504Y-107805695D01*
X89198742Y-107853314D01*
X89246361Y-107900933D01*
X89293980Y-107996171D01*
X89293980Y-108234266D01*
X89246361Y-108329504D01*
X89198742Y-108377123D01*
D12*
%TO.C,AT2*%
X166553847Y-117102466D02*
X167158609Y-117102466D01*
X166432895Y-117465323D02*
X166856228Y-116195323D01*
X167279561Y-117465323D01*
X167521466Y-116195323D02*
X168247180Y-116195323D01*
X167884323Y-117465323D02*
X167884323Y-116195323D01*
X168610038Y-116316276D02*
X168670514Y-116255800D01*
X168791466Y-116195323D01*
X169093847Y-116195323D01*
X169214800Y-116255800D01*
X169275276Y-116316276D01*
X169335752Y-116437228D01*
X169335752Y-116558180D01*
X169275276Y-116739609D01*
X168549561Y-117465323D01*
X169335752Y-117465323D01*
D11*
%TO.C,U1*%
X134670895Y-105604780D02*
X134670895Y-106414304D01*
X134718514Y-106509542D01*
X134766133Y-106557161D01*
X134861371Y-106604780D01*
X135051847Y-106604780D01*
X135147085Y-106557161D01*
X135194704Y-106509542D01*
X135242323Y-106414304D01*
X135242323Y-105604780D01*
X136242323Y-106604780D02*
X135670895Y-106604780D01*
X135956609Y-106604780D02*
X135956609Y-105604780D01*
X135861371Y-105747638D01*
X135766133Y-105842876D01*
X135670895Y-105890495D01*
%TO.C,U9*%
X172516895Y-115651580D02*
X172516895Y-116461104D01*
X172564514Y-116556342D01*
X172612133Y-116603961D01*
X172707371Y-116651580D01*
X172897847Y-116651580D01*
X172993085Y-116603961D01*
X173040704Y-116556342D01*
X173088323Y-116461104D01*
X173088323Y-115651580D01*
X173612133Y-116651580D02*
X173802609Y-116651580D01*
X173897847Y-116603961D01*
X173945466Y-116556342D01*
X174040704Y-116413485D01*
X174088323Y-116223009D01*
X174088323Y-115842057D01*
X174040704Y-115746819D01*
X173993085Y-115699200D01*
X173897847Y-115651580D01*
X173707371Y-115651580D01*
X173612133Y-115699200D01*
X173564514Y-115746819D01*
X173516895Y-115842057D01*
X173516895Y-116080152D01*
X173564514Y-116175390D01*
X173612133Y-116223009D01*
X173707371Y-116270628D01*
X173897847Y-116270628D01*
X173993085Y-116223009D01*
X174040704Y-116175390D01*
X174088323Y-116080152D01*
%TO.C,U10*%
X176765104Y-110342980D02*
X176765104Y-111152504D01*
X176812723Y-111247742D01*
X176860342Y-111295361D01*
X176955580Y-111342980D01*
X177146057Y-111342980D01*
X177241295Y-111295361D01*
X177288914Y-111247742D01*
X177336533Y-111152504D01*
X177336533Y-110342980D01*
X178336533Y-111342980D02*
X177765104Y-111342980D01*
X178050819Y-111342980D02*
X178050819Y-110342980D01*
X177955580Y-110485838D01*
X177860342Y-110581076D01*
X177765104Y-110628695D01*
X178955580Y-110342980D02*
X179050819Y-110342980D01*
X179146057Y-110390600D01*
X179193676Y-110438219D01*
X179241295Y-110533457D01*
X179288914Y-110723933D01*
X179288914Y-110962028D01*
X179241295Y-111152504D01*
X179193676Y-111247742D01*
X179146057Y-111295361D01*
X179050819Y-111342980D01*
X178955580Y-111342980D01*
X178860342Y-111295361D01*
X178812723Y-111247742D01*
X178765104Y-111152504D01*
X178717485Y-110962028D01*
X178717485Y-110723933D01*
X178765104Y-110533457D01*
X178812723Y-110438219D01*
X178860342Y-110390600D01*
X178955580Y-110342980D01*
D12*
%TO.C,IC8*%
X99343738Y-109794523D02*
X99343738Y-108524523D01*
X100674214Y-109673571D02*
X100613738Y-109734047D01*
X100432309Y-109794523D01*
X100311357Y-109794523D01*
X100129928Y-109734047D01*
X100008976Y-109613095D01*
X99948500Y-109492142D01*
X99888023Y-109250238D01*
X99888023Y-109068809D01*
X99948500Y-108826904D01*
X100008976Y-108705952D01*
X100129928Y-108585000D01*
X100311357Y-108524523D01*
X100432309Y-108524523D01*
X100613738Y-108585000D01*
X100674214Y-108645476D01*
X101399928Y-109068809D02*
X101278976Y-109008333D01*
X101218500Y-108947857D01*
X101158023Y-108826904D01*
X101158023Y-108766428D01*
X101218500Y-108645476D01*
X101278976Y-108585000D01*
X101399928Y-108524523D01*
X101641833Y-108524523D01*
X101762785Y-108585000D01*
X101823261Y-108645476D01*
X101883738Y-108766428D01*
X101883738Y-108826904D01*
X101823261Y-108947857D01*
X101762785Y-109008333D01*
X101641833Y-109068809D01*
X101399928Y-109068809D01*
X101278976Y-109129285D01*
X101218500Y-109189761D01*
X101158023Y-109310714D01*
X101158023Y-109552619D01*
X101218500Y-109673571D01*
X101278976Y-109734047D01*
X101399928Y-109794523D01*
X101641833Y-109794523D01*
X101762785Y-109734047D01*
X101823261Y-109673571D01*
X101883738Y-109552619D01*
X101883738Y-109310714D01*
X101823261Y-109189761D01*
X101762785Y-109129285D01*
X101641833Y-109068809D01*
D13*
%TO.C,R6*%
X141390900Y-109152458D02*
X141390900Y-108677942D01*
X140345900Y-109152458D02*
X140345900Y-108677942D01*
%TO.C,C22*%
X121990000Y-112421641D02*
X121990000Y-112114359D01*
X122750000Y-112421641D02*
X122750000Y-112114359D01*
%TO.C,C42*%
X196749641Y-109295200D02*
X196442359Y-109295200D01*
X196749641Y-108535200D02*
X196442359Y-108535200D01*
%TO.C,C41*%
X188228500Y-111946458D02*
X188228500Y-111471942D01*
X187183500Y-111946458D02*
X187183500Y-111471942D01*
D14*
%TO.C,IC7*%
X97001000Y-127000000D02*
X97001000Y-116840000D01*
X97001000Y-127000000D02*
X104701000Y-127000000D01*
X97001000Y-116840000D02*
X104701000Y-116840000D01*
X91209000Y-119410000D02*
G75*
G03*
X91209000Y-119410000I-65000J0D01*
G01*
D13*
%TO.C,R12*%
X199033159Y-109295200D02*
X199340441Y-109295200D01*
X199033159Y-108535200D02*
X199340441Y-108535200D01*
%TO.C,C12*%
X118134400Y-104598441D02*
X118134400Y-104291159D01*
X117374400Y-104598441D02*
X117374400Y-104291159D01*
D10*
%TO.C,AT3*%
X165669800Y-104273600D02*
G75*
G03*
X165669800Y-104273600I-125000J0D01*
G01*
D13*
%TO.C,U7*%
X158242000Y-108461200D02*
X157597000Y-108461200D01*
X158887000Y-106321200D02*
X157597000Y-106321200D01*
%TO.C,C1*%
X122544100Y-102497658D02*
X122544100Y-102023142D01*
X121499100Y-102497658D02*
X121499100Y-102023142D01*
D14*
%TO.C,Y1*%
X117535000Y-119983000D02*
X117535000Y-119983000D01*
D15*
X118235000Y-117183000D02*
X118235000Y-118783000D01*
D14*
X117335000Y-119983000D02*
X117335000Y-119983000D01*
D15*
X125235000Y-117183000D02*
X125235000Y-118583000D01*
D14*
X117335000Y-119983000D02*
G75*
G03*
X117535000Y-119983000I100000J0D01*
G01*
X117535000Y-119983000D02*
G75*
G03*
X117335000Y-119983000I-100000J0D01*
G01*
D15*
%TO.C,J2*%
X204195800Y-100615000D02*
X211195800Y-100615000D01*
X204195800Y-88615000D02*
X211195800Y-88615000D01*
X201695800Y-98115000D02*
X201695800Y-91115000D01*
X213695800Y-98115000D02*
X213695800Y-91115000D01*
D13*
%TO.C,R9*%
X172124900Y-103869258D02*
X172124900Y-103394742D01*
X171079900Y-103869258D02*
X171079900Y-103394742D01*
D10*
%TO.C,AT1*%
X165669800Y-109607600D02*
G75*
G03*
X165669800Y-109607600I-125000J0D01*
G01*
D13*
%TO.C,C2*%
X125400800Y-102922041D02*
X125400800Y-102614759D01*
X126160800Y-102922041D02*
X126160800Y-102614759D01*
%TO.C,R3*%
X114986800Y-104598441D02*
X114986800Y-104291159D01*
X115746800Y-104598441D02*
X115746800Y-104291159D01*
%TO.C,C37*%
X180188841Y-108535200D02*
X179881559Y-108535200D01*
X180188841Y-109295200D02*
X179881559Y-109295200D01*
%TO.C,C43*%
X108690142Y-122442500D02*
X109164658Y-122442500D01*
X108690142Y-121397500D02*
X109164658Y-121397500D01*
%TO.C,R10*%
X172124900Y-114486458D02*
X172124900Y-114011942D01*
X171079900Y-114486458D02*
X171079900Y-114011942D01*
%TO.C,C44*%
X93355900Y-139564342D02*
X93355900Y-140038858D01*
X94400900Y-139564342D02*
X94400900Y-140038858D01*
%TO.C,C10*%
X115721159Y-105538000D02*
X116028441Y-105538000D01*
X115721159Y-106298000D02*
X116028441Y-106298000D01*
%TO.C,U2*%
X139141200Y-107845200D02*
X139786200Y-107845200D01*
X138496200Y-109985200D02*
X139786200Y-109985200D01*
%TO.C,R11*%
X176849300Y-109177858D02*
X176849300Y-108703342D01*
X175804300Y-109177858D02*
X175804300Y-108703342D01*
%TO.C,C38*%
X189028041Y-109295200D02*
X188720759Y-109295200D01*
X189028041Y-108535200D02*
X188720759Y-108535200D01*
D10*
%TO.C,IC1*%
X127208000Y-104042000D02*
G75*
G03*
X127208000Y-104042000I-125000J0D01*
G01*
D13*
%TO.C,R1*%
X119838441Y-106298000D02*
X119531159Y-106298000D01*
X119838441Y-105538000D02*
X119531159Y-105538000D01*
%TO.C,R5*%
X136637500Y-108339658D02*
X136637500Y-107865142D01*
X137682500Y-108339658D02*
X137682500Y-107865142D01*
%TO.C,C16*%
X129251942Y-110860100D02*
X129726458Y-110860100D01*
X129251942Y-109815100D02*
X129726458Y-109815100D01*
%TO.C,C26*%
X133699641Y-108457000D02*
X133392359Y-108457000D01*
X133699641Y-107697000D02*
X133392359Y-107697000D01*
%TO.C,C18*%
X127128000Y-111860359D02*
X127128000Y-112167641D01*
X127888000Y-111860359D02*
X127888000Y-112167641D01*
%TO.C,C23*%
X126811300Y-112335542D02*
X126811300Y-112810058D01*
X125766300Y-112335542D02*
X125766300Y-112810058D01*
%TO.C,C46*%
X94400900Y-136567142D02*
X94400900Y-137041658D01*
X93355900Y-136567142D02*
X93355900Y-137041658D01*
%TO.C,R4*%
X123158641Y-114172000D02*
X122851359Y-114172000D01*
X123158641Y-113412000D02*
X122851359Y-113412000D01*
%TO.C,C9*%
X128776759Y-106401600D02*
X129084041Y-106401600D01*
X128776759Y-107161600D02*
X129084041Y-107161600D01*
%TO.C,C7*%
X121182400Y-102972841D02*
X121182400Y-102665559D01*
X120422400Y-102972841D02*
X120422400Y-102665559D01*
D10*
%TO.C,AT4*%
X165669800Y-98990400D02*
G75*
G03*
X165669800Y-98990400I-125000J0D01*
G01*
D13*
%TO.C,C15*%
X129284759Y-108382800D02*
X129592041Y-108382800D01*
X129284759Y-109142800D02*
X129592041Y-109142800D01*
%TO.C,C35*%
X181126400Y-107290841D02*
X181126400Y-106983559D01*
X180366400Y-107290841D02*
X180366400Y-106983559D01*
%TO.C,C14*%
X129284759Y-108177600D02*
X129592041Y-108177600D01*
X129284759Y-107417600D02*
X129592041Y-107417600D01*
D15*
%TO.C,J1*%
X201707600Y-112415200D02*
X201707600Y-105415200D01*
X204207600Y-114915200D02*
X211207600Y-114915200D01*
X204207600Y-102915200D02*
X211207600Y-102915200D01*
X213707600Y-112415200D02*
X213707600Y-105415200D01*
D13*
%TO.C,C39*%
X191227942Y-111847100D02*
X191702458Y-111847100D01*
X191227942Y-112892100D02*
X191702458Y-112892100D01*
%TO.C,C20*%
X121538000Y-111911159D02*
X121538000Y-112218441D01*
X120778000Y-111911159D02*
X120778000Y-112218441D01*
D15*
%TO.C,IC2*%
X148274000Y-110940800D02*
X148274000Y-110940800D01*
X148374000Y-110940800D02*
X148374000Y-110940800D01*
X148374000Y-110940800D02*
G75*
G03*
X148274000Y-110940800I-50000J0D01*
G01*
X148274000Y-110940800D02*
G75*
G03*
X148374000Y-110940800I50000J0D01*
G01*
D13*
%TO.C,C36*%
X179004700Y-106358458D02*
X179004700Y-105883942D01*
X180049700Y-106358458D02*
X180049700Y-105883942D01*
D10*
%TO.C,AT5*%
X181621000Y-106153200D02*
G75*
G03*
X181621000Y-106153200I-125000J0D01*
G01*
D13*
%TO.C,U8*%
X173923800Y-102562000D02*
X172633800Y-102562000D01*
X173278800Y-104702000D02*
X172633800Y-104702000D01*
D15*
%TO.C,IC5*%
X161357000Y-110890000D02*
X161357000Y-110890000D01*
X161257000Y-110890000D02*
X161257000Y-110890000D01*
X161257000Y-110890000D02*
G75*
G03*
X161357000Y-110890000I50000J0D01*
G01*
X161357000Y-110890000D02*
G75*
G03*
X161257000Y-110890000I-50000J0D01*
G01*
D13*
%TO.C,C13*%
X117118400Y-104598441D02*
X117118400Y-104291159D01*
X116358400Y-104598441D02*
X116358400Y-104291159D01*
%TO.C,C3*%
X123988300Y-102446858D02*
X123988300Y-101972342D01*
X125033300Y-102446858D02*
X125033300Y-101972342D01*
D10*
%TO.C,IC6*%
X190383600Y-107165200D02*
G75*
G03*
X190383600Y-107165200I-125000J0D01*
G01*
D13*
%TO.C,C19*%
X129249700Y-112335542D02*
X129249700Y-112810058D01*
X128204700Y-112335542D02*
X128204700Y-112810058D01*
%TO.C,C25*%
X118499658Y-110047300D02*
X118025142Y-110047300D01*
X118499658Y-109002300D02*
X118025142Y-109002300D01*
%TO.C,U6*%
X158242000Y-111560000D02*
X157597000Y-111560000D01*
X158887000Y-109420000D02*
X157597000Y-109420000D01*
%TO.C,C48*%
X111421142Y-108472500D02*
X111895658Y-108472500D01*
X111421142Y-107427500D02*
X111895658Y-107427500D01*
%TO.C,C6*%
X120105700Y-103107258D02*
X120105700Y-102632742D01*
X119060700Y-103107258D02*
X119060700Y-102632742D01*
D15*
%TO.C,IC9*%
X95201000Y-133506000D02*
X95201000Y-133506000D01*
X95301000Y-133506000D02*
X95301000Y-133506000D01*
X95301000Y-133506000D02*
G75*
G03*
X95201000Y-133506000I-50000J0D01*
G01*
X95201000Y-133506000D02*
G75*
G03*
X95301000Y-133506000I50000J0D01*
G01*
%TO.C,IC4*%
X161357000Y-107791200D02*
X161357000Y-107791200D01*
X161257000Y-107791200D02*
X161257000Y-107791200D01*
X161357000Y-107791200D02*
G75*
G03*
X161257000Y-107791200I-50000J0D01*
G01*
X161257000Y-107791200D02*
G75*
G03*
X161357000Y-107791200I50000J0D01*
G01*
D13*
%TO.C,C11*%
X119838441Y-105282000D02*
X119531159Y-105282000D01*
X119838441Y-104522000D02*
X119531159Y-104522000D01*
%TO.C,C8*%
X119838441Y-106960400D02*
X119531159Y-106960400D01*
X119838441Y-107720400D02*
X119531159Y-107720400D01*
%TO.C,R2*%
X117958841Y-105538000D02*
X117651559Y-105538000D01*
X117958841Y-106298000D02*
X117651559Y-106298000D01*
%TO.C,J4*%
X126726000Y-143576600D02*
X126726000Y-146236600D01*
X129326000Y-144906600D02*
X129326000Y-146236600D01*
X129326000Y-146236600D02*
X127996000Y-146236600D01*
X124126000Y-143576600D02*
X124126000Y-146236600D01*
X126726000Y-143576600D02*
X124126000Y-143576600D01*
X126726000Y-146236600D02*
X124126000Y-146236600D01*
D15*
%TO.C,IC3*%
X148274000Y-107689600D02*
X148274000Y-107689600D01*
X148374000Y-107689600D02*
X148374000Y-107689600D01*
X148374000Y-107689600D02*
G75*
G03*
X148274000Y-107689600I-50000J0D01*
G01*
X148274000Y-107689600D02*
G75*
G03*
X148374000Y-107689600I50000J0D01*
G01*
D13*
%TO.C,R7*%
X157088100Y-110201942D02*
X157088100Y-110676458D01*
X156043100Y-110201942D02*
X156043100Y-110676458D01*
%TO.C,C49*%
X118815000Y-114199641D02*
X118815000Y-113892359D01*
X119575000Y-114199641D02*
X119575000Y-113892359D01*
%TO.C,U11*%
X138750200Y-124128400D02*
X138750200Y-142368400D01*
X113005200Y-124128400D02*
X113005200Y-125128400D01*
X138750200Y-142368400D02*
X132330200Y-142368400D01*
X113785200Y-142368400D02*
X113005200Y-142368400D01*
X132330200Y-124128400D02*
X132330200Y-123748400D01*
X113005200Y-142368400D02*
X113005200Y-141368400D01*
X113785200Y-124128400D02*
X113005200Y-124128400D01*
X138750200Y-124128400D02*
X132330200Y-124128400D01*
%TO.C,C47*%
X91251300Y-122411258D02*
X91251300Y-121936742D01*
X90206300Y-122411258D02*
X90206300Y-121936742D01*
D15*
%TO.C,FL1*%
X132126800Y-107531000D02*
X132126800Y-107531000D01*
X132126800Y-107431000D02*
X132126800Y-107431000D01*
X132126800Y-107531000D02*
G75*
G03*
X132126800Y-107431000I0J50000D01*
G01*
X132126800Y-107431000D02*
G75*
G03*
X132126800Y-107531000I0J-50000D01*
G01*
D13*
%TO.C,C5*%
X127176800Y-102614759D02*
X127176800Y-102922041D01*
X126416800Y-102614759D02*
X126416800Y-102922041D01*
%TO.C,C17*%
X119414058Y-111520500D02*
X118939542Y-111520500D01*
X119414058Y-110475500D02*
X118939542Y-110475500D01*
%TO.C,R8*%
X156043100Y-107204742D02*
X156043100Y-107679258D01*
X157088100Y-107204742D02*
X157088100Y-107679258D01*
%TO.C,C21*%
X124020000Y-112114359D02*
X124020000Y-112421641D01*
X123260000Y-112114359D02*
X123260000Y-112421641D01*
%TO.C,C4*%
X122911600Y-102665559D02*
X122911600Y-102972841D01*
X123671600Y-102665559D02*
X123671600Y-102972841D01*
%TO.C,C40*%
X188707500Y-111895658D02*
X188707500Y-111421142D01*
X189752500Y-111895658D02*
X189752500Y-111421142D01*
D14*
%TO.C,J3*%
X77910000Y-141900000D02*
X77910000Y-141900000D01*
D15*
X67710000Y-130100000D02*
X67710000Y-140200000D01*
D14*
X78110000Y-141900000D02*
X78110000Y-141900000D01*
D15*
X68710000Y-130100000D02*
X67710000Y-130100000D01*
X67710000Y-140200000D02*
X68710000Y-140200000D01*
D14*
X77910000Y-141900000D02*
G75*
G03*
X78110000Y-141900000I100000J0D01*
G01*
X78110000Y-141900000D02*
G75*
G03*
X77910000Y-141900000I-100000J0D01*
G01*
D13*
%TO.C,C24*%
X129251942Y-105678500D02*
X129726458Y-105678500D01*
X129251942Y-104633500D02*
X129726458Y-104633500D01*
%TO.C,R13*%
X199109359Y-94995000D02*
X199416641Y-94995000D01*
X199109359Y-94235000D02*
X199416641Y-94235000D01*
%TO.C,C45*%
X89749100Y-109304858D02*
X89749100Y-108830342D01*
X90794100Y-109304858D02*
X90794100Y-108830342D01*
D10*
%TO.C,AT2*%
X165669800Y-114890800D02*
G75*
G03*
X165669800Y-114890800I-125000J0D01*
G01*
D13*
%TO.C,U1*%
X134787800Y-109172400D02*
X136077800Y-109172400D01*
X135432800Y-107032400D02*
X136077800Y-107032400D01*
%TO.C,U9*%
X173923800Y-113179200D02*
X172633800Y-113179200D01*
X173278800Y-115319200D02*
X172633800Y-115319200D01*
%TO.C,U10*%
X178003200Y-110010600D02*
X177358200Y-110010600D01*
X178648200Y-107870600D02*
X177358200Y-107870600D01*
D14*
%TO.C,IC8*%
X96027500Y-114320000D02*
X96027500Y-104120000D01*
D16*
X92190500Y-105620000D02*
X92190500Y-105620000D01*
X92065500Y-105620000D02*
X92065500Y-105620000D01*
D14*
X96027500Y-104120000D02*
X99027500Y-104120000D01*
X99027500Y-114320000D02*
X96027500Y-114320000D01*
D16*
X92065500Y-105620000D02*
G75*
G03*
X92190500Y-105619000I62500J500D01*
G01*
X92190500Y-105620000D02*
G75*
G03*
X92065500Y-105619000I-62500J500D01*
G01*
%TD*%
M02*
