%TF.GenerationSoftware,KiCad,Pcbnew,(6.0.9)*%
%TF.CreationDate,2022-11-10T01:17:40-05:00*%
%TF.ProjectId,5GHzPhaseShifter,3547487a-5068-4617-9365-536869667465,rev?*%
%TF.SameCoordinates,Original*%
%TF.FileFunction,Copper,L1,Top*%
%TF.FilePolarity,Positive*%
%FSLAX46Y46*%
G04 Gerber Fmt 4.6, Leading zero omitted, Abs format (unit mm)*
G04 Created by KiCad (PCBNEW (6.0.9)) date 2022-11-10 01:17:40*
%MOMM*%
%LPD*%
G01*
G04 APERTURE LIST*
G04 Aperture macros list*
%AMRoundRect*
0 Rectangle with rounded corners*
0 $1 Rounding radius*
0 $2 $3 $4 $5 $6 $7 $8 $9 X,Y pos of 4 corners*
0 Add a 4 corners polygon primitive as box body*
4,1,4,$2,$3,$4,$5,$6,$7,$8,$9,$2,$3,0*
0 Add four circle primitives for the rounded corners*
1,1,$1+$1,$2,$3*
1,1,$1+$1,$4,$5*
1,1,$1+$1,$6,$7*
1,1,$1+$1,$8,$9*
0 Add four rect primitives between the rounded corners*
20,1,$1+$1,$2,$3,$4,$5,0*
20,1,$1+$1,$4,$5,$6,$7,0*
20,1,$1+$1,$6,$7,$8,$9,0*
20,1,$1+$1,$8,$9,$2,$3,0*%
%AMFreePoly0*
4,1,38,2.141972,2.141972,2.163500,2.090000,2.147795,1.829795,2.100910,1.573368,2.023525,1.324442,1.916762,1.086629,1.782173,0.863383,1.621711,0.657944,1.437706,0.473296,1.232828,0.312118,1.010053,0.176751,0.772615,0.069159,0.523960,-0.009095,0.267698,-0.056874,0.073500,-0.069275,0.073500,-0.073500,-0.073500,-0.073500,-0.073500,0.073500,0.007005,0.073500,0.007036,0.073513,
0.007068,0.073500,0.069669,0.073500,0.270178,0.087316,0.528702,0.139560,0.778220,0.225030,1.014482,0.342268,1.233462,0.489278,1.431431,0.663555,1.605017,0.862131,1.751261,1.081623,1.867674,1.318292,1.952273,1.568107,2.003615,1.826812,2.020237,2.080978,2.016500,2.090000,2.038028,2.141972,2.090000,2.163500,2.141972,2.141972,2.141972,2.141972,$1*%
%AMFreePoly1*
4,1,38,2.138326,2.141969,2.159854,2.089997,2.144149,1.829792,2.097264,1.573365,2.019879,1.324439,1.913116,1.086626,1.778527,0.863380,1.618065,0.657941,1.434060,0.473293,1.229182,0.312115,1.006407,0.176748,0.768969,0.069156,0.520314,-0.009098,0.264052,-0.056877,0.073500,-0.069046,0.073500,-0.073500,-0.073500,-0.073500,-0.073500,0.073500,0.003366,0.073500,0.003390,0.073510,
0.003414,0.073500,0.066066,0.073500,0.266532,0.087313,0.525056,0.139557,0.774574,0.225027,1.010836,0.342265,1.229816,0.489275,1.427785,0.663552,1.601371,0.862128,1.747615,1.081620,1.864028,1.318289,1.948627,1.568104,1.999969,1.826809,2.016591,2.080975,2.012854,2.089997,2.034382,2.141969,2.086354,2.163497,2.138326,2.141969,2.138326,2.141969,$1*%
%AMFreePoly2*
4,1,28,1.096848,1.102096,1.118500,1.050175,1.101933,0.855475,1.051809,0.666610,0.969651,0.489318,0.857955,0.328985,0.720114,0.190485,0.560316,0.078024,0.383418,-0.004979,0.194794,-0.056004,0.073500,-0.066908,0.073500,-0.073500,-0.073500,-0.073500,-0.073500,0.073500,0.041219,0.073500,0.169577,0.085039,0.334093,0.129542,0.488381,0.201936,0.627754,0.300023,0.747977,0.420821,
0.845397,0.560661,0.917055,0.715293,0.960772,0.880019,0.974589,1.042417,0.971500,1.049825,0.992904,1.101848,1.044825,1.123500,1.096848,1.102096,1.096848,1.102096,$1*%
G04 Aperture macros list end*
%TA.AperFunction,EtchedComponent*%
%ADD10C,0.147000*%
%TD*%
%TA.AperFunction,SMDPad,CuDef*%
%ADD11RoundRect,0.200000X0.275000X-0.200000X0.275000X0.200000X-0.275000X0.200000X-0.275000X-0.200000X0*%
%TD*%
%TA.AperFunction,SMDPad,CuDef*%
%ADD12RoundRect,0.135000X0.185000X-0.135000X0.185000X0.135000X-0.185000X0.135000X-0.185000X-0.135000X0*%
%TD*%
%TA.AperFunction,SMDPad,CuDef*%
%ADD13RoundRect,0.135000X0.135000X0.185000X-0.135000X0.185000X-0.135000X-0.185000X0.135000X-0.185000X0*%
%TD*%
%TA.AperFunction,SMDPad,CuDef*%
%ADD14R,2.160000X1.070000*%
%TD*%
%TA.AperFunction,SMDPad,CuDef*%
%ADD15R,7.000000X8.330000*%
%TD*%
%TA.AperFunction,SMDPad,CuDef*%
%ADD16R,1.910000X1.235000*%
%TD*%
%TA.AperFunction,SMDPad,CuDef*%
%ADD17RoundRect,0.135000X-0.135000X-0.185000X0.135000X-0.185000X0.135000X0.185000X-0.135000X0.185000X0*%
%TD*%
%TA.AperFunction,SMDPad,CuDef*%
%ADD18FreePoly0,180.000000*%
%TD*%
%TA.AperFunction,SMDPad,CuDef*%
%ADD19FreePoly1,90.000000*%
%TD*%
%TA.AperFunction,SMDPad,CuDef*%
%ADD20R,0.800000X0.300000*%
%TD*%
%TA.AperFunction,SMDPad,CuDef*%
%ADD21R,0.300000X0.800000*%
%TD*%
%TA.AperFunction,SMDPad,CuDef*%
%ADD22R,2.750000X2.750000*%
%TD*%
%TA.AperFunction,SMDPad,CuDef*%
%ADD23R,0.330000X0.410000*%
%TD*%
%TA.AperFunction,SMDPad,CuDef*%
%ADD24R,1.600000X1.600000*%
%TD*%
%TA.AperFunction,ComponentPad*%
%ADD25C,1.650000*%
%TD*%
%TA.AperFunction,ComponentPad*%
%ADD26C,2.100000*%
%TD*%
%TA.AperFunction,SMDPad,CuDef*%
%ADD27RoundRect,0.200000X-0.200000X-0.275000X0.200000X-0.275000X0.200000X0.275000X-0.200000X0.275000X0*%
%TD*%
%TA.AperFunction,SMDPad,CuDef*%
%ADD28RoundRect,0.200000X-0.275000X0.200000X-0.275000X-0.200000X0.275000X-0.200000X0.275000X0.200000X0*%
%TD*%
%TA.AperFunction,SMDPad,CuDef*%
%ADD29R,0.300000X1.100000*%
%TD*%
%TA.AperFunction,SMDPad,CuDef*%
%ADD30R,1.100000X0.300000*%
%TD*%
%TA.AperFunction,SMDPad,CuDef*%
%ADD31R,4.250000X4.250000*%
%TD*%
%TA.AperFunction,SMDPad,CuDef*%
%ADD32RoundRect,0.135000X-0.185000X0.135000X-0.185000X-0.135000X0.185000X-0.135000X0.185000X0.135000X0*%
%TD*%
%TA.AperFunction,SMDPad,CuDef*%
%ADD33R,0.250000X0.250000*%
%TD*%
%TA.AperFunction,SMDPad,CuDef*%
%ADD34R,0.950000X0.300000*%
%TD*%
%TA.AperFunction,SMDPad,CuDef*%
%ADD35R,0.300000X0.950000*%
%TD*%
%TA.AperFunction,SMDPad,CuDef*%
%ADD36R,2.500000X2.500000*%
%TD*%
%TA.AperFunction,SMDPad,CuDef*%
%ADD37RoundRect,0.200000X0.200000X0.275000X-0.200000X0.275000X-0.200000X-0.275000X0.200000X-0.275000X0*%
%TD*%
%TA.AperFunction,SMDPad,CuDef*%
%ADD38R,1.370000X1.070000*%
%TD*%
%TA.AperFunction,SMDPad,CuDef*%
%ADD39R,9.000000X10.000000*%
%TD*%
%TA.AperFunction,SMDPad,CuDef*%
%ADD40FreePoly0,0.000000*%
%TD*%
%TA.AperFunction,SMDPad,CuDef*%
%ADD41FreePoly1,270.000000*%
%TD*%
%TA.AperFunction,ComponentPad*%
%ADD42R,1.700000X1.700000*%
%TD*%
%TA.AperFunction,ComponentPad*%
%ADD43O,1.700000X1.700000*%
%TD*%
%TA.AperFunction,SMDPad,CuDef*%
%ADD44FreePoly2,0.000000*%
%TD*%
%TA.AperFunction,SMDPad,CuDef*%
%ADD45FreePoly2,270.000000*%
%TD*%
%TA.AperFunction,SMDPad,CuDef*%
%ADD46R,0.900000X2.000000*%
%TD*%
%TA.AperFunction,SMDPad,CuDef*%
%ADD47R,2.000000X0.900000*%
%TD*%
%TA.AperFunction,SMDPad,CuDef*%
%ADD48R,5.000000X5.000000*%
%TD*%
%TA.AperFunction,SMDPad,CuDef*%
%ADD49R,0.300000X0.350000*%
%TD*%
%TA.AperFunction,ComponentPad*%
%ADD50C,3.200000*%
%TD*%
%TA.AperFunction,ComponentPad*%
%ADD51C,3.653000*%
%TD*%
%TA.AperFunction,SMDPad,CuDef*%
%ADD52R,3.500000X1.600000*%
%TD*%
%TA.AperFunction,SMDPad,CuDef*%
%ADD53R,9.750000X12.200000*%
%TD*%
%TA.AperFunction,ViaPad*%
%ADD54C,0.460000*%
%TD*%
%TA.AperFunction,Conductor*%
%ADD55C,0.147000*%
%TD*%
%TA.AperFunction,Conductor*%
%ADD56C,0.100000*%
%TD*%
%TA.AperFunction,Conductor*%
%ADD57C,0.300000*%
%TD*%
%TA.AperFunction,Conductor*%
%ADD58C,2.000000*%
%TD*%
%TA.AperFunction,Conductor*%
%ADD59C,0.500000*%
%TD*%
%TA.AperFunction,Conductor*%
%ADD60C,1.000000*%
%TD*%
%TA.AperFunction,Conductor*%
%ADD61C,0.200000*%
%TD*%
G04 APERTURE END LIST*
D10*
%TO.C,U4*%
X154548000Y-113233200D02*
X154548000Y-115323200D01*
X150368000Y-115323200D02*
X150368000Y-113233200D01*
X150368000Y-115323200D02*
G75*
G03*
X154548000Y-115323200I2090000J0D01*
G01*
%TO.C,U5*%
X154584400Y-102550800D02*
X154584400Y-104640800D01*
X150404400Y-104640800D02*
X150404400Y-102550800D01*
X154584400Y-102550800D02*
G75*
G03*
X150404400Y-102550800I-2090000J0D01*
G01*
%TO.C,U3*%
X144816200Y-107052400D02*
X144816200Y-106007400D01*
X142726200Y-107052400D02*
X142726200Y-106007400D01*
X144816200Y-106007400D02*
G75*
G03*
X142726200Y-106007400I-1045000J0D01*
G01*
%TD*%
D11*
%TO.P,R6,1*%
%TO.N,Net-(IC2-Pad5)*%
X140868400Y-109740200D03*
%TO.P,R6,2*%
%TO.N,Net-(R6-Pad2)*%
X140868400Y-108090200D03*
%TD*%
D12*
%TO.P,C22,1*%
%TO.N,/REFCLK_N*%
X122370000Y-112778000D03*
%TO.P,C22,2*%
%TO.N,Net-(C22-Pad2)*%
X122370000Y-111758000D03*
%TD*%
D13*
%TO.P,C42,1*%
%TO.N,Net-(C42-Pad1)*%
X197106000Y-108915200D03*
%TO.P,C42,2*%
%TO.N,Net-(C42-Pad2)*%
X196086000Y-108915200D03*
%TD*%
D11*
%TO.P,C41,1*%
%TO.N,GND*%
X187706000Y-112534200D03*
%TO.P,C41,2*%
%TO.N,/3V3*%
X187706000Y-110884200D03*
%TD*%
D14*
%TO.P,IC7,1,ADJ/GND*%
%TO.N,GND*%
X92971000Y-119380000D03*
%TO.P,IC7,2,OUTPUT*%
%TO.N,/5V*%
X92971000Y-121920000D03*
%TO.P,IC7,3,INPUT*%
%TO.N,/12V*%
X92971000Y-124460000D03*
D15*
%TO.P,IC7,4,TAB_(VOUT)*%
%TO.N,/5V*%
X103641000Y-121920000D03*
D16*
%TO.P,IC7,5*%
%TO.N,N/C*%
X106186000Y-126702500D03*
%TO.P,IC7,6*%
X106186000Y-117137500D03*
%TD*%
D17*
%TO.P,R12,1*%
%TO.N,Net-(C42-Pad1)*%
X198676800Y-108915200D03*
%TO.P,R12,2*%
%TO.N,Net-(J1-Pad1)*%
X199696800Y-108915200D03*
%TD*%
D18*
%TO.P,U4,1*%
%TO.N,Net-(R7-Pad2)*%
X156638000Y-111143200D03*
D19*
%TO.P,U4,2*%
%TO.N,Net-(IC2-Pad1)*%
X150368000Y-113233200D03*
%TD*%
D12*
%TO.P,C12,1*%
%TO.N,Net-(C12-Pad1)*%
X117754400Y-104954800D03*
%TO.P,C12,2*%
%TO.N,GND*%
X117754400Y-103934800D03*
%TD*%
D20*
%TO.P,AT3,1,C0.25*%
%TO.N,GND*%
X165944800Y-105023600D03*
%TO.P,AT3,2,VDD*%
%TO.N,/3V3*%
X165944800Y-105523600D03*
%TO.P,AT3,3,PBAR/S*%
X165944800Y-106023600D03*
%TO.P,AT3,4,GND_1*%
%TO.N,GND*%
X165944800Y-106523600D03*
%TO.P,AT3,5,RFIN*%
%TO.N,Net-(AT3-Pad5)*%
X165944800Y-107023600D03*
%TO.P,AT3,6,GND_2*%
%TO.N,GND*%
X165944800Y-107523600D03*
D21*
%TO.P,AT3,7,GND_3*%
X166694800Y-108273600D03*
%TO.P,AT3,8,GND_4*%
X167194800Y-108273600D03*
%TO.P,AT3,9,GND_5*%
X167694800Y-108273600D03*
%TO.P,AT3,10,GND_6*%
X168194800Y-108273600D03*
%TO.P,AT3,11,GND_7*%
X168694800Y-108273600D03*
%TO.P,AT3,12,GND_8*%
X169194800Y-108273600D03*
D20*
%TO.P,AT3,13,GND_9*%
X169944800Y-107523600D03*
%TO.P,AT3,14,RFOUT*%
%TO.N,Net-(AT3-Pad14)*%
X169944800Y-107023600D03*
%TO.P,AT3,15,GND_10*%
%TO.N,GND*%
X169944800Y-106523600D03*
%TO.P,AT3,16,LE*%
%TO.N,/LE2*%
X169944800Y-106023600D03*
%TO.P,AT3,17,CLK*%
%TO.N,/SCLK*%
X169944800Y-105523600D03*
%TO.P,AT3,18,SI*%
%TO.N,/MOSI*%
X169944800Y-105023600D03*
D21*
%TO.P,AT3,19,C16*%
%TO.N,GND*%
X169194800Y-104273600D03*
%TO.P,AT3,20,C8*%
X168694800Y-104273600D03*
%TO.P,AT3,21,C4*%
X168194800Y-104273600D03*
%TO.P,AT3,22,C2*%
X167694800Y-104273600D03*
%TO.P,AT3,23,C1*%
X167194800Y-104273600D03*
%TO.P,AT3,24,C0.5*%
X166694800Y-104273600D03*
D22*
%TO.P,AT3,25,EP*%
X167944800Y-106273600D03*
%TD*%
D23*
%TO.P,U7,2,Input*%
%TO.N,Net-(IC4-Pad5)*%
X158737000Y-107391200D03*
%TO.P,U7,4,Output1*%
%TO.N,Net-(U5-Pad2)*%
X157747000Y-106741200D03*
%TO.P,U7,5,GND*%
%TO.N,GND*%
X157747000Y-107391200D03*
X158737000Y-108041200D03*
X158737000Y-106741200D03*
%TO.P,U7,6,Output2*%
%TO.N,Net-(IC3-Pad1)*%
X157747000Y-108041200D03*
%TD*%
D11*
%TO.P,C1,1*%
%TO.N,Net-(C1-Pad1)*%
X122021600Y-103085400D03*
%TO.P,C1,2*%
%TO.N,GND*%
X122021600Y-101435400D03*
%TD*%
D24*
%TO.P,Y1,1,VC/OE/~{ST}*%
%TO.N,/REF_EN*%
X119195000Y-119883000D03*
%TO.P,Y1,2,NC*%
%TO.N,unconnected-(Y1-Pad2)*%
X121735000Y-119883000D03*
%TO.P,Y1,3,GND*%
%TO.N,GND*%
X124275000Y-119883000D03*
%TO.P,Y1,4,OUT+*%
%TO.N,/REFCLK_P*%
X124275000Y-116083000D03*
%TO.P,Y1,5,OUT-*%
%TO.N,/REFCLK_N*%
X121735000Y-116083000D03*
%TO.P,Y1,6,VDD*%
%TO.N,/3V3*%
X119195000Y-116083000D03*
%TD*%
D25*
%TO.P,J2,1,1*%
%TO.N,Net-(J2-Pad1)*%
X207695800Y-94615000D03*
D26*
%TO.P,J2,2,2*%
%TO.N,GND*%
X202645800Y-99665000D03*
%TO.P,J2,3,3*%
X202645800Y-89565000D03*
%TO.P,J2,4,4*%
X212745800Y-99665000D03*
%TO.P,J2,5,5*%
X212745800Y-89565000D03*
%TD*%
D11*
%TO.P,R9,1*%
%TO.N,Net-(AT3-Pad14)*%
X171602400Y-104457000D03*
%TO.P,R9,2*%
%TO.N,Net-(R9-Pad2)*%
X171602400Y-102807000D03*
%TD*%
D20*
%TO.P,AT1,1,C0.25*%
%TO.N,GND*%
X165944800Y-110357600D03*
%TO.P,AT1,2,VDD*%
%TO.N,/3V3*%
X165944800Y-110857600D03*
%TO.P,AT1,3,PBAR/S*%
X165944800Y-111357600D03*
%TO.P,AT1,4,GND_1*%
%TO.N,GND*%
X165944800Y-111857600D03*
%TO.P,AT1,5,RFIN*%
%TO.N,Net-(AT1-Pad5)*%
X165944800Y-112357600D03*
%TO.P,AT1,6,GND_2*%
%TO.N,GND*%
X165944800Y-112857600D03*
D21*
%TO.P,AT1,7,GND_3*%
X166694800Y-113607600D03*
%TO.P,AT1,8,GND_4*%
X167194800Y-113607600D03*
%TO.P,AT1,9,GND_5*%
X167694800Y-113607600D03*
%TO.P,AT1,10,GND_6*%
X168194800Y-113607600D03*
%TO.P,AT1,11,GND_7*%
X168694800Y-113607600D03*
%TO.P,AT1,12,GND_8*%
X169194800Y-113607600D03*
D20*
%TO.P,AT1,13,GND_9*%
X169944800Y-112857600D03*
%TO.P,AT1,14,RFOUT*%
%TO.N,Net-(R10-Pad2)*%
X169944800Y-112357600D03*
%TO.P,AT1,15,GND_10*%
%TO.N,GND*%
X169944800Y-111857600D03*
%TO.P,AT1,16,LE*%
%TO.N,/LE*%
X169944800Y-111357600D03*
%TO.P,AT1,17,CLK*%
%TO.N,/SCLK*%
X169944800Y-110857600D03*
%TO.P,AT1,18,SI*%
%TO.N,/MOSI*%
X169944800Y-110357600D03*
D21*
%TO.P,AT1,19,C16*%
%TO.N,GND*%
X169194800Y-109607600D03*
%TO.P,AT1,20,C8*%
X168694800Y-109607600D03*
%TO.P,AT1,21,C4*%
X168194800Y-109607600D03*
%TO.P,AT1,22,C2*%
X167694800Y-109607600D03*
%TO.P,AT1,23,C1*%
X167194800Y-109607600D03*
%TO.P,AT1,24,C0.5*%
X166694800Y-109607600D03*
D22*
%TO.P,AT1,25,EP*%
X167944800Y-111607600D03*
%TD*%
D12*
%TO.P,C2,1*%
%TO.N,Net-(C2-Pad1)*%
X125780800Y-103278400D03*
%TO.P,C2,2*%
%TO.N,GND*%
X125780800Y-102258400D03*
%TD*%
%TO.P,R3,1*%
%TO.N,Net-(C10-Pad1)*%
X115366800Y-104954800D03*
%TO.P,R3,2*%
%TO.N,GND*%
X115366800Y-103934800D03*
%TD*%
D13*
%TO.P,C37,1*%
%TO.N,Net-(AT5-Pad5)*%
X180545200Y-108915200D03*
%TO.P,C37,2*%
%TO.N,Net-(C37-Pad2)*%
X179525200Y-108915200D03*
%TD*%
D27*
%TO.P,C43,1*%
%TO.N,/5V*%
X108102400Y-121920000D03*
%TO.P,C43,2*%
%TO.N,GND*%
X109752400Y-121920000D03*
%TD*%
D11*
%TO.P,R10,1*%
%TO.N,Net-(R10-Pad1)*%
X171602400Y-115074200D03*
%TO.P,R10,2*%
%TO.N,Net-(R10-Pad2)*%
X171602400Y-113424200D03*
%TD*%
D28*
%TO.P,C44,1*%
%TO.N,/1V8*%
X93878400Y-138976600D03*
%TO.P,C44,2*%
%TO.N,GND*%
X93878400Y-140626600D03*
%TD*%
D17*
%TO.P,C10,1*%
%TO.N,Net-(C10-Pad1)*%
X115364800Y-105918000D03*
%TO.P,C10,2*%
%TO.N,Net-(C10-Pad2)*%
X116384800Y-105918000D03*
%TD*%
D23*
%TO.P,U2,2,Input*%
%TO.N,/5.0625_SPLIT1*%
X138646200Y-108915200D03*
%TO.P,U2,4,Output1*%
%TO.N,Net-(IC2-Pad5)*%
X139636200Y-109565200D03*
%TO.P,U2,5,GND*%
%TO.N,GND*%
X138646200Y-108265200D03*
X139636200Y-108915200D03*
X138646200Y-109565200D03*
%TO.P,U2,6,Output2*%
%TO.N,Net-(R6-Pad2)*%
X139636200Y-108265200D03*
%TD*%
D11*
%TO.P,R11,1*%
%TO.N,Net-(R11-Pad1)*%
X176326800Y-109765600D03*
%TO.P,R11,2*%
%TO.N,Net-(R11-Pad2)*%
X176326800Y-108115600D03*
%TD*%
D13*
%TO.P,C38,1*%
%TO.N,Net-(C38-Pad1)*%
X189384400Y-108915200D03*
%TO.P,C38,2*%
%TO.N,Net-(AT5-Pad14)*%
X188364400Y-108915200D03*
%TD*%
D29*
%TO.P,IC1,1,CBYP_4V5*%
%TO.N,Net-(C5-Pad2)*%
X126333000Y-104592000D03*
%TO.P,IC1,2,VREG_4V5*%
%TO.N,Net-(C2-Pad1)*%
X125833000Y-104592000D03*
%TO.P,IC1,3,VCC_VCO_CORE*%
X125333000Y-104592000D03*
%TO.P,IC1,4,HW_PD*%
%TO.N,GND*%
X124833000Y-104592000D03*
%TO.P,IC1,5,PDRF1*%
X124333000Y-104592000D03*
%TO.P,IC1,6,PDRF2/FL_SW*%
X123833000Y-104592000D03*
%TO.P,IC1,7,CBYP*%
%TO.N,Net-(C4-Pad2)*%
X123333000Y-104592000D03*
%TO.P,IC1,8,VREG_VCO*%
%TO.N,Net-(C1-Pad1)*%
X122833000Y-104592000D03*
%TO.P,IC1,9,VIN_LDO_VCO*%
%TO.N,/5V*%
X122333000Y-104592000D03*
D30*
%TO.P,IC1,10,VR*%
%TO.N,Net-(C6-Pad1)*%
X121483000Y-105442000D03*
%TO.P,IC1,11,VCTRL*%
%TO.N,Net-(C11-Pad1)*%
X121483000Y-105942000D03*
%TO.P,IC1,12,EXTVCO_INP*%
%TO.N,GND*%
X121483000Y-106442000D03*
%TO.P,IC1,13,EXTVCO_INN*%
X121483000Y-106942000D03*
%TO.P,IC1,14,VDD_CP*%
%TO.N,Net-(C1-Pad1)*%
X121483000Y-107442000D03*
%TO.P,IC1,15,ICP*%
%TO.N,Net-(C10-Pad2)*%
X121483000Y-107942000D03*
%TO.P,IC1,16,VCC_CPOUT*%
%TO.N,Net-(C2-Pad1)*%
X121483000Y-108442000D03*
%TO.P,IC1,17,VDD_PFD*%
%TO.N,Net-(C17-Pad1)*%
X121483000Y-108942000D03*
%TO.P,IC1,18,VIN_LDO_REF*%
%TO.N,/5V*%
X121483000Y-109442000D03*
D29*
%TO.P,IC1,19,VREG_REF*%
%TO.N,Net-(C17-Pad1)*%
X122333000Y-110292000D03*
%TO.P,IC1,20,REF_CLKN*%
%TO.N,Net-(C22-Pad2)*%
X122833000Y-110292000D03*
%TO.P,IC1,21,REF_CLKP*%
%TO.N,Net-(C21-Pad1)*%
X123333000Y-110292000D03*
%TO.P,IC1,22,LD_SDO*%
%TO.N,unconnected-(IC1-Pad22)*%
X123833000Y-110292000D03*
%TO.P,IC1,23,SDI*%
%TO.N,/MOSI*%
X124333000Y-110292000D03*
%TO.P,IC1,24,SCK*%
%TO.N,/SCLK*%
X124833000Y-110292000D03*
%TO.P,IC1,25,LE*%
%TO.N,/LE_PLL*%
X125333000Y-110292000D03*
%TO.P,IC1,26,VDD_DSM_NDIV*%
%TO.N,Net-(C18-Pad1)*%
X125833000Y-110292000D03*
%TO.P,IC1,27,VREG_DIG*%
X126333000Y-110292000D03*
D30*
%TO.P,IC1,28,VIN_LDO_RF_DIG*%
%TO.N,/5V*%
X127183000Y-109442000D03*
%TO.P,IC1,29,VREG_RF*%
%TO.N,Net-(C16-Pad1)*%
X127183000Y-108942000D03*
%TO.P,IC1,30,RF1_OUTN*%
%TO.N,Net-(C15-Pad1)*%
X127183000Y-108442000D03*
%TO.P,IC1,31,RF1_OUTP*%
%TO.N,Net-(C14-Pad1)*%
X127183000Y-107942000D03*
%TO.P,IC1,32,VCC_RFOUT*%
%TO.N,Net-(C2-Pad1)*%
X127183000Y-107442000D03*
%TO.P,IC1,33,RF2_OUTN*%
%TO.N,GND*%
X127183000Y-106942000D03*
%TO.P,IC1,34,RF2_OUTP*%
X127183000Y-106442000D03*
%TO.P,IC1,35,TEST_SE*%
X127183000Y-105942000D03*
%TO.P,IC1,36,VIN_LDO_4V5*%
%TO.N,/5V*%
X127183000Y-105442000D03*
D31*
%TO.P,IC1,37,EP*%
%TO.N,GND*%
X124333000Y-107442000D03*
%TD*%
D13*
%TO.P,R1,1*%
%TO.N,Net-(C11-Pad1)*%
X120194800Y-105918000D03*
%TO.P,R1,2*%
%TO.N,Net-(C12-Pad1)*%
X119174800Y-105918000D03*
%TD*%
D11*
%TO.P,R5,1*%
%TO.N,/5.0625_SPLIT1*%
X137160000Y-108927400D03*
%TO.P,R5,2*%
%TO.N,/5.0625_REF*%
X137160000Y-107277400D03*
%TD*%
D27*
%TO.P,C16,1*%
%TO.N,Net-(C16-Pad1)*%
X128664200Y-110337600D03*
%TO.P,C16,2*%
%TO.N,GND*%
X130314200Y-110337600D03*
%TD*%
D13*
%TO.P,C26,1*%
%TO.N,/5.0625GHz*%
X134056000Y-108077000D03*
%TO.P,C26,2*%
%TO.N,Net-(C26-Pad2)*%
X133036000Y-108077000D03*
%TD*%
D32*
%TO.P,C18,1*%
%TO.N,Net-(C18-Pad1)*%
X127508000Y-111504000D03*
%TO.P,C18,2*%
%TO.N,GND*%
X127508000Y-112524000D03*
%TD*%
D28*
%TO.P,C23,1*%
%TO.N,Net-(C18-Pad1)*%
X126288800Y-111747800D03*
%TO.P,C23,2*%
%TO.N,GND*%
X126288800Y-113397800D03*
%TD*%
%TO.P,C46,1*%
%TO.N,/12V*%
X93878400Y-135979400D03*
%TO.P,C46,2*%
%TO.N,GND*%
X93878400Y-137629400D03*
%TD*%
D13*
%TO.P,R4,1*%
%TO.N,/REFCLK_P*%
X123515000Y-113792000D03*
%TO.P,R4,2*%
%TO.N,/REFCLK_N*%
X122495000Y-113792000D03*
%TD*%
D17*
%TO.P,C9,1*%
%TO.N,Net-(C2-Pad1)*%
X128420400Y-106781600D03*
%TO.P,C9,2*%
%TO.N,GND*%
X129440400Y-106781600D03*
%TD*%
D12*
%TO.P,C7,1*%
%TO.N,Net-(C6-Pad1)*%
X120802400Y-103329200D03*
%TO.P,C7,2*%
%TO.N,GND*%
X120802400Y-102309200D03*
%TD*%
D20*
%TO.P,AT4,1,GND_1*%
%TO.N,GND*%
X165944800Y-99740400D03*
%TO.P,AT4,2,VDD*%
%TO.N,/3V3*%
X165944800Y-100240400D03*
%TO.P,AT4,3,P/S*%
X165944800Y-100740400D03*
%TO.P,AT4,4,GND_2*%
%TO.N,GND*%
X165944800Y-101240400D03*
%TO.P,AT4,5,RF1*%
%TO.N,Net-(AT4-Pad5)*%
X165944800Y-101740400D03*
%TO.P,AT4,6,GND_3*%
%TO.N,GND*%
X165944800Y-102240400D03*
D21*
%TO.P,AT4,7,GND_4*%
X166694800Y-102990400D03*
%TO.P,AT4,8,GND_5*%
X167194800Y-102990400D03*
%TO.P,AT4,9,GND_6*%
X167694800Y-102990400D03*
%TO.P,AT4,10,GND_7*%
X168194800Y-102990400D03*
%TO.P,AT4,11,GND_8*%
X168694800Y-102990400D03*
%TO.P,AT4,12,GND_9*%
X169194800Y-102990400D03*
D20*
%TO.P,AT4,13,GND_10*%
X169944800Y-102240400D03*
%TO.P,AT4,14,RF2*%
%TO.N,Net-(R9-Pad2)*%
X169944800Y-101740400D03*
%TO.P,AT4,15,GND_11*%
%TO.N,GND*%
X169944800Y-101240400D03*
%TO.P,AT4,16,LE*%
%TO.N,/LE2*%
X169944800Y-100740400D03*
%TO.P,AT4,17,CLK*%
%TO.N,/SCLK*%
X169944800Y-100240400D03*
%TO.P,AT4,18,SI*%
%TO.N,/MOSI*%
X169944800Y-99740400D03*
D21*
%TO.P,AT4,19,GND_12*%
%TO.N,GND*%
X169194800Y-98990400D03*
%TO.P,AT4,20,C8*%
X168694800Y-98990400D03*
%TO.P,AT4,21,C4*%
X168194800Y-98990400D03*
%TO.P,AT4,22,C2*%
X167694800Y-98990400D03*
%TO.P,AT4,23,C1*%
X167194800Y-98990400D03*
%TO.P,AT4,24,C0.5*%
X166694800Y-98990400D03*
D22*
%TO.P,AT4,25,GND_13*%
X167944800Y-100990400D03*
%TD*%
D17*
%TO.P,C15,1*%
%TO.N,Net-(C15-Pad1)*%
X128928400Y-108762800D03*
%TO.P,C15,2*%
%TO.N,Net-(C15-Pad2)*%
X129948400Y-108762800D03*
%TD*%
D12*
%TO.P,C35,1*%
%TO.N,/3V3*%
X180746400Y-107647200D03*
%TO.P,C35,2*%
%TO.N,GND*%
X180746400Y-106627200D03*
%TD*%
D17*
%TO.P,C14,1*%
%TO.N,Net-(C14-Pad1)*%
X128928400Y-107797600D03*
%TO.P,C14,2*%
%TO.N,Net-(C14-Pad2)*%
X129948400Y-107797600D03*
%TD*%
D25*
%TO.P,J1,1,1*%
%TO.N,Net-(J1-Pad1)*%
X207707600Y-108915200D03*
D26*
%TO.P,J1,2,2*%
%TO.N,GND*%
X202657600Y-113965200D03*
%TO.P,J1,3,3*%
X202657600Y-103865200D03*
%TO.P,J1,4,4*%
X212757600Y-113965200D03*
%TO.P,J1,5,5*%
X212757600Y-103865200D03*
%TD*%
D27*
%TO.P,C39,1*%
%TO.N,/3V3*%
X190640200Y-112369600D03*
%TO.P,C39,2*%
%TO.N,GND*%
X192290200Y-112369600D03*
%TD*%
D32*
%TO.P,C20,1*%
%TO.N,Net-(C17-Pad1)*%
X121158000Y-111554800D03*
%TO.P,C20,2*%
%TO.N,GND*%
X121158000Y-112574800D03*
%TD*%
D33*
%TO.P,IC2,1,RF2*%
%TO.N,Net-(IC2-Pad1)*%
X147774000Y-110940800D03*
%TO.P,IC2,2,GND*%
%TO.N,GND*%
X147774000Y-110540800D03*
%TO.P,IC2,3,RF1*%
%TO.N,Net-(IC2-Pad3)*%
X147774000Y-110140800D03*
%TO.P,IC2,4,VDD*%
%TO.N,/1V8*%
X147374000Y-110140800D03*
%TO.P,IC2,5,RFIN*%
%TO.N,Net-(IC2-Pad5)*%
X147374000Y-110540800D03*
%TO.P,IC2,6,CTRL*%
%TO.N,/CTRL_180*%
X147374000Y-110940800D03*
%TD*%
D11*
%TO.P,C36,1*%
%TO.N,/3V3*%
X179527200Y-106946200D03*
%TO.P,C36,2*%
%TO.N,GND*%
X179527200Y-105296200D03*
%TD*%
D20*
%TO.P,AT5,1,C0.25*%
%TO.N,GND*%
X181896000Y-106903200D03*
%TO.P,AT5,2,VDD*%
%TO.N,/3V3*%
X181896000Y-107403200D03*
%TO.P,AT5,3,PBAR/S*%
X181896000Y-107903200D03*
%TO.P,AT5,4,GND_1*%
%TO.N,GND*%
X181896000Y-108403200D03*
%TO.P,AT5,5,RFIN*%
%TO.N,Net-(AT5-Pad5)*%
X181896000Y-108903200D03*
%TO.P,AT5,6,GND_2*%
%TO.N,GND*%
X181896000Y-109403200D03*
D21*
%TO.P,AT5,7,GND_3*%
X182646000Y-110153200D03*
%TO.P,AT5,8,GND_4*%
X183146000Y-110153200D03*
%TO.P,AT5,9,GND_5*%
X183646000Y-110153200D03*
%TO.P,AT5,10,GND_6*%
X184146000Y-110153200D03*
%TO.P,AT5,11,GND_7*%
X184646000Y-110153200D03*
%TO.P,AT5,12,GND_8*%
X185146000Y-110153200D03*
D20*
%TO.P,AT5,13,GND_9*%
X185896000Y-109403200D03*
%TO.P,AT5,14,RFOUT*%
%TO.N,Net-(AT5-Pad14)*%
X185896000Y-108903200D03*
%TO.P,AT5,15,GND_10*%
%TO.N,GND*%
X185896000Y-108403200D03*
%TO.P,AT5,16,LE*%
%TO.N,/LE_FA*%
X185896000Y-107903200D03*
%TO.P,AT5,17,CLK*%
%TO.N,/SCLK*%
X185896000Y-107403200D03*
%TO.P,AT5,18,SI*%
%TO.N,/MOSI*%
X185896000Y-106903200D03*
D21*
%TO.P,AT5,19,C16*%
%TO.N,GND*%
X185146000Y-106153200D03*
%TO.P,AT5,20,C8*%
X184646000Y-106153200D03*
%TO.P,AT5,21,C4*%
X184146000Y-106153200D03*
%TO.P,AT5,22,C2*%
X183646000Y-106153200D03*
%TO.P,AT5,23,C1*%
X183146000Y-106153200D03*
%TO.P,AT5,24,C0.5*%
X182646000Y-106153200D03*
D22*
%TO.P,AT5,25,EP*%
X183896000Y-108153200D03*
%TD*%
D23*
%TO.P,U8,2,Input*%
%TO.N,Net-(R11-Pad2)*%
X173773800Y-103632000D03*
%TO.P,U8,4,Output1*%
%TO.N,Net-(R9-Pad2)*%
X172783800Y-102982000D03*
%TO.P,U8,5,GND*%
%TO.N,GND*%
X172783800Y-103632000D03*
X173773800Y-102982000D03*
X173773800Y-104282000D03*
%TO.P,U8,6,Output2*%
%TO.N,Net-(AT3-Pad14)*%
X172783800Y-104282000D03*
%TD*%
D33*
%TO.P,IC5,1,RF2*%
%TO.N,Net-(AT2-Pad5)*%
X160757000Y-110890000D03*
%TO.P,IC5,2,GND*%
%TO.N,GND*%
X160757000Y-110490000D03*
%TO.P,IC5,3,RF1*%
%TO.N,Net-(AT1-Pad5)*%
X160757000Y-110090000D03*
%TO.P,IC5,4,VDD*%
%TO.N,/1V8*%
X160357000Y-110090000D03*
%TO.P,IC5,5,RFIN*%
%TO.N,Net-(IC5-Pad5)*%
X160357000Y-110490000D03*
%TO.P,IC5,6,CTRL*%
%TO.N,/CTRL_F*%
X160357000Y-110890000D03*
%TD*%
D12*
%TO.P,C13,1*%
%TO.N,Net-(C10-Pad2)*%
X116738400Y-104954800D03*
%TO.P,C13,2*%
%TO.N,GND*%
X116738400Y-103934800D03*
%TD*%
D11*
%TO.P,C3,1*%
%TO.N,Net-(C2-Pad1)*%
X124510800Y-103034600D03*
%TO.P,C3,2*%
%TO.N,GND*%
X124510800Y-101384600D03*
%TD*%
D34*
%TO.P,IC6,1,NC_1*%
%TO.N,GND*%
X190733600Y-107915200D03*
%TO.P,IC6,2,GND_1*%
X190733600Y-108415200D03*
%TO.P,IC6,3,RFIN*%
%TO.N,Net-(C38-Pad1)*%
X190733600Y-108915200D03*
%TO.P,IC6,4,GND_2*%
%TO.N,GND*%
X190733600Y-109415200D03*
%TO.P,IC6,5,PA_EN*%
%TO.N,/3V3*%
X190733600Y-109915200D03*
D35*
%TO.P,IC6,6,NC_2*%
%TO.N,GND*%
X191633600Y-110815200D03*
%TO.P,IC6,7,NC_3*%
X192133600Y-110815200D03*
%TO.P,IC6,8,NC_4*%
X192633600Y-110815200D03*
%TO.P,IC6,9,NC_5*%
X193133600Y-110815200D03*
%TO.P,IC6,10,PDET*%
%TO.N,unconnected-(IC6-Pad10)*%
X193633600Y-110815200D03*
D34*
%TO.P,IC6,11,GND_3*%
%TO.N,GND*%
X194533600Y-109915200D03*
%TO.P,IC6,12,GND_4*%
X194533600Y-109415200D03*
%TO.P,IC6,13,RFOUT*%
%TO.N,Net-(C42-Pad2)*%
X194533600Y-108915200D03*
%TO.P,IC6,14,GND_5*%
%TO.N,GND*%
X194533600Y-108415200D03*
%TO.P,IC6,15,GND_6*%
X194533600Y-107915200D03*
D35*
%TO.P,IC6,16,GND_7*%
X193633600Y-107015200D03*
%TO.P,IC6,17,GND_8*%
X193133600Y-107015200D03*
%TO.P,IC6,18,VCC3*%
%TO.N,/3V3*%
X192633600Y-107015200D03*
%TO.P,IC6,19,VCC2*%
X192133600Y-107015200D03*
%TO.P,IC6,20,VCC1*%
X191633600Y-107015200D03*
D36*
%TO.P,IC6,21,EP*%
%TO.N,GND*%
X192633600Y-108915200D03*
%TD*%
D28*
%TO.P,C19,1*%
%TO.N,Net-(C18-Pad1)*%
X128727200Y-111747800D03*
%TO.P,C19,2*%
%TO.N,GND*%
X128727200Y-113397800D03*
%TD*%
D37*
%TO.P,C25,1*%
%TO.N,/5V*%
X119087400Y-109524800D03*
%TO.P,C25,2*%
%TO.N,GND*%
X117437400Y-109524800D03*
%TD*%
D23*
%TO.P,U6,2,Input*%
%TO.N,Net-(IC5-Pad5)*%
X158737000Y-110490000D03*
%TO.P,U6,4,Output1*%
%TO.N,Net-(IC2-Pad3)*%
X157747000Y-109840000D03*
%TO.P,U6,5,GND*%
%TO.N,GND*%
X158737000Y-109840000D03*
X157747000Y-110490000D03*
X158737000Y-111140000D03*
%TO.P,U6,6,Output2*%
%TO.N,Net-(R7-Pad2)*%
X157747000Y-111140000D03*
%TD*%
D27*
%TO.P,C48,1*%
%TO.N,/3V3*%
X110833400Y-107950000D03*
%TO.P,C48,2*%
%TO.N,GND*%
X112483400Y-107950000D03*
%TD*%
D11*
%TO.P,C6,1*%
%TO.N,Net-(C6-Pad1)*%
X119583200Y-103695000D03*
%TO.P,C6,2*%
%TO.N,GND*%
X119583200Y-102045000D03*
%TD*%
D38*
%TO.P,IC9,1,CTL*%
%TO.N,/12V*%
X96376000Y-133466000D03*
%TO.P,IC9,2,VCC*%
X96376000Y-135186000D03*
%TO.P,IC9,3,N.C./GND*%
%TO.N,GND*%
X96376000Y-136906000D03*
%TO.P,IC9,4,OUT*%
%TO.N,/1V8*%
X96376000Y-138626000D03*
%TO.P,IC9,5,N.C.*%
%TO.N,unconnected-(IC9-Pad5)*%
X96376000Y-140346000D03*
D39*
%TO.P,IC9,6,GND*%
%TO.N,GND*%
X102501000Y-136906000D03*
%TD*%
D33*
%TO.P,IC4,1,RF2*%
%TO.N,Net-(AT3-Pad5)*%
X160757000Y-107791200D03*
%TO.P,IC4,2,GND*%
%TO.N,GND*%
X160757000Y-107391200D03*
%TO.P,IC4,3,RF1*%
%TO.N,Net-(AT4-Pad5)*%
X160757000Y-106991200D03*
%TO.P,IC4,4,VDD*%
%TO.N,/1V8*%
X160357000Y-106991200D03*
%TO.P,IC4,5,RFIN*%
%TO.N,Net-(IC4-Pad5)*%
X160357000Y-107391200D03*
%TO.P,IC4,6,CTRL*%
%TO.N,/CTRL_90F*%
X160357000Y-107791200D03*
%TD*%
D40*
%TO.P,U5,1*%
%TO.N,Net-(IC3-Pad3)*%
X148314400Y-106730800D03*
D41*
%TO.P,U5,2*%
%TO.N,Net-(U5-Pad2)*%
X154584400Y-104640800D03*
%TD*%
D13*
%TO.P,C11,1*%
%TO.N,Net-(C11-Pad1)*%
X120194800Y-104902000D03*
%TO.P,C11,2*%
%TO.N,GND*%
X119174800Y-104902000D03*
%TD*%
%TO.P,C8,1*%
%TO.N,Net-(C1-Pad1)*%
X120194800Y-107340400D03*
%TO.P,C8,2*%
%TO.N,GND*%
X119174800Y-107340400D03*
%TD*%
%TO.P,R2,1*%
%TO.N,Net-(C12-Pad1)*%
X118315200Y-105918000D03*
%TO.P,R2,2*%
%TO.N,Net-(C10-Pad2)*%
X117295200Y-105918000D03*
%TD*%
D42*
%TO.P,J4,1,Pin_1*%
%TO.N,Net-(J4-Pad1)*%
X127996000Y-144906600D03*
D43*
%TO.P,J4,2,Pin_2*%
%TO.N,Net-(J4-Pad2)*%
X125456000Y-144906600D03*
%TD*%
D33*
%TO.P,IC3,1,RF2*%
%TO.N,Net-(IC3-Pad1)*%
X147774000Y-107689600D03*
%TO.P,IC3,2,GND*%
%TO.N,GND*%
X147774000Y-107289600D03*
%TO.P,IC3,3,RF1*%
%TO.N,Net-(IC3-Pad3)*%
X147774000Y-106889600D03*
%TO.P,IC3,4,VDD*%
%TO.N,/1V8*%
X147374000Y-106889600D03*
%TO.P,IC3,5,RFIN*%
%TO.N,Net-(IC3-Pad5)*%
X147374000Y-107289600D03*
%TO.P,IC3,6,CTRL*%
%TO.N,/CTRL_90180*%
X147374000Y-107689600D03*
%TD*%
D44*
%TO.P,U3,1*%
%TO.N,Net-(R6-Pad2)*%
X141681200Y-108102400D03*
D45*
%TO.P,U3,2*%
%TO.N,Net-(IC3-Pad5)*%
X144816200Y-107052400D03*
%TD*%
D28*
%TO.P,R7,1*%
%TO.N,Net-(IC2-Pad3)*%
X156565600Y-109614200D03*
%TO.P,R7,2*%
%TO.N,Net-(R7-Pad2)*%
X156565600Y-111264200D03*
%TD*%
D12*
%TO.P,C49,1*%
%TO.N,/3V3*%
X119195000Y-114556000D03*
%TO.P,C49,2*%
%TO.N,GND*%
X119195000Y-113536000D03*
%TD*%
D46*
%TO.P,U11,1,GND*%
%TO.N,GND*%
X131140200Y-124748400D03*
%TO.P,U11,2,VDD*%
%TO.N,/3V3*%
X129870200Y-124748400D03*
%TO.P,U11,3,EN*%
X128600200Y-124748400D03*
%TO.P,U11,4,SENSOR_VP*%
%TO.N,GND*%
X127330200Y-124748400D03*
%TO.P,U11,5,SENSOR_VN*%
X126060200Y-124748400D03*
%TO.P,U11,6,IO34*%
%TO.N,/CTRL_F*%
X124790200Y-124748400D03*
%TO.P,U11,7,IO35*%
%TO.N,/CTRL_180*%
X123520200Y-124748400D03*
%TO.P,U11,8,IO32*%
%TO.N,/LE*%
X122250200Y-124748400D03*
%TO.P,U11,9,IO33*%
%TO.N,/LE2*%
X120980200Y-124748400D03*
%TO.P,U11,10,IO25*%
%TO.N,/SCLK*%
X119710200Y-124748400D03*
%TO.P,U11,11,IO26*%
%TO.N,/MOSI*%
X118440200Y-124748400D03*
%TO.P,U11,12,IO27*%
%TO.N,/CTRL_90180*%
X117170200Y-124748400D03*
%TO.P,U11,13,IO14*%
%TO.N,unconnected-(U11-Pad13)*%
X115900200Y-124748400D03*
%TO.P,U11,14,IO12*%
%TO.N,unconnected-(U11-Pad14)*%
X114630200Y-124748400D03*
D47*
%TO.P,U11,15,GND*%
%TO.N,GND*%
X113630200Y-127533400D03*
%TO.P,U11,16,IO13*%
%TO.N,unconnected-(U11-Pad16)*%
X113630200Y-128803400D03*
%TO.P,U11,17,SHD/SD2*%
%TO.N,unconnected-(U11-Pad17)*%
X113630200Y-130073400D03*
%TO.P,U11,18,SWP/SD3*%
%TO.N,unconnected-(U11-Pad18)*%
X113630200Y-131343400D03*
%TO.P,U11,19,SCS/CMD*%
%TO.N,unconnected-(U11-Pad19)*%
X113630200Y-132613400D03*
%TO.P,U11,20,SCK/CLK*%
%TO.N,unconnected-(U11-Pad20)*%
X113630200Y-133883400D03*
%TO.P,U11,21,SDO/SD0*%
%TO.N,unconnected-(U11-Pad21)*%
X113630200Y-135153400D03*
%TO.P,U11,22,SDI/SD1*%
%TO.N,unconnected-(U11-Pad22)*%
X113630200Y-136423400D03*
%TO.P,U11,23,IO15*%
%TO.N,unconnected-(U11-Pad23)*%
X113630200Y-137693400D03*
%TO.P,U11,24,IO2*%
%TO.N,unconnected-(U11-Pad24)*%
X113630200Y-138963400D03*
D46*
%TO.P,U11,25,IO0*%
%TO.N,GND*%
X114630200Y-141748400D03*
%TO.P,U11,26,IO4*%
%TO.N,unconnected-(U11-Pad26)*%
X115900200Y-141748400D03*
%TO.P,U11,27,IO16*%
%TO.N,/TX*%
X117170200Y-141748400D03*
%TO.P,U11,28,IO17*%
%TO.N,/RX*%
X118440200Y-141748400D03*
%TO.P,U11,29,IO5*%
%TO.N,unconnected-(U11-Pad29)*%
X119710200Y-141748400D03*
%TO.P,U11,30,IO18*%
%TO.N,unconnected-(U11-Pad30)*%
X120980200Y-141748400D03*
%TO.P,U11,31,IO19*%
%TO.N,/REF_EN*%
X122250200Y-141748400D03*
%TO.P,U11,32,NC*%
%TO.N,unconnected-(U11-Pad32)*%
X123520200Y-141748400D03*
%TO.P,U11,33,IO21*%
%TO.N,/LE_PLL*%
X124790200Y-141748400D03*
%TO.P,U11,34,RXD0/IO3*%
%TO.N,Net-(J4-Pad2)*%
X126060200Y-141748400D03*
%TO.P,U11,35,TXD0/IO1*%
%TO.N,Net-(J4-Pad1)*%
X127330200Y-141748400D03*
%TO.P,U11,36,IO22*%
%TO.N,/LE_FA*%
X128600200Y-141748400D03*
%TO.P,U11,37,IO23*%
%TO.N,/CTRL_90F*%
X129870200Y-141748400D03*
%TO.P,U11,38,GND*%
%TO.N,GND*%
X131140200Y-141748400D03*
D48*
%TO.P,U11,39,GND*%
X123640200Y-132248400D03*
%TD*%
D11*
%TO.P,C47,1*%
%TO.N,/12V*%
X90728800Y-122999000D03*
%TO.P,C47,2*%
%TO.N,GND*%
X90728800Y-121349000D03*
%TD*%
D49*
%TO.P,FL1,1,UNBALANCED_PORT*%
%TO.N,Net-(C26-Pad2)*%
X132126800Y-108056000D03*
%TO.P,FL1,2,BALANCED_PORT_1*%
%TO.N,Net-(C14-Pad2)*%
X131626800Y-108056000D03*
%TO.P,FL1,3,BALANCED_PORT_2*%
%TO.N,Net-(C15-Pad2)*%
X131626800Y-108606000D03*
%TO.P,FL1,4,GND*%
%TO.N,GND*%
X132126800Y-108606000D03*
%TD*%
D32*
%TO.P,C5,1*%
%TO.N,Net-(C2-Pad1)*%
X126796800Y-102258400D03*
%TO.P,C5,2*%
%TO.N,Net-(C5-Pad2)*%
X126796800Y-103278400D03*
%TD*%
D37*
%TO.P,C17,1*%
%TO.N,Net-(C17-Pad1)*%
X120001800Y-110998000D03*
%TO.P,C17,2*%
%TO.N,GND*%
X118351800Y-110998000D03*
%TD*%
D28*
%TO.P,R8,1*%
%TO.N,Net-(U5-Pad2)*%
X156565600Y-106617000D03*
%TO.P,R8,2*%
%TO.N,Net-(IC3-Pad1)*%
X156565600Y-108267000D03*
%TD*%
D32*
%TO.P,C21,1*%
%TO.N,Net-(C21-Pad1)*%
X123640000Y-111758000D03*
%TO.P,C21,2*%
%TO.N,/REFCLK_P*%
X123640000Y-112778000D03*
%TD*%
%TO.P,C4,1*%
%TO.N,Net-(C1-Pad1)*%
X123291600Y-102309200D03*
%TO.P,C4,2*%
%TO.N,Net-(C4-Pad2)*%
X123291600Y-103329200D03*
%TD*%
D11*
%TO.P,C40,1*%
%TO.N,GND*%
X189230000Y-112483400D03*
%TO.P,C40,2*%
%TO.N,/3V3*%
X189230000Y-110833400D03*
%TD*%
D50*
%TO.P,J3,1,1*%
%TO.N,/12V*%
X78010000Y-139700000D03*
%TO.P,J3,2,2*%
%TO.N,GND*%
X78010000Y-131100000D03*
%TO.P,J3,3,3*%
X78010000Y-136300000D03*
D51*
%TO.P,J3,MH1,MH1*%
X70710000Y-130200000D03*
%TO.P,J3,MH2,MH2*%
X70710000Y-140100000D03*
%TD*%
D27*
%TO.P,C24,1*%
%TO.N,/5V*%
X128664200Y-105156000D03*
%TO.P,C24,2*%
%TO.N,GND*%
X130314200Y-105156000D03*
%TD*%
D17*
%TO.P,R13,1*%
%TO.N,/5.0625_REF*%
X198753000Y-94615000D03*
%TO.P,R13,2*%
%TO.N,Net-(J2-Pad1)*%
X199773000Y-94615000D03*
%TD*%
D11*
%TO.P,C45,1*%
%TO.N,/12V*%
X90271600Y-109892600D03*
%TO.P,C45,2*%
%TO.N,GND*%
X90271600Y-108242600D03*
%TD*%
D20*
%TO.P,AT2,1,GND_1*%
%TO.N,GND*%
X165944800Y-115640800D03*
%TO.P,AT2,2,VDD*%
%TO.N,/3V3*%
X165944800Y-116140800D03*
%TO.P,AT2,3,P/S*%
X165944800Y-116640800D03*
%TO.P,AT2,4,GND_2*%
%TO.N,GND*%
X165944800Y-117140800D03*
%TO.P,AT2,5,RF1*%
%TO.N,Net-(AT2-Pad5)*%
X165944800Y-117640800D03*
%TO.P,AT2,6,GND_3*%
%TO.N,GND*%
X165944800Y-118140800D03*
D21*
%TO.P,AT2,7,GND_4*%
X166694800Y-118890800D03*
%TO.P,AT2,8,GND_5*%
X167194800Y-118890800D03*
%TO.P,AT2,9,GND_6*%
X167694800Y-118890800D03*
%TO.P,AT2,10,GND_7*%
X168194800Y-118890800D03*
%TO.P,AT2,11,GND_8*%
X168694800Y-118890800D03*
%TO.P,AT2,12,GND_9*%
X169194800Y-118890800D03*
D20*
%TO.P,AT2,13,GND_10*%
X169944800Y-118140800D03*
%TO.P,AT2,14,RF2*%
%TO.N,Net-(R10-Pad1)*%
X169944800Y-117640800D03*
%TO.P,AT2,15,GND_11*%
%TO.N,GND*%
X169944800Y-117140800D03*
%TO.P,AT2,16,LE*%
%TO.N,/LE*%
X169944800Y-116640800D03*
%TO.P,AT2,17,CLK*%
%TO.N,/SCLK*%
X169944800Y-116140800D03*
%TO.P,AT2,18,SI*%
%TO.N,/MOSI*%
X169944800Y-115640800D03*
D21*
%TO.P,AT2,19,GND_12*%
%TO.N,GND*%
X169194800Y-114890800D03*
%TO.P,AT2,20,C8*%
X168694800Y-114890800D03*
%TO.P,AT2,21,C4*%
X168194800Y-114890800D03*
%TO.P,AT2,22,C2*%
X167694800Y-114890800D03*
%TO.P,AT2,23,C1*%
X167194800Y-114890800D03*
%TO.P,AT2,24,C0.5*%
X166694800Y-114890800D03*
D22*
%TO.P,AT2,25,GND_13*%
X167944800Y-116890800D03*
%TD*%
D23*
%TO.P,U1,2,Input*%
%TO.N,/5.0625GHz*%
X134937800Y-108102400D03*
%TO.P,U1,4,Output1*%
%TO.N,/5.0625_SPLIT1*%
X135927800Y-108752400D03*
%TO.P,U1,5,GND*%
%TO.N,GND*%
X134937800Y-108752400D03*
X134937800Y-107452400D03*
X135927800Y-108102400D03*
%TO.P,U1,6,Output2*%
%TO.N,/5.0625_REF*%
X135927800Y-107452400D03*
%TD*%
%TO.P,U9,2,Input*%
%TO.N,Net-(R11-Pad1)*%
X173773800Y-114249200D03*
%TO.P,U9,4,Output1*%
%TO.N,Net-(R10-Pad2)*%
X172783800Y-113599200D03*
%TO.P,U9,5,GND*%
%TO.N,GND*%
X173773800Y-113599200D03*
X172783800Y-114249200D03*
X173773800Y-114899200D03*
%TO.P,U9,6,Output2*%
%TO.N,Net-(R10-Pad1)*%
X172783800Y-114899200D03*
%TD*%
%TO.P,U10,2,Input*%
%TO.N,Net-(C37-Pad2)*%
X178498200Y-108940600D03*
%TO.P,U10,4,Output1*%
%TO.N,Net-(R11-Pad2)*%
X177508200Y-108290600D03*
%TO.P,U10,5,GND*%
%TO.N,GND*%
X178498200Y-108290600D03*
X178498200Y-109590600D03*
X177508200Y-108940600D03*
%TO.P,U10,6,Output2*%
%TO.N,Net-(R11-Pad1)*%
X177508200Y-109590600D03*
%TD*%
D52*
%TO.P,IC8,1,GND*%
%TO.N,GND*%
X93952500Y-106680000D03*
%TO.P,IC8,3,INPUT*%
%TO.N,/12V*%
X93952500Y-111760000D03*
D53*
%TO.P,IC8,4,OUTPUT*%
%TO.N,/3V3*%
X104227500Y-109220000D03*
%TD*%
D54*
%TO.N,GND*%
X122936000Y-107470400D03*
X125780800Y-101650800D03*
X123636000Y-106770400D03*
X183856400Y-107543600D03*
X122936000Y-108170400D03*
X167905200Y-116879600D03*
X172364400Y-103632000D03*
X192278000Y-113334800D03*
X183156400Y-108943600D03*
X102521000Y-134811000D03*
X103521000Y-136811000D03*
X167256000Y-106262400D03*
X125036000Y-108870400D03*
X191922400Y-109604000D03*
X84534000Y-136334000D03*
X174193200Y-113588800D03*
X122577600Y-134213600D03*
X163474400Y-113588800D03*
X100521000Y-134811000D03*
X124336000Y-107470400D03*
X132130800Y-109118400D03*
X167905200Y-117579600D03*
X138226800Y-108254800D03*
X103521000Y-135811000D03*
X119583200Y-101193600D03*
X81534000Y-134334000D03*
X168656000Y-106262400D03*
X80534000Y-136334000D03*
X104521000Y-134811000D03*
X168656000Y-106962400D03*
X114554000Y-107950000D03*
X167205200Y-117579600D03*
X122577600Y-133213600D03*
X94456500Y-141204700D03*
X180594000Y-105308400D03*
X103521000Y-137811000D03*
X167956000Y-105562400D03*
X123577600Y-132213600D03*
X102521000Y-137811000D03*
X92456000Y-106680000D03*
X131114800Y-143510000D03*
X125036000Y-106770400D03*
X168605200Y-100330000D03*
X167205200Y-100330000D03*
X167256000Y-111647200D03*
X114655600Y-143306800D03*
X92710000Y-119380000D03*
X124275000Y-120954800D03*
X191922400Y-108904000D03*
X161340800Y-110593000D03*
X193322400Y-108204000D03*
X163576000Y-108610400D03*
X103521000Y-138811000D03*
X172364400Y-114249200D03*
X82534000Y-136334000D03*
X111963200Y-121920000D03*
X123636000Y-107470400D03*
X83534000Y-132334000D03*
X168656000Y-111647200D03*
X121577600Y-132213600D03*
X167956000Y-111647200D03*
X167256000Y-112347200D03*
X167256000Y-105562400D03*
X184556400Y-108243600D03*
X167956000Y-110947200D03*
X134498602Y-107391200D03*
X164084000Y-109829600D03*
X124577600Y-131213600D03*
X120802400Y-101549200D03*
X124577600Y-132213600D03*
X101521000Y-137811000D03*
X81534000Y-135334000D03*
X136347200Y-108102400D03*
X116738400Y-103225600D03*
X121831600Y-130419600D03*
X124577600Y-130213600D03*
X123577600Y-133213600D03*
X183156400Y-107543600D03*
X104521000Y-137811000D03*
X119195000Y-112776000D03*
X125736000Y-108870400D03*
X121577600Y-134213600D03*
X168605200Y-116179600D03*
X148285200Y-110540800D03*
X122936000Y-108870400D03*
X168605200Y-101730000D03*
X84534000Y-133334000D03*
X159156400Y-108051600D03*
X110388400Y-121920000D03*
X159156400Y-106730800D03*
X80534000Y-135334000D03*
X113842800Y-107950000D03*
X168605200Y-117579600D03*
X123577600Y-134213600D03*
X104521000Y-136811000D03*
X189230000Y-113334800D03*
X168656000Y-105562400D03*
X192622400Y-109604000D03*
X174193200Y-114909600D03*
X95504000Y-106680000D03*
X122577600Y-132213600D03*
X134486603Y-108742916D03*
X81534000Y-132334000D03*
X123636000Y-108870400D03*
X174193200Y-104292400D03*
X167256000Y-110947200D03*
X191922400Y-108204000D03*
X124336000Y-106070400D03*
X125736000Y-107470400D03*
X93218000Y-106680000D03*
X158191200Y-107391200D03*
X124577600Y-133213600D03*
X121577600Y-131213600D03*
X82534000Y-135334000D03*
X183156400Y-108243600D03*
X124577600Y-134213600D03*
X183856400Y-108943600D03*
X83534000Y-134334000D03*
X125036000Y-107470400D03*
X125736000Y-106770400D03*
X116433600Y-109524800D03*
X131114800Y-110337600D03*
X140055600Y-108915200D03*
X89662000Y-119380000D03*
X117551200Y-110998000D03*
X148285200Y-107289600D03*
X125577600Y-133213600D03*
X125736000Y-106070400D03*
X91948000Y-119380000D03*
X82534000Y-133334000D03*
X80534000Y-134334000D03*
X124510800Y-100533200D03*
X94462500Y-137134500D03*
X80534000Y-133334000D03*
X127355600Y-123139200D03*
X81534000Y-133334000D03*
X167956000Y-106962400D03*
X82534000Y-134334000D03*
X126288800Y-114147600D03*
X94742000Y-106680000D03*
X113131600Y-107950000D03*
X83534000Y-136334000D03*
X83534000Y-133334000D03*
X163474400Y-118872000D03*
X84534000Y-132334000D03*
X159156400Y-109829600D03*
X192622400Y-108204000D03*
X122021600Y-100584000D03*
X129438400Y-106070400D03*
X115265200Y-107950000D03*
X163982400Y-99212400D03*
X131114800Y-123190000D03*
X123577600Y-131213600D03*
X167956000Y-106262400D03*
X102521000Y-138811000D03*
X120446800Y-112572800D03*
X167905200Y-101730000D03*
X167205200Y-116179600D03*
X128727200Y-114147600D03*
X123636000Y-108170400D03*
X93980000Y-106680000D03*
X184556400Y-107543600D03*
X100521000Y-135811000D03*
X174193200Y-102971600D03*
X83534000Y-135334000D03*
X127508000Y-113284000D03*
X193322400Y-109604000D03*
X101521000Y-135811000D03*
X80518000Y-132334000D03*
X81534000Y-136334000D03*
X124256800Y-121716800D03*
X91186000Y-119380000D03*
X192622400Y-108904000D03*
X82534000Y-132334000D03*
X118516400Y-104902000D03*
X101521000Y-134811000D03*
X118516400Y-107340400D03*
X125577600Y-131213600D03*
X100521000Y-138811000D03*
X124336000Y-106770400D03*
X104521000Y-138811000D03*
X123577600Y-130213600D03*
X111150400Y-121920000D03*
X184556400Y-108943600D03*
X178917600Y-108305600D03*
X101521000Y-136811000D03*
X100521000Y-137811000D03*
X124336000Y-108170400D03*
X102521000Y-135811000D03*
X95910400Y-141581000D03*
X121577600Y-133213600D03*
X84534000Y-134334000D03*
X168605200Y-116879600D03*
X158191200Y-110490000D03*
X167205200Y-116879600D03*
X161391600Y-107288200D03*
X138226800Y-109575600D03*
X100521000Y-136811000D03*
X125736000Y-108170400D03*
X112014000Y-127508000D03*
X164033200Y-104495600D03*
X95097600Y-141579600D03*
X131165600Y-105156000D03*
X104521000Y-135811000D03*
X90424000Y-119380000D03*
X167905200Y-116179600D03*
X126034800Y-123139200D03*
X124336000Y-108870400D03*
X125036000Y-108170400D03*
X84534000Y-135334000D03*
X102521000Y-136811000D03*
X118516400Y-103936800D03*
X115366800Y-103225600D03*
X95250000Y-136906000D03*
X167905200Y-100330000D03*
X167205200Y-101030000D03*
X193322400Y-108904000D03*
X125577600Y-132213600D03*
X176987200Y-108966000D03*
X125577600Y-134213600D03*
X122577600Y-130213600D03*
X159156400Y-111150400D03*
X125577600Y-130213600D03*
X167256000Y-106962400D03*
X168605200Y-101030000D03*
X187706000Y-113385600D03*
X168656000Y-112347200D03*
X125036000Y-106070400D03*
X178917600Y-109575600D03*
X103521000Y-134811000D03*
X167905200Y-101030000D03*
X122577600Y-131213600D03*
X183856400Y-108243600D03*
X163474400Y-102616000D03*
X101521000Y-138811000D03*
X167956000Y-112347200D03*
X167205200Y-101730000D03*
X168656000Y-110947200D03*
%TO.N,/3V3*%
X106156000Y-105934000D03*
X102156000Y-105934000D03*
X104156000Y-106934000D03*
X102156000Y-108934000D03*
X106156000Y-106934000D03*
X103156000Y-104934000D03*
X189636400Y-109829600D03*
X105156000Y-105934000D03*
X163880800Y-105511600D03*
X105156000Y-107934000D03*
X105156000Y-106934000D03*
X163372800Y-117246400D03*
X163423600Y-101346000D03*
X191617600Y-105918000D03*
X164084000Y-110845600D03*
X163474400Y-112471200D03*
X104156000Y-107934000D03*
X103156000Y-105934000D03*
X163525200Y-106629200D03*
X179882800Y-108000800D03*
X164261875Y-115747725D03*
X102156000Y-106934000D03*
X105156000Y-104934000D03*
X104156000Y-104934000D03*
X106156000Y-108934000D03*
X103156000Y-106934000D03*
X105156000Y-108934000D03*
X163982400Y-100228400D03*
X102362000Y-105156000D03*
X104156000Y-105934000D03*
X103156000Y-108934000D03*
X104156000Y-108934000D03*
X106156000Y-104934000D03*
X102156000Y-107934000D03*
X103156000Y-107934000D03*
X106156000Y-107934000D03*
%TO.N,/LE*%
X135077200Y-115727400D03*
X170942000Y-111404400D03*
X127304800Y-126492000D03*
X170840400Y-116484400D03*
X170586400Y-121513600D03*
%TO.N,/SCLK*%
X125045837Y-112090005D03*
X170772785Y-110543664D03*
X135077200Y-131978400D03*
X125577600Y-114706400D03*
X170439000Y-103815858D03*
X166370000Y-124256800D03*
X172618400Y-100279200D03*
X125679200Y-119075200D03*
X125679200Y-116941600D03*
X170429000Y-114452400D03*
X119735600Y-126542800D03*
X166979600Y-120904000D03*
X120091200Y-129133600D03*
X133756400Y-131419600D03*
X172618400Y-99009200D03*
X171653200Y-100279200D03*
X170484800Y-120700800D03*
%TO.N,/MOSI*%
X134366000Y-130657600D03*
X169926000Y-115062000D03*
X136042400Y-130911600D03*
X169926000Y-109778800D03*
X169722800Y-123545600D03*
X169926000Y-104546400D03*
X170992800Y-99669600D03*
X124750321Y-112901514D03*
X118465600Y-123291600D03*
%TO.N,/LE2*%
X170789600Y-105867200D03*
X176530000Y-113842800D03*
X170992800Y-101295200D03*
X130302000Y-116230400D03*
X171704000Y-109067600D03*
X120980200Y-123261200D03*
X173634400Y-110947200D03*
%TO.N,/LE_FA*%
X185826400Y-112674400D03*
X186893200Y-107899200D03*
%TO.N,Net-(C1-Pad1)*%
X120192800Y-106680000D03*
X122021600Y-102264900D03*
%TO.N,Net-(C2-Pad1)*%
X124510800Y-102260400D03*
X128422400Y-106070400D03*
X119989600Y-108458000D03*
X127812800Y-104800400D03*
%TO.N,Net-(C17-Pad1)*%
X120446800Y-109046900D03*
X120802400Y-110947200D03*
%TO.N,/5V*%
X105600000Y-119888000D03*
X127355600Y-110490000D03*
X104600000Y-120888000D03*
X127000000Y-104418171D03*
X102600000Y-122888000D03*
X119075200Y-108762800D03*
X102600000Y-120888000D03*
X105600000Y-123888000D03*
X104600000Y-121888000D03*
X105600000Y-122888000D03*
X103600000Y-120888000D03*
X101600000Y-122888000D03*
X105600000Y-121888000D03*
X101600000Y-123888000D03*
X103600000Y-119888000D03*
X101600000Y-121888000D03*
X105600000Y-120888000D03*
X102600000Y-123888000D03*
X122062931Y-103946269D03*
X104600000Y-123888000D03*
X102600000Y-119888000D03*
X101600000Y-120888000D03*
X103600000Y-122888000D03*
X102600000Y-121888000D03*
X103600000Y-121888000D03*
X104600000Y-119888000D03*
X103600000Y-123888000D03*
X104600000Y-122888000D03*
X101600000Y-119888000D03*
%TO.N,/1V8*%
X96012000Y-138938000D03*
X159918400Y-106527600D03*
X96774000Y-138303000D03*
X147370800Y-109575600D03*
X160274000Y-109474000D03*
X147370800Y-106273600D03*
%TO.N,/LE_PLL*%
X126492000Y-117028100D03*
X125374400Y-111271427D03*
X124815600Y-140208000D03*
X126542800Y-115011200D03*
X126492000Y-119024400D03*
X126593600Y-121767600D03*
%TO.N,/CTRL_180*%
X127965200Y-121158000D03*
X147370800Y-111607600D03*
%TO.N,/CTRL_90180*%
X122783600Y-122174000D03*
X147320000Y-108305600D03*
%TO.N,/CTRL_90F*%
X130505200Y-136652000D03*
X160375600Y-108356400D03*
X146710400Y-119024400D03*
X160731200Y-118110000D03*
%TO.N,/CTRL_F*%
X124866400Y-126492000D03*
X160121600Y-111506000D03*
X125069600Y-127762000D03*
X145643600Y-121056400D03*
X147320000Y-119938800D03*
X160070800Y-119583200D03*
%TD*%
D55*
%TO.N,/5.0625_REF*%
X150029507Y-94615005D02*
G75*
G03*
X149675954Y-94761446I-7J-499995D01*
G01*
X150029507Y-94615000D02*
X198753000Y-94615000D01*
X137160000Y-107277400D02*
X149675954Y-94761446D01*
D56*
%TO.N,*%
X147370800Y-108915200D02*
X147372600Y-108917000D01*
D57*
%TO.N,GND*%
X180746400Y-106627200D02*
X180746400Y-106515400D01*
X180371500Y-106140500D02*
X180371500Y-105530900D01*
D58*
X83820000Y-132588000D02*
X80518000Y-132588000D01*
D57*
X169944800Y-117140800D02*
X168194800Y-117140800D01*
X189179200Y-112534200D02*
X189230000Y-112483400D01*
X167694800Y-104273600D02*
X167694800Y-105301200D01*
D58*
X80518000Y-132334000D02*
X80518000Y-136318000D01*
D57*
X169194800Y-98990400D02*
X169194800Y-99740400D01*
D58*
X90424000Y-119380000D02*
X89662000Y-119380000D01*
D57*
X167194800Y-98990400D02*
X167194800Y-100319600D01*
X169944800Y-111857600D02*
X168866400Y-111857600D01*
X192290200Y-113322600D02*
X192278000Y-113334800D01*
X121483000Y-106659800D02*
X121483000Y-106442000D01*
D58*
X70710000Y-140100000D02*
X73650202Y-140100000D01*
D57*
X120916200Y-101435400D02*
X120802400Y-101549200D01*
X169194800Y-102990400D02*
X169194800Y-102319600D01*
X125780800Y-102258400D02*
X125780800Y-101650800D01*
D55*
X138237200Y-108265200D02*
X138646200Y-108265200D01*
D58*
X83820000Y-136144000D02*
X83820000Y-132588000D01*
D55*
X172783800Y-114249200D02*
X172364400Y-114249200D01*
D57*
X190733600Y-107915200D02*
X190733600Y-108415200D01*
X166694800Y-105023600D02*
X167944800Y-106273600D01*
X168194800Y-106523600D02*
X167944800Y-106273600D01*
X191633600Y-107915200D02*
X191820800Y-108102400D01*
X168694800Y-114890800D02*
X168694800Y-116140800D01*
X166694800Y-109607600D02*
X166694800Y-110357600D01*
D59*
X127330200Y-124748400D02*
X126060200Y-124748400D01*
D57*
X168194800Y-98990400D02*
X168194800Y-100040400D01*
X166694800Y-115640800D02*
X167944800Y-116890800D01*
X168694800Y-100240400D02*
X167944800Y-100990400D01*
X183146000Y-110153200D02*
X183146000Y-109654000D01*
X181896000Y-106903200D02*
X182646000Y-106903200D01*
D55*
X159146000Y-111140000D02*
X159156400Y-111150400D01*
D57*
X168694800Y-108273600D02*
X168694800Y-107001200D01*
X183646000Y-108403200D02*
X183896000Y-108153200D01*
D60*
X93878400Y-137629400D02*
X93967600Y-137629400D01*
D57*
X167694800Y-111857600D02*
X167944800Y-111607600D01*
D61*
X114630200Y-141748400D02*
X114630200Y-143281400D01*
D57*
X165944800Y-117140800D02*
X167694800Y-117140800D01*
X185146000Y-106903200D02*
X183896000Y-108153200D01*
X187706000Y-112534200D02*
X189179200Y-112534200D01*
D55*
X158737000Y-111140000D02*
X159146000Y-111140000D01*
X138226800Y-109575600D02*
X138237200Y-109565200D01*
D57*
X120802400Y-102309200D02*
X120802400Y-101549200D01*
X123833000Y-104592000D02*
X123833000Y-106942000D01*
X184146000Y-108403200D02*
X183896000Y-108153200D01*
D60*
X90271600Y-108242600D02*
X90271600Y-107442000D01*
D57*
X166615600Y-99740400D02*
X167205200Y-100330000D01*
X184146000Y-106153200D02*
X184146000Y-107903200D01*
D60*
X94354900Y-141103100D02*
X94456500Y-141204700D01*
D55*
X147774000Y-107289600D02*
X148285200Y-107289600D01*
D58*
X70710000Y-130200000D02*
X77110000Y-130200000D01*
D55*
X134498602Y-107391200D02*
X134559802Y-107452400D01*
D57*
X169944800Y-102240400D02*
X169194800Y-102240400D01*
D60*
X95250000Y-136906000D02*
X94691000Y-136906000D01*
D58*
X78010000Y-136300000D02*
X78010000Y-133636000D01*
D57*
X168194800Y-106023600D02*
X167944800Y-106273600D01*
X168694800Y-102990400D02*
X168694800Y-101740400D01*
X125514600Y-101384600D02*
X125780800Y-101650800D01*
X167194800Y-114890800D02*
X167194800Y-116169200D01*
X168694800Y-104273600D02*
X168694800Y-105523600D01*
D58*
X78010000Y-136300000D02*
X83664000Y-136300000D01*
D57*
X119583200Y-102045000D02*
X120306600Y-102045000D01*
D60*
X124275000Y-121698600D02*
X124256800Y-121716800D01*
D57*
X168194800Y-117140800D02*
X167944800Y-116890800D01*
D60*
X90728800Y-121349000D02*
X90728800Y-119684800D01*
D57*
X184146000Y-107903200D02*
X183896000Y-108153200D01*
D60*
X97826000Y-141581000D02*
X102501000Y-136906000D01*
D55*
X159146000Y-106741200D02*
X159156400Y-106730800D01*
D57*
X193133600Y-107015200D02*
X193633600Y-107015200D01*
X124833000Y-104592000D02*
X123833000Y-104592000D01*
X167694800Y-100740400D02*
X167944800Y-100990400D01*
X184646000Y-106153200D02*
X184646000Y-107403200D01*
D55*
X173773800Y-114899200D02*
X174182800Y-114899200D01*
D57*
X166694800Y-118140800D02*
X167944800Y-116890800D01*
X169944800Y-107523600D02*
X169194800Y-107523600D01*
D59*
X127330200Y-124748400D02*
X127330200Y-123164600D01*
D58*
X80534000Y-134334000D02*
X78708000Y-134334000D01*
D55*
X147774000Y-110540800D02*
X148285200Y-110540800D01*
D57*
X168194800Y-109607600D02*
X168194800Y-111357600D01*
D55*
X118514400Y-103934800D02*
X118516400Y-103936800D01*
D57*
X192133600Y-108415200D02*
X192633600Y-108915200D01*
X124833000Y-104592000D02*
X124833000Y-106942000D01*
X166694800Y-98990400D02*
X166694800Y-99740400D01*
D59*
X126288800Y-113397800D02*
X126288800Y-114147600D01*
D57*
X120306600Y-102045000D02*
X120802400Y-101549200D01*
X193133600Y-109415200D02*
X192633600Y-108915200D01*
X165944800Y-107523600D02*
X167394800Y-107523600D01*
D55*
X161237800Y-110490000D02*
X161340800Y-110593000D01*
D57*
X190733600Y-108415200D02*
X192133600Y-108415200D01*
X167694800Y-98990400D02*
X167694800Y-100740400D01*
D60*
X95096200Y-141581000D02*
X94832800Y-141581000D01*
D57*
X166694800Y-102240400D02*
X167944800Y-100990400D01*
D59*
X127508000Y-112524000D02*
X127508000Y-113284000D01*
D57*
X194533600Y-109415200D02*
X193133600Y-109415200D01*
X127183000Y-106442000D02*
X125333000Y-106442000D01*
D58*
X78708000Y-134334000D02*
X78010000Y-133636000D01*
D57*
X169194800Y-112886000D02*
X168656000Y-112347200D01*
X183146000Y-106153200D02*
X183146000Y-107403200D01*
X125833000Y-105942000D02*
X124333000Y-107442000D01*
D55*
X160757000Y-107391200D02*
X161288600Y-107391200D01*
D57*
X168694800Y-118890800D02*
X168694800Y-117669200D01*
D55*
X174182800Y-102982000D02*
X174193200Y-102971600D01*
D57*
X184646000Y-110153200D02*
X184646000Y-108903200D01*
X167194800Y-109607600D02*
X167194800Y-110857600D01*
D59*
X119195000Y-113536000D02*
X119195000Y-112776000D01*
D57*
X184716000Y-108403200D02*
X184556400Y-108243600D01*
X168194800Y-102990400D02*
X168194800Y-102019600D01*
X167194800Y-102990400D02*
X167194800Y-101740400D01*
X167694800Y-102990400D02*
X167694800Y-101940400D01*
X166694800Y-107523600D02*
X167256000Y-106962400D01*
X165944800Y-110357600D02*
X166694800Y-110357600D01*
X169194800Y-110357600D02*
X167944800Y-111607600D01*
X169194800Y-102990400D02*
X166694800Y-102990400D01*
X169944800Y-106523600D02*
X168194800Y-106523600D01*
D55*
X172783800Y-103632000D02*
X172364400Y-103632000D01*
D57*
X169194800Y-118890800D02*
X169194800Y-118169200D01*
D60*
X111150400Y-121920000D02*
X110388400Y-121920000D01*
D57*
X193133600Y-107015200D02*
X193133600Y-108415200D01*
D55*
X177012600Y-108940600D02*
X176987200Y-108966000D01*
D57*
X123833000Y-106942000D02*
X124333000Y-107442000D01*
X183646000Y-107903200D02*
X183896000Y-108153200D01*
D58*
X80518000Y-136318000D02*
X80534000Y-136334000D01*
D60*
X91033600Y-106680000D02*
X93218000Y-106680000D01*
D58*
X79244000Y-132334000D02*
X78010000Y-131100000D01*
D57*
X167394800Y-102240400D02*
X167905200Y-101730000D01*
X169194800Y-113607600D02*
X169194800Y-112886000D01*
D55*
X157747000Y-107391200D02*
X158191200Y-107391200D01*
X115366800Y-103934800D02*
X116738400Y-103934800D01*
D57*
X184646000Y-107403200D02*
X183896000Y-108153200D01*
X165944800Y-106523600D02*
X167694800Y-106523600D01*
X167194800Y-118890800D02*
X167194800Y-117590000D01*
D55*
X158737000Y-109840000D02*
X159146000Y-109840000D01*
X178902600Y-108290600D02*
X178917600Y-108305600D01*
D57*
X182646000Y-110153200D02*
X182646000Y-109403200D01*
D60*
X113131600Y-107950000D02*
X113842800Y-107950000D01*
X109752400Y-121920000D02*
X110388400Y-121920000D01*
D57*
X169194800Y-99740400D02*
X167944800Y-100990400D01*
X168694800Y-110857600D02*
X167944800Y-111607600D01*
X119583200Y-101600000D02*
X119583200Y-101193600D01*
X182646000Y-106903200D02*
X183896000Y-108153200D01*
D55*
X116738400Y-103934800D02*
X116738400Y-103225600D01*
D57*
X169194800Y-108273600D02*
X169194800Y-107501200D01*
D60*
X94832800Y-141581000D02*
X94456500Y-141204700D01*
D57*
X167194800Y-117590000D02*
X167205200Y-117579600D01*
X194533600Y-108415200D02*
X194533600Y-107915200D01*
X185896000Y-108403200D02*
X184716000Y-108403200D01*
X180746400Y-106515400D02*
X180371500Y-106140500D01*
D60*
X95099000Y-141581000D02*
X95910400Y-141581000D01*
D55*
X174182800Y-114899200D02*
X174193200Y-114909600D01*
D57*
X181896000Y-106903200D02*
X181022400Y-106903200D01*
X180581800Y-105296200D02*
X180594000Y-105308400D01*
X124510800Y-101384600D02*
X125514600Y-101384600D01*
X168194800Y-100040400D02*
X167905200Y-100330000D01*
X194533600Y-107915200D02*
X193633600Y-107915200D01*
D60*
X95910400Y-141581000D02*
X97826000Y-141581000D01*
D57*
X168694800Y-101740400D02*
X167944800Y-100990400D01*
X168694800Y-105523600D02*
X168656000Y-105562400D01*
D60*
X111150400Y-121920000D02*
X111963200Y-121920000D01*
D55*
X174182800Y-104282000D02*
X174193200Y-104292400D01*
D57*
X192633600Y-112026200D02*
X192290200Y-112369600D01*
X169194800Y-105023600D02*
X167944800Y-106273600D01*
X167194800Y-113607600D02*
X167194800Y-112357600D01*
X166694800Y-98990400D02*
X169194800Y-98990400D01*
X167194800Y-107023600D02*
X167256000Y-106962400D01*
D58*
X92710000Y-119380000D02*
X91948000Y-119380000D01*
D55*
X177508200Y-108940600D02*
X177012600Y-108940600D01*
D57*
X167194800Y-110857600D02*
X167944800Y-111607600D01*
X166694800Y-108273600D02*
X166694800Y-107523600D01*
X169194800Y-112857600D02*
X167944800Y-111607600D01*
X167694800Y-109607600D02*
X167694800Y-111357600D01*
D59*
X129440400Y-106781600D02*
X129440400Y-106072400D01*
D57*
X166694800Y-115669200D02*
X167205200Y-116179600D01*
X169194800Y-114890800D02*
X169194800Y-115640800D01*
D55*
X159146000Y-109840000D02*
X159156400Y-109829600D01*
X139636200Y-108915200D02*
X140055600Y-108915200D01*
D57*
X168194800Y-101240400D02*
X167944800Y-100990400D01*
X169194800Y-109607600D02*
X169194800Y-110357600D01*
X185896000Y-109403200D02*
X185016000Y-109403200D01*
X165944800Y-105023600D02*
X166694800Y-105023600D01*
D60*
X93967600Y-137629400D02*
X94259300Y-137337700D01*
D57*
X168194800Y-118890800D02*
X168194800Y-117869200D01*
X168694800Y-116140800D02*
X167944800Y-116890800D01*
X193633600Y-109915200D02*
X192633600Y-108915200D01*
X168694800Y-107001200D02*
X168656000Y-106962400D01*
D59*
X131140200Y-123215400D02*
X131114800Y-123190000D01*
D57*
X194533600Y-108415200D02*
X193133600Y-108415200D01*
D58*
X83664000Y-136300000D02*
X83820000Y-136144000D01*
D57*
X168194800Y-114890800D02*
X168194800Y-116640800D01*
X127183000Y-106942000D02*
X127183000Y-105942000D01*
X169194800Y-118140800D02*
X167944800Y-116890800D01*
D60*
X124275000Y-119883000D02*
X124275000Y-120954800D01*
D55*
X116738400Y-103934800D02*
X117754400Y-103934800D01*
D57*
X185146000Y-106153200D02*
X185146000Y-106903200D01*
D55*
X135927800Y-108102400D02*
X136347200Y-108102400D01*
D57*
X119583200Y-102045000D02*
X119583200Y-101600000D01*
X166694800Y-113607600D02*
X169194800Y-113607600D01*
X168194800Y-117869200D02*
X167905200Y-117579600D01*
X182646000Y-106153200D02*
X182646000Y-106903200D01*
X167694800Y-117790000D02*
X167905200Y-117579600D01*
X121483000Y-106942000D02*
X121483000Y-106659800D01*
X183146000Y-109654000D02*
X183856400Y-108943600D01*
X167694800Y-101940400D02*
X167905200Y-101730000D01*
D55*
X134496087Y-108752400D02*
X134937800Y-108752400D01*
D57*
X168194800Y-107201200D02*
X167956000Y-106962400D01*
X169194800Y-109607600D02*
X166694800Y-109607600D01*
X168694800Y-112386000D02*
X168656000Y-112347200D01*
X193633600Y-107915200D02*
X192633600Y-108915200D01*
D55*
X157747000Y-110490000D02*
X158191200Y-110490000D01*
D57*
X168694800Y-109607600D02*
X168694800Y-110857600D01*
D55*
X173773800Y-104282000D02*
X174182800Y-104282000D01*
D59*
X118351800Y-110998000D02*
X117551200Y-110998000D01*
X126060200Y-123164600D02*
X126034800Y-123139200D01*
D57*
X169194800Y-114890800D02*
X166694800Y-114890800D01*
D55*
X178917600Y-109575600D02*
X178902600Y-109590600D01*
D57*
X169944800Y-112857600D02*
X169194800Y-112857600D01*
X165944800Y-99740400D02*
X166615600Y-99740400D01*
D55*
X115366800Y-103934800D02*
X115366800Y-103225600D01*
D57*
X192133600Y-112213000D02*
X192290200Y-112369600D01*
D55*
X174182800Y-113599200D02*
X174193200Y-113588800D01*
D57*
X168194800Y-102019600D02*
X167905200Y-101730000D01*
X187706000Y-112534200D02*
X187706000Y-113385600D01*
X190733600Y-107915200D02*
X191633600Y-107915200D01*
D58*
X73650202Y-140100000D02*
X74422000Y-139328202D01*
X91186000Y-119380000D02*
X90424000Y-119380000D01*
D57*
X165944800Y-102240400D02*
X167394800Y-102240400D01*
D55*
X158737000Y-108041200D02*
X159146000Y-108041200D01*
D57*
X165944800Y-112857600D02*
X166694800Y-112857600D01*
X167694800Y-108273600D02*
X167694800Y-106523600D01*
X127183000Y-105942000D02*
X125833000Y-105942000D01*
X185146000Y-110153200D02*
X182646000Y-110153200D01*
X183646000Y-110153200D02*
X183646000Y-108403200D01*
X166694800Y-99740400D02*
X167944800Y-100990400D01*
X167194800Y-112357600D02*
X167944800Y-111607600D01*
D55*
X119174800Y-104902000D02*
X118516400Y-104902000D01*
D57*
X167194800Y-108273600D02*
X167194800Y-107023600D01*
X166694800Y-114890800D02*
X166694800Y-115669200D01*
D55*
X132126800Y-109114400D02*
X132130800Y-109118400D01*
D57*
X191633600Y-110815200D02*
X193133600Y-110815200D01*
D55*
X161288600Y-107391200D02*
X161391600Y-107288200D01*
D57*
X167694800Y-105301200D02*
X167956000Y-105562400D01*
D58*
X76298000Y-136300000D02*
X78010000Y-136300000D01*
D57*
X165944800Y-115640800D02*
X166694800Y-115640800D01*
X124833000Y-106942000D02*
X124333000Y-107442000D01*
X167344000Y-118140800D02*
X167905200Y-117579600D01*
X183146000Y-107403200D02*
X183896000Y-108153200D01*
X167694800Y-115969200D02*
X167905200Y-116179600D01*
D55*
X117754400Y-103934800D02*
X118514400Y-103934800D01*
D57*
X166694800Y-112857600D02*
X167944800Y-111607600D01*
X167194800Y-101740400D02*
X167944800Y-100990400D01*
X167694800Y-101240400D02*
X167944800Y-100990400D01*
X182646000Y-109403200D02*
X183896000Y-108153200D01*
X167694800Y-111357600D02*
X167944800Y-111607600D01*
X169944800Y-101240400D02*
X168194800Y-101240400D01*
D55*
X132126800Y-108606000D02*
X132126800Y-109114400D01*
D60*
X90271600Y-107442000D02*
X91033600Y-106680000D01*
D57*
X169944800Y-118140800D02*
X169194800Y-118140800D01*
X166694800Y-110357600D02*
X167944800Y-111607600D01*
X167694800Y-117140800D02*
X167944800Y-116890800D01*
X166694800Y-108273600D02*
X169194800Y-108273600D01*
X166694800Y-102990400D02*
X166694800Y-102240400D01*
X168694800Y-117669200D02*
X168605200Y-117579600D01*
X167194800Y-105523600D02*
X167944800Y-106273600D01*
D60*
X113842800Y-107950000D02*
X114554000Y-107950000D01*
D59*
X112039400Y-127533400D02*
X112014000Y-127508000D01*
D60*
X94259300Y-137337700D02*
X94462500Y-137134500D01*
D58*
X92971000Y-119380000D02*
X92710000Y-119380000D01*
D57*
X180371500Y-106140500D02*
X179527200Y-105296200D01*
D61*
X114630200Y-143281400D02*
X114655600Y-143306800D01*
D57*
X122021600Y-101435400D02*
X120916200Y-101435400D01*
X183646000Y-106153200D02*
X183646000Y-107903200D01*
X121483000Y-106942000D02*
X123833000Y-106942000D01*
X192133600Y-109415200D02*
X192633600Y-108915200D01*
X191820800Y-108102400D02*
X192633600Y-108915200D01*
D55*
X178902600Y-109590600D02*
X178498200Y-109590600D01*
D57*
X182646000Y-106153200D02*
X185146000Y-106153200D01*
D55*
X134559802Y-107452400D02*
X134937800Y-107452400D01*
D57*
X167694800Y-118890800D02*
X167694800Y-117790000D01*
D59*
X131140200Y-143484600D02*
X131114800Y-143510000D01*
D57*
X185146000Y-110153200D02*
X185146000Y-109533200D01*
X165944800Y-118140800D02*
X167344000Y-118140800D01*
X168866400Y-111857600D02*
X168656000Y-111647200D01*
D59*
X130314200Y-110337600D02*
X131114800Y-110337600D01*
D57*
X168194800Y-108273600D02*
X168194800Y-107201200D01*
X166694800Y-113607600D02*
X166694800Y-112857600D01*
D55*
X178498200Y-108290600D02*
X178902600Y-108290600D01*
D57*
X181896000Y-109403200D02*
X182646000Y-109403200D01*
D58*
X83534000Y-134334000D02*
X80534000Y-134334000D01*
D57*
X121483000Y-106442000D02*
X123333000Y-106442000D01*
D59*
X113630200Y-127533400D02*
X112039400Y-127533400D01*
D57*
X124510800Y-101384600D02*
X124510800Y-100533200D01*
D55*
X173773800Y-102982000D02*
X174182800Y-102982000D01*
D57*
X194533600Y-109915200D02*
X193633600Y-109915200D01*
X179527200Y-105296200D02*
X180581800Y-105296200D01*
X192633600Y-110815200D02*
X192633600Y-112026200D01*
D59*
X126060200Y-124748400D02*
X126060200Y-123164600D01*
D60*
X112483400Y-107950000D02*
X113131600Y-107950000D01*
D58*
X77110000Y-130200000D02*
X78010000Y-131100000D01*
X74422000Y-138176000D02*
X76298000Y-136300000D01*
D57*
X193633600Y-107015200D02*
X193633600Y-107915200D01*
X167694800Y-114890800D02*
X167694800Y-115969200D01*
X165944800Y-101240400D02*
X167694800Y-101240400D01*
D55*
X138226800Y-108254800D02*
X138237200Y-108265200D01*
D57*
X119174800Y-107340400D02*
X118516400Y-107340400D01*
D59*
X128727200Y-113397800D02*
X128727200Y-114147600D01*
X131140200Y-141748400D02*
X131140200Y-143484600D01*
D57*
X169194800Y-104273600D02*
X166694800Y-104273600D01*
X166694800Y-118890800D02*
X166694800Y-118140800D01*
X181022400Y-106903200D02*
X180746400Y-106627200D01*
D60*
X95097600Y-141579600D02*
X95099000Y-141581000D01*
D57*
X169194800Y-102240400D02*
X167944800Y-100990400D01*
X127183000Y-106942000D02*
X124833000Y-106942000D01*
X168194800Y-113607600D02*
X168194800Y-112586000D01*
X122825400Y-106659800D02*
X122936000Y-106770400D01*
X169194800Y-104273600D02*
X169194800Y-105023600D01*
D55*
X138237200Y-109565200D02*
X138646200Y-109565200D01*
D57*
X116433600Y-109524800D02*
X117437400Y-109524800D01*
D60*
X95250000Y-136906000D02*
X96376000Y-136906000D01*
D57*
X123333000Y-106442000D02*
X124333000Y-107442000D01*
D58*
X74422000Y-139328202D02*
X74422000Y-138176000D01*
D57*
X166694800Y-104273600D02*
X166694800Y-105023600D01*
X167194800Y-116169200D02*
X167205200Y-116179600D01*
X169194800Y-107523600D02*
X167944800Y-106273600D01*
D60*
X93878400Y-140626600D02*
X94354900Y-141103100D01*
D55*
X173773800Y-113599200D02*
X174182800Y-113599200D01*
D59*
X129440400Y-106072400D02*
X129438400Y-106070400D01*
D57*
X166694800Y-118890800D02*
X169194800Y-118890800D01*
X194533600Y-109915200D02*
X194533600Y-109415200D01*
D58*
X80518000Y-132334000D02*
X79244000Y-132334000D01*
D57*
X169194800Y-118169200D02*
X168605200Y-117579600D01*
X168194800Y-112586000D02*
X167956000Y-112347200D01*
X130314200Y-105156000D02*
X131165600Y-105156000D01*
X193133600Y-108415200D02*
X192633600Y-108915200D01*
D60*
X90728800Y-119684800D02*
X90424000Y-119380000D01*
D57*
X125333000Y-106442000D02*
X124333000Y-107442000D01*
X165944800Y-111857600D02*
X167694800Y-111857600D01*
X169194800Y-115640800D02*
X167944800Y-116890800D01*
X167194800Y-100319600D02*
X167205200Y-100330000D01*
X180371500Y-105530900D02*
X180594000Y-105308400D01*
X168194800Y-104273600D02*
X168194800Y-106023600D01*
X184146000Y-110153200D02*
X184146000Y-108403200D01*
D60*
X94691000Y-136906000D02*
X94462500Y-137134500D01*
D55*
X159146000Y-108041200D02*
X159156400Y-108051600D01*
D57*
X184646000Y-108903200D02*
X183896000Y-108153200D01*
X167694800Y-113607600D02*
X167694800Y-111857600D01*
X185146000Y-109533200D02*
X184556400Y-108943600D01*
X167694800Y-106523600D02*
X167944800Y-106273600D01*
D58*
X91948000Y-119380000D02*
X91186000Y-119380000D01*
D55*
X160757000Y-110490000D02*
X161237800Y-110490000D01*
D57*
X122021600Y-101435400D02*
X122021600Y-100584000D01*
X169194800Y-102319600D02*
X168605200Y-101730000D01*
X168194800Y-111357600D02*
X167944800Y-111607600D01*
X167194800Y-104273600D02*
X167194800Y-105523600D01*
X169194800Y-107501200D02*
X168656000Y-106962400D01*
X168694800Y-98990400D02*
X168694800Y-100240400D01*
X189230000Y-112483400D02*
X189230000Y-113334800D01*
X124333000Y-104592000D02*
X124333000Y-107442000D01*
D60*
X114554000Y-107950000D02*
X115265200Y-107950000D01*
D55*
X158737000Y-106741200D02*
X159146000Y-106741200D01*
D59*
X127330200Y-123164600D02*
X127355600Y-123139200D01*
D58*
X78010000Y-133636000D02*
X78010000Y-131100000D01*
D60*
X124275000Y-120954800D02*
X124275000Y-121698600D01*
D59*
X121158000Y-112574800D02*
X120448800Y-112574800D01*
D57*
X190733600Y-109415200D02*
X192133600Y-109415200D01*
X192133600Y-110815200D02*
X192133600Y-112213000D01*
D59*
X120448800Y-112574800D02*
X120446800Y-112572800D01*
D57*
X168194800Y-116640800D02*
X167944800Y-116890800D01*
X181896000Y-108403200D02*
X183646000Y-108403200D01*
D55*
X134486603Y-108742916D02*
X134496087Y-108752400D01*
D57*
X168694800Y-113607600D02*
X168694800Y-112386000D01*
D60*
X95097600Y-141579600D02*
X95096200Y-141581000D01*
D59*
X131140200Y-124748400D02*
X131140200Y-123215400D01*
D57*
X192290200Y-112369600D02*
X192290200Y-113322600D01*
X185016000Y-109403200D02*
X184556400Y-108943600D01*
X167394800Y-107523600D02*
X167956000Y-106962400D01*
D60*
%TO.N,/3V3*%
X108712000Y-109220000D02*
X115575000Y-116083000D01*
X104227500Y-109220000D02*
X108712000Y-109220000D01*
X127812800Y-118719600D02*
X127203200Y-118110000D01*
D57*
X181652000Y-107647200D02*
X181896000Y-107403200D01*
D59*
X119195000Y-114556000D02*
X119195000Y-116083000D01*
D57*
X190640200Y-110008600D02*
X190733600Y-109915200D01*
X181896000Y-107403200D02*
X181896000Y-107903200D01*
X189230000Y-110236000D02*
X189636400Y-109829600D01*
D60*
X119195000Y-117569400D02*
X119195000Y-116083000D01*
X129870200Y-124748400D02*
X128600200Y-124748400D01*
D57*
X180228200Y-107647200D02*
X179882800Y-107992600D01*
X179882800Y-107992600D02*
X179882800Y-108000800D01*
X191633600Y-107015200D02*
X191633600Y-105934000D01*
D60*
X110833400Y-107950000D02*
X105497500Y-107950000D01*
D57*
X189722000Y-109915200D02*
X189636400Y-109829600D01*
X165944800Y-100240400D02*
X163994400Y-100240400D01*
X189230000Y-110833400D02*
X189815400Y-110833400D01*
X165944800Y-110857600D02*
X164096000Y-110857600D01*
X189230000Y-110833400D02*
X189230000Y-110236000D01*
D60*
X129032000Y-119938800D02*
X128447800Y-119354600D01*
X129990200Y-120897000D02*
X129667000Y-120573800D01*
X129990200Y-124721000D02*
X129990200Y-120897000D01*
D57*
X187706000Y-110884200D02*
X189179200Y-110884200D01*
D60*
X129870200Y-124748400D02*
X129962800Y-124748400D01*
D57*
X190733600Y-109915200D02*
X189722000Y-109915200D01*
D60*
X129667000Y-120573800D02*
X129032000Y-119938800D01*
D57*
X165944800Y-105523600D02*
X163892800Y-105523600D01*
X163994400Y-100240400D02*
X163982400Y-100228400D01*
X164096000Y-110857600D02*
X164084000Y-110845600D01*
X165944800Y-111357600D02*
X165944800Y-110857600D01*
X164261875Y-115747725D02*
X164654950Y-116140800D01*
X165944800Y-105523600D02*
X165944800Y-106023600D01*
X189179200Y-110884200D02*
X189230000Y-110833400D01*
D60*
X105497500Y-107950000D02*
X104227500Y-109220000D01*
X119583200Y-117957600D02*
X119195000Y-117569400D01*
D57*
X165944800Y-100740400D02*
X165944800Y-100240400D01*
X180746400Y-107647200D02*
X181652000Y-107647200D01*
X190640200Y-112369600D02*
X190640200Y-110008600D01*
X189815400Y-110833400D02*
X190733600Y-109915200D01*
D60*
X115575000Y-116083000D02*
X119195000Y-116083000D01*
D57*
X163892800Y-105523600D02*
X163880800Y-105511600D01*
X180228200Y-107647200D02*
X179527200Y-106946200D01*
D60*
X128447800Y-119354600D02*
X127812800Y-118719600D01*
D57*
X180746400Y-107647200D02*
X180228200Y-107647200D01*
X192633600Y-107015200D02*
X191633600Y-107015200D01*
D60*
X127203200Y-118110000D02*
X127050800Y-117957600D01*
X127050800Y-117957600D02*
X119583200Y-117957600D01*
D57*
X165944800Y-116140800D02*
X165944800Y-116640800D01*
X164654950Y-116140800D02*
X165944800Y-116140800D01*
X191633600Y-105934000D02*
X191617600Y-105918000D01*
D60*
X129962800Y-124748400D02*
X129990200Y-124721000D01*
D55*
%TO.N,Net-(AT1-Pad5)*%
X160757000Y-110090000D02*
X162156093Y-110090000D01*
X162509647Y-110236447D02*
X164484354Y-112211154D01*
X164837907Y-112357600D02*
X165944800Y-112357600D01*
X162156093Y-110090005D02*
G75*
G02*
X162509647Y-110236447I7J-499995D01*
G01*
X164837907Y-112357595D02*
G75*
G02*
X164484354Y-112211154I-7J499995D01*
G01*
%TO.N,/LE*%
X170840400Y-116484400D02*
X170684000Y-116640800D01*
X142227732Y-115727400D02*
X135077200Y-115727400D01*
X169944800Y-111357600D02*
X170895200Y-111357600D01*
X170895200Y-111357600D02*
X170942000Y-111404400D01*
X170586400Y-121513600D02*
X148013932Y-121513600D01*
X123291600Y-127101600D02*
X122250200Y-126060200D01*
X126695200Y-127101600D02*
X123291600Y-127101600D01*
X170684000Y-116640800D02*
X169944800Y-116640800D01*
X148013932Y-121513600D02*
X142227732Y-115727400D01*
X122250200Y-126060200D02*
X122250200Y-124748400D01*
X127304800Y-126492000D02*
X126695200Y-127101600D01*
D56*
%TO.N,/SCLK*%
X170371200Y-116140800D02*
X169944800Y-116140800D01*
X186994800Y-103987600D02*
X182067200Y-99060000D01*
X185896000Y-107403200D02*
X186446000Y-107403200D01*
X172618400Y-100279200D02*
X171653200Y-100279200D01*
X170772785Y-110543664D02*
X170458849Y-110857600D01*
X170594800Y-105373600D02*
X170594800Y-103971658D01*
X166370000Y-124256800D02*
X146100800Y-124256800D01*
D55*
X171614400Y-100240400D02*
X171653200Y-100279200D01*
D56*
X138379200Y-131978400D02*
X135077200Y-131978400D01*
X170594800Y-114618200D02*
X170594800Y-115917200D01*
X170429000Y-114452400D02*
X170594800Y-114618200D01*
D55*
X124309294Y-122758200D02*
X120319800Y-122758200D01*
X125577600Y-116840000D02*
X125679200Y-116941600D01*
D56*
X170458849Y-110857600D02*
X169944800Y-110857600D01*
X182067200Y-99060000D02*
X182016400Y-99009200D01*
X170444800Y-105523600D02*
X170594800Y-105373600D01*
X170484800Y-120700800D02*
X170281600Y-120904000D01*
X169944800Y-105523600D02*
X170444800Y-105523600D01*
X138531600Y-131826000D02*
X138379200Y-131978400D01*
X131673600Y-129336800D02*
X120294400Y-129336800D01*
X186994800Y-106854400D02*
X186994800Y-105918000D01*
X182016400Y-99009200D02*
X172618400Y-99009200D01*
D55*
X124833000Y-111877168D02*
X125045837Y-112090005D01*
D56*
X170594800Y-103971658D02*
X170439000Y-103815858D01*
X146100800Y-124256800D02*
X138531600Y-131826000D01*
X120294400Y-129336800D02*
X120091200Y-129133600D01*
D55*
X125679200Y-119075200D02*
X125348500Y-119405900D01*
D56*
X133756400Y-131419600D02*
X131673600Y-129336800D01*
D55*
X169944800Y-100240400D02*
X171614400Y-100240400D01*
X124833000Y-110292000D02*
X124833000Y-111877168D01*
D56*
X186446000Y-107403200D02*
X186994800Y-106854400D01*
D55*
X120319800Y-122758200D02*
X119710200Y-123367800D01*
D56*
X170594800Y-115917200D02*
X170371200Y-116140800D01*
X170281600Y-120904000D02*
X166979600Y-120904000D01*
D55*
X119710200Y-123367800D02*
X119710200Y-124748400D01*
X125577600Y-114706400D02*
X125577600Y-116840000D01*
X125348500Y-119405900D02*
X125348500Y-121718994D01*
D56*
X119735600Y-126542800D02*
X119710200Y-126517400D01*
D55*
X125348500Y-121718994D02*
X124309294Y-122758200D01*
D56*
X119710200Y-126517400D02*
X119710200Y-124748400D01*
X186994800Y-105918000D02*
X186994800Y-103987600D01*
D55*
%TO.N,/MOSI*%
X118465600Y-123291600D02*
X118465600Y-124723000D01*
X169926000Y-110338800D02*
X169944800Y-110357600D01*
X118440200Y-127787400D02*
X118440200Y-124748400D01*
D56*
X185896000Y-103752400D02*
X181813200Y-99669600D01*
D55*
X169926000Y-115622000D02*
X169944800Y-115640800D01*
X124333000Y-110292000D02*
X124333000Y-112484193D01*
X124333000Y-112484193D02*
X124750321Y-112901514D01*
D56*
X181813200Y-99669600D02*
X170992800Y-99669600D01*
D55*
X169926000Y-104546400D02*
X169926000Y-105004800D01*
X136093200Y-130860800D02*
X136042400Y-130911600D01*
X169722800Y-123545600D02*
X145643600Y-123545600D01*
X138328400Y-130860800D02*
X136093200Y-130860800D01*
X145643600Y-123545600D02*
X138328400Y-130860800D01*
X169944800Y-99740400D02*
X170922000Y-99740400D01*
X169926000Y-109778800D02*
X169926000Y-110338800D01*
D56*
X185896000Y-106903200D02*
X185896000Y-103752400D01*
D55*
X169926000Y-115062000D02*
X169926000Y-115622000D01*
X134366000Y-130657600D02*
X132334000Y-128625600D01*
X118465600Y-124723000D02*
X118440200Y-124748400D01*
X170922000Y-99740400D02*
X170992800Y-99669600D01*
X132334000Y-128625600D02*
X119278400Y-128625600D01*
X119278400Y-128625600D02*
X118440200Y-127787400D01*
X169926000Y-105004800D02*
X169944800Y-105023600D01*
%TO.N,Net-(AT2-Pad5)*%
X160903447Y-113100647D02*
X165297154Y-117494354D01*
X160757000Y-110890000D02*
X160757000Y-112747093D01*
X165650707Y-117640800D02*
X165944800Y-117640800D01*
X165650707Y-117640795D02*
G75*
G02*
X165297154Y-117494354I-7J499995D01*
G01*
X160903444Y-113100650D02*
G75*
G02*
X160757000Y-112747093I353556J353550D01*
G01*
%TO.N,Net-(AT3-Pad5)*%
X162147904Y-108337904D02*
X162151200Y-108337904D01*
X165208407Y-107023600D02*
X165944800Y-107023600D01*
X162697904Y-107791200D02*
X162701200Y-107791200D01*
X160757000Y-107791200D02*
X161601200Y-107791200D01*
X162701200Y-107791200D02*
X164026593Y-107791200D01*
X164380147Y-107644753D02*
X164854854Y-107170046D01*
X162424504Y-108064552D02*
G75*
G02*
X162151200Y-108337904I-273304J-48D01*
G01*
X164380150Y-107644756D02*
G75*
G02*
X164026593Y-107791200I-353550J353556D01*
G01*
X165208407Y-107023605D02*
G75*
G03*
X164854854Y-107170046I-7J-499995D01*
G01*
X162147904Y-108337948D02*
G75*
G02*
X161874552Y-108064552I-4J273348D01*
G01*
X162697904Y-107791252D02*
G75*
G03*
X162424552Y-108064552I-4J-273348D01*
G01*
X161874600Y-108064552D02*
G75*
G03*
X161601200Y-107791200I-273400J-48D01*
G01*
%TO.N,Net-(AT3-Pad14)*%
X171455953Y-106115247D02*
X170694046Y-106877154D01*
X170340493Y-107023600D02*
X169944800Y-107023600D01*
X172783800Y-104282000D02*
X171777400Y-104282000D01*
X171777400Y-104282000D02*
X171602400Y-104457000D01*
X171602400Y-104457000D02*
X171602400Y-105761693D01*
X170694049Y-106877157D02*
G75*
G02*
X170340493Y-107023600I-353549J353557D01*
G01*
X171602395Y-105761693D02*
G75*
G02*
X171455953Y-106115247I-499995J-7D01*
G01*
%TO.N,/LE2*%
X170633200Y-106023600D02*
X169944800Y-106023600D01*
X142240000Y-116230400D02*
X130302000Y-116230400D01*
X176530000Y-116941600D02*
X171145200Y-122326400D01*
X171754800Y-109067600D02*
X171704000Y-109067600D01*
X120980200Y-123261200D02*
X120980200Y-124748400D01*
X171145200Y-122326400D02*
X148336000Y-122326400D01*
X170789600Y-105867200D02*
X170633200Y-106023600D01*
X176530000Y-113842800D02*
X176530000Y-116941600D01*
X170438000Y-100740400D02*
X169944800Y-100740400D01*
X148336000Y-122326400D02*
X142240000Y-116230400D01*
X173634400Y-110947200D02*
X171754800Y-109067600D01*
X170992800Y-101295200D02*
X170438000Y-100740400D01*
%TO.N,Net-(AT5-Pad5)*%
X181884000Y-108915200D02*
X181896000Y-108903200D01*
X180545200Y-108915200D02*
X181884000Y-108915200D01*
%TO.N,Net-(AT5-Pad14)*%
X188352400Y-108903200D02*
X188364400Y-108915200D01*
X185908000Y-108915200D02*
X185896000Y-108903200D01*
X185896000Y-108903200D02*
X188352400Y-108903200D01*
%TO.N,/LE_FA*%
X185900000Y-107899200D02*
X185896000Y-107903200D01*
X128600200Y-137399454D02*
X137018454Y-128981200D01*
X185826400Y-112826800D02*
X185826400Y-112674400D01*
X128600200Y-141748400D02*
X128600200Y-137399454D01*
X175818800Y-122834400D02*
X185826400Y-112826800D01*
X137018454Y-128981200D02*
X139039600Y-128981200D01*
X145186400Y-122834400D02*
X175818800Y-122834400D01*
X139039600Y-128981200D02*
X145186400Y-122834400D01*
X186893200Y-107899200D02*
X185900000Y-107899200D01*
D57*
%TO.N,Net-(C1-Pad1)*%
X123291600Y-102309200D02*
X122797800Y-102309200D01*
X122797800Y-102309200D02*
X122021600Y-103085400D01*
X122833000Y-104592000D02*
X122833000Y-103896800D01*
X120194800Y-107340400D02*
X120296400Y-107442000D01*
X120194800Y-106682000D02*
X120192800Y-106680000D01*
X122833000Y-103896800D02*
X122021600Y-103085400D01*
X120296400Y-107442000D02*
X121483000Y-107442000D01*
X120194800Y-107340400D02*
X120194800Y-106682000D01*
X122021600Y-102264900D02*
X122021600Y-103085400D01*
%TO.N,Net-(C2-Pad1)*%
X125833000Y-103330600D02*
X125780800Y-103278400D01*
X125537000Y-103034600D02*
X125780800Y-103278400D01*
X124510800Y-103034600D02*
X125537000Y-103034600D01*
X125833000Y-104592000D02*
X125333000Y-104592000D01*
X127983000Y-107442000D02*
X127183000Y-107442000D01*
X125833000Y-104592000D02*
X125833000Y-103330600D01*
X128420400Y-106072400D02*
X128422400Y-106070400D01*
X127812800Y-104800400D02*
X127812800Y-103274400D01*
X124510800Y-102260400D02*
X124510800Y-103034600D01*
X126796800Y-102262400D02*
X125780800Y-103278400D01*
X126796800Y-102258400D02*
X126796800Y-102262400D01*
X119989600Y-108458000D02*
X120005600Y-108442000D01*
X128420400Y-106781600D02*
X128420400Y-106072400D01*
X125688600Y-103370600D02*
X125780800Y-103278400D01*
X128420400Y-107004600D02*
X127983000Y-107442000D01*
X120005600Y-108442000D02*
X121483000Y-108442000D01*
X128420400Y-106781600D02*
X128420400Y-107004600D01*
X127812800Y-103274400D02*
X126796800Y-102258400D01*
%TO.N,Net-(C4-Pad2)*%
X123333000Y-103370600D02*
X123291600Y-103329200D01*
X123333000Y-104592000D02*
X123333000Y-103370600D01*
%TO.N,Net-(C5-Pad2)*%
X126333000Y-103742200D02*
X126796800Y-103278400D01*
X126333000Y-104592000D02*
X126333000Y-103742200D01*
%TO.N,Net-(C6-Pad1)*%
X120436600Y-103695000D02*
X120802400Y-103329200D01*
X121483000Y-105442000D02*
X121483000Y-104009800D01*
X119583200Y-103695000D02*
X120436600Y-103695000D01*
X121483000Y-104009800D02*
X120802400Y-103329200D01*
D55*
%TO.N,Net-(C10-Pad1)*%
X115364800Y-104956800D02*
X115366800Y-104954800D01*
X115364800Y-105918000D02*
X115364800Y-104956800D01*
%TO.N,Net-(C10-Pad2)*%
X117295200Y-105511600D02*
X116738400Y-104954800D01*
X117644800Y-107942000D02*
X121483000Y-107942000D01*
X117295200Y-107592400D02*
X117644800Y-107942000D01*
X117295200Y-105918000D02*
X117295200Y-107592400D01*
X116384800Y-105918000D02*
X117295200Y-105918000D01*
X117295200Y-105918000D02*
X117295200Y-105511600D01*
%TO.N,Net-(C11-Pad1)*%
X120218800Y-105942000D02*
X120194800Y-105918000D01*
X121483000Y-105942000D02*
X120218800Y-105942000D01*
X120194800Y-105918000D02*
X120194800Y-104902000D01*
%TO.N,Net-(C12-Pad1)*%
X118315200Y-105515600D02*
X117754400Y-104954800D01*
X119174800Y-105918000D02*
X118315200Y-105918000D01*
X118315200Y-105918000D02*
X118315200Y-105515600D01*
%TO.N,Net-(C14-Pad1)*%
X127183000Y-107942000D02*
X128784000Y-107942000D01*
X128784000Y-107942000D02*
X128928400Y-107797600D01*
%TO.N,Net-(C14-Pad2)*%
X130413907Y-108056000D02*
X131626800Y-108056000D01*
X129948400Y-107797600D02*
X130060354Y-107909554D01*
X130060351Y-107909557D02*
G75*
G03*
X130413907Y-108056000I353549J353557D01*
G01*
%TO.N,Net-(C15-Pad1)*%
X128754047Y-108588447D02*
X128928400Y-108762800D01*
X127183000Y-108442000D02*
X128400493Y-108442000D01*
X128754050Y-108588444D02*
G75*
G03*
X128400493Y-108442000I-353550J-353556D01*
G01*
%TO.N,Net-(C15-Pad2)*%
X130105200Y-108606000D02*
X131626800Y-108606000D01*
X129948400Y-108762800D02*
X130105200Y-108606000D01*
D57*
%TO.N,Net-(C16-Pad1)*%
X128664200Y-110337600D02*
X128664200Y-109623200D01*
X128664200Y-109623200D02*
X127983000Y-108942000D01*
X127983000Y-108942000D02*
X127183000Y-108942000D01*
D59*
%TO.N,Net-(C17-Pad1)*%
X121158000Y-111554800D02*
X121425885Y-111554800D01*
D57*
X120052600Y-110947200D02*
X120001800Y-110998000D01*
D59*
X122233000Y-110747685D02*
X122233000Y-110292000D01*
D57*
X121483000Y-108942000D02*
X120551700Y-108942000D01*
X120802400Y-110947200D02*
X120052600Y-110947200D01*
D59*
X120558600Y-111554800D02*
X120001800Y-110998000D01*
D57*
X120802400Y-110947200D02*
X120802400Y-111199200D01*
X120551700Y-108942000D02*
X120446800Y-109046900D01*
D59*
X121425885Y-111554800D02*
X122233000Y-110747685D01*
D57*
X120802400Y-111199200D02*
X121158000Y-111554800D01*
D59*
X121158000Y-111554800D02*
X120558600Y-111554800D01*
D57*
%TO.N,Net-(C18-Pad1)*%
X126288800Y-110747800D02*
X125833000Y-110292000D01*
X128727200Y-111747800D02*
X127751800Y-111747800D01*
X126288800Y-111747800D02*
X126288800Y-110747800D01*
X127508000Y-111504000D02*
X126532600Y-111504000D01*
X126532600Y-111504000D02*
X126288800Y-111747800D01*
X126333000Y-111703600D02*
X126288800Y-111747800D01*
X126333000Y-110292000D02*
X125833000Y-110292000D01*
X127751800Y-111747800D02*
X127508000Y-111504000D01*
X126333000Y-110292000D02*
X126333000Y-111703600D01*
D55*
%TO.N,Net-(C21-Pad1)*%
X123333000Y-111233918D02*
X123333000Y-110292000D01*
X123486500Y-111604500D02*
X123640000Y-111758000D01*
X123486505Y-111604495D02*
G75*
G02*
X123333000Y-111233918I370595J370595D01*
G01*
%TO.N,/REFCLK_P*%
X124272745Y-113755468D02*
X124272745Y-116080745D01*
X124272745Y-116080745D02*
X124275000Y-116083000D01*
X123640000Y-112778000D02*
X123957500Y-113095500D01*
X123515000Y-113792000D02*
X124236213Y-113792000D01*
X124236213Y-113792000D02*
X124272745Y-113755468D01*
X124272730Y-113755470D02*
G75*
G03*
X123957500Y-113095500I-1103330J-121730D01*
G01*
%TO.N,/REFCLK_N*%
X122370000Y-112778000D02*
X122052500Y-113095500D01*
X121737255Y-116080745D02*
X121735000Y-116083000D01*
X121737255Y-113755468D02*
X121737255Y-116080745D01*
X121773787Y-113792000D02*
X121737255Y-113755468D01*
X122495000Y-113792000D02*
X121773787Y-113792000D01*
X121737270Y-113755470D02*
G75*
G02*
X122052500Y-113095500I1103330J-121730D01*
G01*
%TO.N,Net-(C22-Pad2)*%
X122601500Y-111526500D02*
X122370000Y-111758000D01*
X122833000Y-110967609D02*
X122833000Y-110292000D01*
X122601497Y-111526497D02*
G75*
G03*
X122833000Y-110967609I-558897J558897D01*
G01*
%TO.N,/5.0625GHz*%
X134056000Y-108077000D02*
X134912400Y-108077000D01*
X134912400Y-108077000D02*
X134937800Y-108102400D01*
%TO.N,Net-(C26-Pad2)*%
X133015000Y-108056000D02*
X133036000Y-108077000D01*
X132126800Y-108056000D02*
X133015000Y-108056000D01*
%TO.N,Net-(C37-Pad2)*%
X178498200Y-108940600D02*
X179499800Y-108940600D01*
X179499800Y-108940600D02*
X179525200Y-108915200D01*
%TO.N,Net-(C38-Pad1)*%
X189384400Y-108915200D02*
X190733600Y-108915200D01*
%TO.N,Net-(C42-Pad1)*%
X197106000Y-108915200D02*
X198676800Y-108915200D01*
%TO.N,Net-(C42-Pad2)*%
X194533600Y-108915200D02*
X196086000Y-108915200D01*
D57*
%TO.N,/5V*%
X127183000Y-109442000D02*
X127183000Y-110317400D01*
D58*
X92971000Y-121920000D02*
X103641000Y-121920000D01*
D57*
X122333000Y-104592000D02*
X122333000Y-104216338D01*
X127000000Y-104418171D02*
X127183000Y-104601171D01*
X127183000Y-110317400D02*
X127355600Y-110490000D01*
X119087400Y-108775000D02*
X119075200Y-108762800D01*
X119087400Y-109524800D02*
X119087400Y-108775000D01*
X119189000Y-109626400D02*
X119087400Y-109524800D01*
X127183000Y-105442000D02*
X128378200Y-105442000D01*
X127183000Y-104601171D02*
X127183000Y-105442000D01*
X122333000Y-104216338D02*
X122062931Y-103946269D01*
D60*
X108102400Y-121920000D02*
X103641000Y-121920000D01*
D57*
X128378200Y-105442000D02*
X128664200Y-105156000D01*
X121298600Y-109626400D02*
X119189000Y-109626400D01*
X121483000Y-109442000D02*
X121298600Y-109626400D01*
D55*
%TO.N,/1V8*%
X147374000Y-110140800D02*
X147374000Y-109578800D01*
D60*
X93878400Y-138976600D02*
X96735400Y-138976600D01*
D55*
X147374000Y-106889600D02*
X147374000Y-106276800D01*
D60*
X96735400Y-138976600D02*
X96774000Y-138938000D01*
D55*
X147374000Y-109578800D02*
X147370800Y-109575600D01*
X160357000Y-106991200D02*
X160357000Y-106966200D01*
X160357000Y-106966200D02*
X159918400Y-106527600D01*
X160357000Y-109557000D02*
X160357000Y-110090000D01*
X160274000Y-109474000D02*
X160357000Y-109557000D01*
X147374000Y-106276800D02*
X147370800Y-106273600D01*
D58*
%TO.N,/12V*%
X93980000Y-134366000D02*
X96520000Y-134366000D01*
X86360000Y-114046000D02*
X88646000Y-111760000D01*
X86360000Y-139700000D02*
X86360000Y-131071000D01*
D60*
X92189800Y-124460000D02*
X92971000Y-124460000D01*
D58*
X78010000Y-139700000D02*
X86360000Y-139700000D01*
X89560400Y-111760000D02*
X93952500Y-111760000D01*
X86360000Y-139700000D02*
X91694000Y-134366000D01*
X86360000Y-131071000D02*
X92971000Y-124460000D01*
D60*
X93878400Y-135979400D02*
X93878400Y-134467600D01*
D58*
X88646000Y-111760000D02*
X89560400Y-111760000D01*
X91694000Y-134366000D02*
X93980000Y-134366000D01*
D60*
X93878400Y-134467600D02*
X93980000Y-134366000D01*
X90271600Y-111048800D02*
X89560400Y-111760000D01*
D58*
X86360000Y-131071000D02*
X86360000Y-114046000D01*
D60*
X90728800Y-122999000D02*
X92189800Y-124460000D01*
X90271600Y-109892600D02*
X90271600Y-111048800D01*
D55*
%TO.N,/LE_PLL*%
X126542800Y-115011200D02*
X126492000Y-115062000D01*
X125333000Y-111230027D02*
X125333000Y-110292000D01*
X126492000Y-115062000D02*
X126492000Y-117028100D01*
X126593600Y-121767600D02*
X126492000Y-121666000D01*
X125374400Y-111271427D02*
X125333000Y-111230027D01*
X124815600Y-140208000D02*
X124790200Y-140233400D01*
X126492000Y-121666000D02*
X126492000Y-119024400D01*
X124790200Y-140233400D02*
X124790200Y-141748400D01*
%TO.N,Net-(IC2-Pad1)*%
X148182743Y-111150400D02*
X148234400Y-111150400D01*
X147973143Y-110940800D02*
X148182743Y-111150400D01*
X147774000Y-110940800D02*
X147973143Y-110940800D01*
%TO.N,Net-(IC2-Pad3)*%
X150181907Y-109840000D02*
X150181907Y-109540540D01*
X153781907Y-111838919D02*
X153781907Y-109840000D01*
X155281366Y-109241081D02*
X155282448Y-109241081D01*
X152581907Y-109840000D02*
X152581907Y-109540540D01*
X154081366Y-109241081D02*
X154082448Y-109241081D01*
X154381907Y-109540540D02*
X154381907Y-109840000D01*
X148981366Y-109840000D02*
X148981907Y-109840000D01*
X149281366Y-109241081D02*
X149282448Y-109241081D01*
X151381907Y-109840000D02*
X151381907Y-109540540D01*
X151981907Y-109840000D02*
X151981907Y-111838919D01*
X153181907Y-109840000D02*
X153181907Y-111838919D01*
X154981907Y-111288919D02*
X154981907Y-109840000D01*
X153181907Y-109540540D02*
X153181907Y-109840000D01*
X156181907Y-110388919D02*
X156181907Y-110140000D01*
X150481366Y-109241081D02*
X150482448Y-109241081D01*
X148981366Y-109939460D02*
X148981366Y-109939459D01*
X151981907Y-109540540D02*
X151981907Y-109840000D01*
X151681366Y-109241081D02*
X151682448Y-109241081D01*
X151381907Y-111838919D02*
X151381907Y-109840000D01*
X156481907Y-109840000D02*
X156940420Y-109840000D01*
X153781907Y-109840000D02*
X153781907Y-109540540D01*
X154381907Y-109840000D02*
X154381907Y-111288919D01*
X149581907Y-109840000D02*
X149581907Y-110988919D01*
X148981366Y-109939459D02*
X148981366Y-109840000D01*
X148480825Y-110038919D02*
X148881907Y-110038919D01*
X148381366Y-109939459D02*
X148381366Y-109939460D01*
X154981907Y-109840000D02*
X154981907Y-109540540D01*
X152581907Y-111838919D02*
X152581907Y-109840000D01*
X155581907Y-109540540D02*
X155581907Y-109840000D01*
X147774000Y-110140800D02*
X147928354Y-109986446D01*
X149581907Y-109540540D02*
X149581907Y-109840000D01*
X148981907Y-109840000D02*
X148981907Y-109540540D01*
X155581907Y-109840000D02*
X155581907Y-110388919D01*
X150781907Y-109540540D02*
X150781907Y-109840000D01*
X150181907Y-110988919D02*
X150181907Y-109840000D01*
X152881366Y-109241081D02*
X152882448Y-109241081D01*
X150781907Y-109840000D02*
X150781907Y-111838919D01*
X156940420Y-109840000D02*
X157747000Y-109840000D01*
X150481366Y-109241007D02*
G75*
G03*
X150181907Y-109540540I34J-299493D01*
G01*
X150781819Y-109540540D02*
G75*
G03*
X150482448Y-109241081I-299419J40D01*
G01*
X152581919Y-111838919D02*
G75*
G02*
X152281907Y-112138919I-300019J19D01*
G01*
X151381919Y-111838919D02*
G75*
G02*
X151081907Y-112138919I-300019J19D01*
G01*
X149581819Y-109540540D02*
G75*
G03*
X149282448Y-109241081I-299419J40D01*
G01*
X154981919Y-111288919D02*
G75*
G02*
X154681907Y-111588919I-300019J19D01*
G01*
X148281907Y-109840005D02*
G75*
G03*
X147928354Y-109986446I-7J-499995D01*
G01*
X148480825Y-110038934D02*
G75*
G02*
X148381366Y-109939460I-25J99434D01*
G01*
X155881907Y-110688893D02*
G75*
G02*
X155581907Y-110388919I-7J299993D01*
G01*
X151681366Y-109241007D02*
G75*
G03*
X151381907Y-109540540I34J-299493D01*
G01*
X149881907Y-111288893D02*
G75*
G02*
X149581907Y-110988919I-7J299993D01*
G01*
X148981319Y-109939460D02*
G75*
G02*
X148881907Y-110038919I-99419J-40D01*
G01*
X154381819Y-109540540D02*
G75*
G03*
X154082448Y-109241081I-299419J40D01*
G01*
X154081366Y-109241007D02*
G75*
G03*
X153781907Y-109540540I34J-299493D01*
G01*
X153481907Y-112138893D02*
G75*
G02*
X153181907Y-111838919I-7J299993D01*
G01*
X152281907Y-112138893D02*
G75*
G02*
X151981907Y-111838919I-7J299993D01*
G01*
X151081907Y-112138893D02*
G75*
G02*
X150781907Y-111838919I-7J299993D01*
G01*
X156481907Y-109840007D02*
G75*
G03*
X156181907Y-110140000I-7J-299993D01*
G01*
X155581819Y-109540540D02*
G75*
G03*
X155282448Y-109241081I-299419J40D01*
G01*
X152881366Y-109241007D02*
G75*
G03*
X152581907Y-109540540I34J-299493D01*
G01*
X155281366Y-109241007D02*
G75*
G03*
X154981907Y-109540540I34J-299493D01*
G01*
X150181919Y-110988919D02*
G75*
G02*
X149881907Y-111288919I-300019J19D01*
G01*
X156181919Y-110388919D02*
G75*
G02*
X155881907Y-110688919I-300019J19D01*
G01*
X153781919Y-111838919D02*
G75*
G02*
X153481907Y-112138919I-300019J19D01*
G01*
X154681907Y-111588893D02*
G75*
G02*
X154381907Y-111288919I-7J299993D01*
G01*
X151981819Y-109540540D02*
G75*
G03*
X151682448Y-109241081I-299419J40D01*
G01*
X149281366Y-109241007D02*
G75*
G03*
X148981907Y-109540540I34J-299493D01*
G01*
X153181819Y-109540540D02*
G75*
G03*
X152882448Y-109241081I-299419J40D01*
G01*
X148381400Y-109939459D02*
G75*
G03*
X148281907Y-109840000I-99500J-41D01*
G01*
%TO.N,Net-(IC2-Pad5)*%
X142804107Y-108826913D02*
X142804107Y-110540800D01*
X142204107Y-110840800D02*
X142204107Y-108826913D01*
X145804107Y-110540800D02*
X145804107Y-108826913D01*
X140868400Y-110134400D02*
X140868400Y-110208647D01*
X140941624Y-110385424D02*
X140950554Y-110394354D01*
X146404107Y-108826913D02*
X146404107Y-110240800D01*
X144604107Y-112254687D02*
X144604107Y-110540800D01*
X143404107Y-110540800D02*
X143404107Y-108826913D01*
X140868400Y-109740200D02*
X140880600Y-109728000D01*
X141604107Y-110840800D02*
X141604107Y-112254687D01*
X144004107Y-110540800D02*
X144004107Y-112254687D01*
X146704107Y-110540800D02*
X147243800Y-110540800D01*
X145804107Y-112254687D02*
X145804107Y-110540800D01*
X144604107Y-110540800D02*
X144604107Y-108826913D01*
X143404107Y-112254687D02*
X143404107Y-110540800D01*
X144004107Y-108826913D02*
X144004107Y-110540800D01*
X145204107Y-108826913D02*
X145204107Y-110540800D01*
X139801600Y-109565200D02*
X140411200Y-109565200D01*
X142804107Y-110540800D02*
X142804107Y-112254687D01*
X145204107Y-110540800D02*
X145204107Y-112254687D01*
X142204107Y-112254687D02*
X142204107Y-110840800D01*
X142204087Y-112254687D02*
G75*
G02*
X141904107Y-112554687I-299987J-13D01*
G01*
X144904107Y-108526907D02*
G75*
G03*
X144604107Y-108826913I-7J-299993D01*
G01*
X143704107Y-108526907D02*
G75*
G03*
X143404107Y-108826913I-7J-299993D01*
G01*
X141304107Y-110540795D02*
G75*
G02*
X140950554Y-110394354I-7J499995D01*
G01*
X142804087Y-108826913D02*
G75*
G03*
X142504107Y-108526913I-299987J13D01*
G01*
X146104107Y-108526907D02*
G75*
G03*
X145804107Y-108826913I-7J-299993D01*
G01*
X142504107Y-108526907D02*
G75*
G03*
X142204107Y-108826913I-7J-299993D01*
G01*
X140941647Y-110385401D02*
G75*
G02*
X140868400Y-110208647I176753J176801D01*
G01*
X145504107Y-112554693D02*
G75*
G02*
X145204107Y-112254687I-7J299993D01*
G01*
X141904107Y-112554693D02*
G75*
G02*
X141604107Y-112254687I-7J299993D01*
G01*
X146404087Y-108826913D02*
G75*
G03*
X146104107Y-108526913I-299987J13D01*
G01*
X144304107Y-112554693D02*
G75*
G02*
X144004107Y-112254687I-7J299993D01*
G01*
X141604100Y-110840800D02*
G75*
G03*
X141304107Y-110540800I-300000J0D01*
G01*
X143404087Y-112254687D02*
G75*
G02*
X143104107Y-112554687I-299987J-13D01*
G01*
X146704107Y-110540793D02*
G75*
G02*
X146404107Y-110240800I-7J299993D01*
G01*
X143104107Y-112554693D02*
G75*
G02*
X142804107Y-112254687I-7J299993D01*
G01*
X144004087Y-108826913D02*
G75*
G03*
X143704107Y-108526913I-299987J13D01*
G01*
X144604087Y-112254687D02*
G75*
G02*
X144304107Y-112554687I-299987J-13D01*
G01*
X145804087Y-112254687D02*
G75*
G02*
X145504107Y-112554687I-299987J-13D01*
G01*
X145204087Y-108826913D02*
G75*
G03*
X144904107Y-108526913I-299987J13D01*
G01*
%TO.N,/CTRL_180*%
X125034300Y-122615700D02*
X123520200Y-124129800D01*
X147374000Y-110940800D02*
X147374000Y-111604400D01*
X127965200Y-121158000D02*
X126507500Y-122615700D01*
X123520200Y-124129800D02*
X123520200Y-124748400D01*
X126507500Y-122615700D02*
X125034300Y-122615700D01*
X147374000Y-111604400D02*
X147370800Y-111607600D01*
%TO.N,Net-(IC3-Pad1)*%
X147774000Y-107689600D02*
X147979153Y-107894753D01*
X155902200Y-107199066D02*
X155902200Y-107741200D01*
X152573267Y-108583334D02*
X152631133Y-108583334D01*
X152302200Y-108041200D02*
X152302200Y-108312267D01*
X150173267Y-108583334D02*
X150231133Y-108583334D01*
X151373267Y-108583334D02*
X151431133Y-108583334D01*
X156202200Y-108041200D02*
X156599475Y-108041200D01*
X149298267Y-108041200D02*
X149302200Y-108041200D01*
X151702200Y-108312267D02*
X151702200Y-108041200D01*
X154102200Y-108312267D02*
X154102200Y-108041200D01*
X155302200Y-108041200D02*
X155302200Y-107199066D01*
X156599475Y-108041200D02*
X157747000Y-108041200D01*
X154973267Y-108583334D02*
X155031133Y-108583334D01*
X152302200Y-106049066D02*
X152302200Y-108041200D01*
X149902200Y-107099066D02*
X149902200Y-108041200D01*
X149302200Y-108041200D02*
X149302200Y-107099066D01*
X148332707Y-108041200D02*
X148427200Y-108041200D01*
X153773267Y-108583334D02*
X153831133Y-108583334D01*
X154702200Y-108041200D02*
X154702200Y-108312267D01*
X152902200Y-108312267D02*
X152902200Y-108041200D01*
X154702200Y-106199066D02*
X154702200Y-108041200D01*
X150502200Y-108041200D02*
X150502200Y-106049066D01*
X149902200Y-108041200D02*
X149902200Y-108312267D01*
X153502200Y-106049066D02*
X153502200Y-108041200D01*
X153502200Y-108041200D02*
X153502200Y-108312267D01*
X151102200Y-108041200D02*
X151102200Y-108312267D01*
X154102200Y-108041200D02*
X154102200Y-106199066D01*
X148969334Y-108583334D02*
X149027200Y-108583334D01*
X151102200Y-106049066D02*
X151102200Y-108041200D01*
X149298267Y-108312267D02*
X149298267Y-108041200D01*
X152902200Y-108041200D02*
X152902200Y-106049066D01*
X151702200Y-108041200D02*
X151702200Y-106049066D01*
X150502200Y-108312267D02*
X150502200Y-108041200D01*
X155302200Y-108312267D02*
X155302200Y-108041200D01*
X151102234Y-106049066D02*
G75*
G03*
X150802200Y-105749066I-300034J-34D01*
G01*
X154973267Y-108583400D02*
G75*
G02*
X154702200Y-108312267I33J271100D01*
G01*
X152902134Y-108312267D02*
G75*
G02*
X152631133Y-108583334I-271034J-33D01*
G01*
X149602200Y-106799100D02*
G75*
G03*
X149302200Y-107099066I0J-300000D01*
G01*
X148332707Y-108041195D02*
G75*
G02*
X147979153Y-107894753I-7J499995D01*
G01*
X151373267Y-108583400D02*
G75*
G02*
X151102200Y-108312267I33J271100D01*
G01*
X155602200Y-106899100D02*
G75*
G03*
X155302200Y-107199066I0J-300000D01*
G01*
X149298234Y-108312267D02*
G75*
G02*
X149027200Y-108583334I-271034J-33D01*
G01*
X150502134Y-108312267D02*
G75*
G02*
X150231133Y-108583334I-271034J-33D01*
G01*
X153773267Y-108583400D02*
G75*
G02*
X153502200Y-108312267I33J271100D01*
G01*
X154402200Y-105899100D02*
G75*
G03*
X154102200Y-106199066I0J-300000D01*
G01*
X155902234Y-107199066D02*
G75*
G03*
X155602200Y-106899066I-300034J-34D01*
G01*
X149902234Y-107099066D02*
G75*
G03*
X149602200Y-106799066I-300034J-34D01*
G01*
X155302134Y-108312267D02*
G75*
G02*
X155031133Y-108583334I-271034J-33D01*
G01*
X148969334Y-108583333D02*
G75*
G02*
X148698267Y-108312267I-34J271033D01*
G01*
X154102134Y-108312267D02*
G75*
G02*
X153831133Y-108583334I-271034J-33D01*
G01*
X153502234Y-106049066D02*
G75*
G03*
X153202200Y-105749066I-300034J-34D01*
G01*
X151702134Y-108312267D02*
G75*
G02*
X151431133Y-108583334I-271034J-33D01*
G01*
X153202200Y-105749100D02*
G75*
G03*
X152902200Y-106049066I0J-300000D01*
G01*
X152302234Y-106049066D02*
G75*
G03*
X152002200Y-105749066I-300034J-34D01*
G01*
X152573267Y-108583400D02*
G75*
G02*
X152302200Y-108312267I33J271100D01*
G01*
X156202200Y-108041200D02*
G75*
G02*
X155902200Y-107741200I0J300000D01*
G01*
X154702234Y-106199066D02*
G75*
G03*
X154402200Y-105899066I-300034J-34D01*
G01*
X152002200Y-105749100D02*
G75*
G03*
X151702200Y-106049066I0J-300000D01*
G01*
X150173267Y-108583400D02*
G75*
G02*
X149902200Y-108312267I33J271100D01*
G01*
X150802200Y-105749100D02*
G75*
G03*
X150502200Y-106049066I0J-300000D01*
G01*
X148698300Y-108312267D02*
G75*
G03*
X148427200Y-108041200I-271100J-33D01*
G01*
%TO.N,Net-(IC3-Pad3)*%
X147774000Y-106889600D02*
X147974000Y-106889600D01*
X147974000Y-106889600D02*
X148132800Y-106730800D01*
X148132800Y-106730800D02*
X148234400Y-106730800D01*
%TO.N,Net-(IC3-Pad5)*%
X146519107Y-107582493D02*
X146072423Y-108029177D01*
X145895647Y-108102400D02*
X145866200Y-108102400D01*
X145895647Y-108102432D02*
G75*
G03*
X146072422Y-108029176I-47J250032D01*
G01*
X147226214Y-107289610D02*
G75*
G03*
X146519107Y-107582493I-14J-999990D01*
G01*
%TO.N,/CTRL_90180*%
X117170200Y-124748400D02*
X117170200Y-122758200D01*
X117170200Y-122758200D02*
X117398800Y-122529600D01*
X147320000Y-107743600D02*
X147374000Y-107689600D01*
X117398800Y-122529600D02*
X117754400Y-122174000D01*
X117754400Y-122174000D02*
X122783600Y-122174000D01*
X147320000Y-108305600D02*
X147320000Y-107743600D01*
%TO.N,Net-(IC4-Pad5)*%
X158737000Y-107391200D02*
X160357000Y-107391200D01*
%TO.N,/CTRL_90F*%
X147320000Y-119024400D02*
X148031200Y-119735600D01*
X146710400Y-119024400D02*
X147320000Y-119024400D01*
X160357000Y-108337800D02*
X160357000Y-107791200D01*
X148031200Y-119735600D02*
X159105600Y-119735600D01*
X129870200Y-141748400D02*
X129870200Y-137287000D01*
X160375600Y-108356400D02*
X160357000Y-108337800D01*
X159105600Y-119735600D02*
X160731200Y-118110000D01*
X129870200Y-137287000D02*
X130505200Y-136652000D01*
%TO.N,Net-(IC5-Pad5)*%
X158737000Y-110490000D02*
X160357000Y-110490000D01*
%TO.N,/CTRL_F*%
X147320000Y-119938800D02*
X147726400Y-120345200D01*
X124790200Y-126415800D02*
X124866400Y-126492000D01*
X160121600Y-111506000D02*
X160121600Y-111125400D01*
X125069600Y-127762000D02*
X138938000Y-127762000D01*
X147726400Y-120345200D02*
X159308800Y-120345200D01*
X159308800Y-120345200D02*
X160070800Y-119583200D01*
X160121600Y-111125400D02*
X160357000Y-110890000D01*
X138938000Y-127762000D02*
X145643600Y-121056400D01*
X124790200Y-124748400D02*
X124790200Y-126415800D01*
%TO.N,/5.0625_REF*%
X136093200Y-107452400D02*
X136702800Y-107452400D01*
%TO.N,/5.0625_SPLIT1*%
X137617200Y-108915200D02*
X138480800Y-108915200D01*
X136103600Y-108752400D02*
X136692400Y-108752400D01*
D61*
%TO.N,/REF_EN*%
X115874800Y-131724400D02*
X115874800Y-126746000D01*
X122250200Y-141748400D02*
X122250200Y-138099800D01*
X122250200Y-138099800D02*
X115874800Y-131724400D01*
X115874800Y-126746000D02*
X115468400Y-126339600D01*
X112572800Y-126085600D02*
X112572800Y-123494800D01*
X115468400Y-126339600D02*
X112826800Y-126339600D01*
X116184600Y-119883000D02*
X119195000Y-119883000D01*
X112572800Y-123494800D02*
X116184600Y-119883000D01*
X112826800Y-126339600D02*
X112572800Y-126085600D01*
D55*
%TO.N,Net-(R11-Pad1)*%
X177508200Y-109590600D02*
X176501800Y-109590600D01*
X173773800Y-114249200D02*
X174037750Y-114249200D01*
X176326800Y-111960150D02*
X176326800Y-109765600D01*
X174391304Y-114102753D02*
X176180354Y-112313703D01*
X176501800Y-109590600D02*
X176326800Y-109765600D01*
X176326835Y-111960150D02*
G75*
G02*
X176180354Y-112313703I-500035J50D01*
G01*
X174391329Y-114102778D02*
G75*
G02*
X174037750Y-114249200I-353529J353578D01*
G01*
%TO.N,Net-(R11-Pad2)*%
X173773800Y-103632000D02*
X174037750Y-103632000D01*
X177508200Y-108290600D02*
X176501800Y-108290600D01*
X176501800Y-108290600D02*
X176326800Y-108115600D01*
X174391304Y-103778447D02*
X176180354Y-105567497D01*
X176326800Y-105921050D02*
X176326800Y-108115600D01*
X176326835Y-105921050D02*
G75*
G03*
X176180354Y-105567497I-500035J-50D01*
G01*
X174037750Y-103632036D02*
G75*
G02*
X174391303Y-103778448I50J-499964D01*
G01*
%TO.N,Net-(R6-Pad2)*%
X141325600Y-108102400D02*
X141681200Y-108102400D01*
X139801600Y-108265200D02*
X140411200Y-108265200D01*
%TO.N,Net-(R7-Pad2)*%
X157743800Y-111143200D02*
X157747000Y-111140000D01*
X157022800Y-111143200D02*
X157743800Y-111143200D01*
%TO.N,Net-(AT4-Pad5)*%
X162808168Y-103691294D02*
X162855051Y-103738177D01*
X162901930Y-105269982D02*
X162901931Y-105269982D01*
X165347800Y-101740400D02*
X165944800Y-101740400D01*
X162808170Y-103691293D02*
X162808168Y-103691294D01*
X160757000Y-106991200D02*
X160757000Y-106331200D01*
X162313192Y-103691294D02*
X162313194Y-103691293D01*
X160757000Y-106331200D02*
X161865100Y-105223100D01*
X162901931Y-104775007D02*
X162313193Y-104186269D01*
X163350025Y-103738177D02*
X163350027Y-103738176D01*
X163350027Y-103738176D02*
X165347800Y-101740400D01*
X162360074Y-105223100D02*
X162406956Y-105269982D01*
X162901931Y-104775006D02*
X162901931Y-104775007D01*
X162901925Y-104775012D02*
G75*
G02*
X162901931Y-105269982I-247525J-247488D01*
G01*
X162808170Y-103691293D02*
G75*
G03*
X162313194Y-103691293I-247488J-247491D01*
G01*
X163350025Y-103738177D02*
G75*
G02*
X162855051Y-103738177I-247487J247492D01*
G01*
X162313212Y-103691314D02*
G75*
G03*
X162313194Y-104186268I247488J-247486D01*
G01*
X162360073Y-105223101D02*
G75*
G03*
X161865101Y-105223101I-247486J-247488D01*
G01*
X162901929Y-105269981D02*
G75*
G02*
X162406957Y-105269981I-247486J247488D01*
G01*
%TO.N,Net-(U5-Pad2)*%
X157747000Y-106741200D02*
X156689800Y-106741200D01*
%TO.N,Net-(R10-Pad2)*%
X171777400Y-113599200D02*
X171602400Y-113424200D01*
X170682247Y-112504047D02*
X171602400Y-113424200D01*
X172783800Y-113599200D02*
X171777400Y-113599200D01*
X169944800Y-112357600D02*
X170328693Y-112357600D01*
X170682250Y-112504044D02*
G75*
G03*
X170328693Y-112357600I-353550J-353556D01*
G01*
%TO.N,Net-(R10-Pad1)*%
X171777400Y-114899200D02*
X171602400Y-115074200D01*
X170334693Y-117640800D02*
X169944800Y-117640800D01*
X171455953Y-116726647D02*
X170688246Y-117494354D01*
X171602400Y-115074200D02*
X171602400Y-116373093D01*
X172783800Y-114899200D02*
X171777400Y-114899200D01*
X171602395Y-116373093D02*
G75*
G02*
X171455953Y-116726647I-499995J-7D01*
G01*
X170688249Y-117494357D02*
G75*
G02*
X170334693Y-117640800I-353549J353557D01*
G01*
%TO.N,Net-(R9-Pad2)*%
X170682247Y-101886847D02*
X171602400Y-102807000D01*
X172783800Y-102982000D02*
X171777400Y-102982000D01*
X169944800Y-101740400D02*
X170328693Y-101740400D01*
X171777400Y-102982000D02*
X171602400Y-102807000D01*
X170682250Y-101886844D02*
G75*
G03*
X170328693Y-101740400I-353550J-353556D01*
G01*
D61*
%TO.N,Net-(J4-Pad1)*%
X127330200Y-144240800D02*
X127996000Y-144906600D01*
X127330200Y-141748400D02*
X127330200Y-144240800D01*
%TO.N,Net-(J4-Pad2)*%
X126060200Y-144302400D02*
X125456000Y-144906600D01*
X126060200Y-141748400D02*
X126060200Y-144302400D01*
D55*
%TO.N,Net-(J1-Pad1)*%
X199696800Y-108915200D02*
X207707600Y-108915200D01*
%TD*%
M02*
